<svg width="52" height="58" viewBox="0 0 52 58" fill="none" xmlns="http://www.w3.org/2000/svg">
<circle cx="26.0992" cy="26.2974" r="25.6529" fill="#5236FF"/>
<mask id="mask0_2102_403" style="mask-type:alpha" maskUnits="userSpaceOnUse" x="0" y="0" width="52" height="52">
<circle cx="26.0992" cy="26.2974" r="25.6529" fill="url(#paint0_linear_2102_403)"/>
</mask>
<g mask="url(#mask0_2102_403)">
</g>
<path d="M46.3958 57.7136C46.4198 54.4314 45.9082 51.1774 44.8903 48.1374C43.8723 45.0975 42.3679 42.331 40.4629 39.9961C38.5579 37.6611 36.2897 35.8034 33.7877 34.5289C31.2857 33.2545 28.599 32.5883 25.8809 32.5684C23.1628 32.5485 20.4666 33.1753 17.9462 34.413C15.4258 35.6506 13.1306 37.4749 11.1917 39.7817C9.25271 42.0885 7.70794 44.8327 6.64557 47.8574C5.5832 50.8822 5.02403 54.1283 5 57.4105L46.3958 57.7136Z" fill="#E1E3F9"/>
<path d="M35.7186 19.8845C35.7186 25.1974 31.4116 29.5043 26.0988 29.5043C20.7859 29.5043 16.4789 25.1974 16.4789 19.8845C16.4789 14.5716 20.7859 10.2646 26.0988 10.2646C31.4116 10.2646 35.7186 14.5716 35.7186 19.8845Z" fill="#E1E3F9"/>
<defs>
<linearGradient id="paint0_linear_2102_403" x1="4.45455" y1="5.85527" x2="50.1488" y2="53.1528" gradientUnits="userSpaceOnUse">
<stop stop-color="#5860C2"/>
<stop offset="1" stop-color="#292F8D"/>
</linearGradient>
</defs>
</svg>
