<svg width="51" height="54" viewBox="0 0 51 54" fill="none" xmlns="http://www.w3.org/2000/svg">
<path d="M43.6645 37.8633L34.9814 46.5198C33.8689 47.6283 32.3702 48.247 30.7995 48.247H7.92264C4.65231 48.247 2 45.5918 2 42.3179V7.9291C2 4.65521 4.65231 2 7.92264 2H39.4826C42.7529 2 45.4052 4.65521 45.4052 7.9291V33.6614C45.4103 35.2391 44.782 36.7497 43.6645 37.8633Z" stroke="white" stroke-width="2.5" stroke-miterlimit="10"/>
<path d="M48.9279 43.3956L40.2448 52.0521C39.1323 53.1606 37.6336 53.7792 36.0629 53.7792H13.1912C9.92087 53.7792 7.26855 51.124 7.26855 47.8501V13.4613C7.26855 10.1874 9.92087 7.53223 13.1912 7.53223H44.7511C48.0214 7.53223 50.6737 10.1874 50.6737 13.4613V39.1936C50.6737 40.7713 50.0454 42.2819 48.9279 43.3956Z" fill="#907EFF"/>
<path d="M15.7256 21.5497C15.7256 20.9063 16.2471 20.3848 16.8905 20.3848H41.7424C42.3858 20.3848 42.9073 20.9063 42.9073 21.5497C42.9073 22.1931 42.3858 22.7146 41.7424 22.7146H16.8905C16.2471 22.7146 15.7256 22.1931 15.7256 21.5497Z" fill="white"/>
<path d="M15.7256 26.9862C15.7256 26.3428 16.2471 25.8213 16.8905 25.8213H41.7424C42.3858 25.8213 42.9073 26.3428 42.9073 26.9862C42.9073 27.6296 42.3858 28.1512 41.7424 28.1512H16.8905C16.2471 28.1512 15.7256 27.6296 15.7256 26.9862Z" fill="white"/>
<path d="M15.7256 32.4218C15.7256 31.7784 16.2471 31.2568 16.8905 31.2568H41.7424C42.3858 31.2568 42.9073 31.7784 42.9073 32.4218C42.9073 33.0651 42.3858 33.5867 41.7424 33.5867H16.8905C16.2471 33.5867 15.7256 33.0651 15.7256 32.4218Z" fill="white"/>
<path d="M15.7256 37.8583C15.7256 37.2149 16.2471 36.6934 16.8905 36.6934H29.3165C29.9598 36.6934 30.4814 37.2149 30.4814 37.8583C30.4814 38.5017 29.9598 39.0232 29.3165 39.0232H16.8905C16.2471 39.0232 15.7256 38.5017 15.7256 37.8583Z" fill="white"/>
</svg>
