<svg width="48" height="47" viewBox="0 0 48 47" fill="none" xmlns="http://www.w3.org/2000/svg">
<path d="M0.622656 11.2729C0.639024 11.3647 0.652275 11.4566 0.657731 11.5492C0.727101 12.738 1.6258 22.2229 12.9246 33.7716C12.9246 33.7716 22.6847 43.7181 32.957 45.8093C33.0014 45.8185 33.0451 45.8285 33.0895 45.8407C33.7115 46.0099 38.9992 47.3464 41.7249 44.6129L45.6081 40.7993C45.6432 40.7649 45.6798 40.7312 45.7172 40.699C46.1046 40.3661 48.8015 37.8745 46.1038 35.2252C43.3735 32.5437 39.9314 29.2744 39.5417 28.9039C39.523 28.8863 39.5051 28.8687 39.4872 28.8504C39.2759 28.6345 37.2696 26.6933 34.9196 28.4669C34.8518 28.5181 34.7879 28.5756 34.7271 28.6353L30.925 32.3792C30.0731 33.1867 28.72 33.176 27.8805 32.3554L14.8911 19.6479C14.0189 18.7944 14.0415 17.4005 14.941 16.5745L17.9808 13.7852C17.9808 13.7852 21.3114 10.757 17.7345 7.48611L12.425 2.27174C12.3922 2.23959 12.361 2.20668 12.3299 2.17223C11.9869 1.79256 9.44203 -0.806976 6.45599 2.0865C6.3648 2.17453 6.26581 2.25413 6.16059 2.32456C5.14731 3.00736 -0.17783 6.82245 0.622656 11.2729Z" fill="white"/>
<path d="M36.4092 20.5619C37.2316 20.5614 37.9087 19.8912 37.7923 19.0771C37.6485 18.0718 37.3595 17.0901 36.9322 16.1632C36.2964 14.7841 35.3696 13.5591 34.2155 12.5723C33.0613 11.5854 31.7071 10.8602 30.2461 10.4465C29.264 10.1684 28.2493 10.0354 27.2339 10.0495C26.4116 10.061 25.8547 10.834 25.982 11.6465C26.1094 12.4589 26.8752 12.9987 27.6969 13.0332C28.2833 13.0579 28.8666 13.151 29.4346 13.3119C30.482 13.6085 31.4527 14.1284 32.2801 14.8358C33.1075 15.5432 33.7719 16.4214 34.2276 17.41C34.4748 17.9461 34.6574 18.5078 34.7729 19.0833C34.9346 19.8896 35.5868 20.5623 36.4092 20.5619Z" fill="#F9A1E5"/>
<path d="M42.5619 20.7313C43.5524 20.8088 44.4292 20.0669 44.3921 19.074C44.3248 17.2681 43.9438 15.4829 43.2618 13.7995C42.3539 11.5587 40.9375 9.55979 39.1243 7.96053C37.3112 6.36127 35.151 5.20552 32.8144 4.58456C31.059 4.11806 29.2403 3.96299 27.4401 4.12168C26.4503 4.20892 25.8236 5.17145 26.0242 6.14459C26.2248 7.11772 27.1779 7.72957 28.1701 7.67662C29.419 7.60997 30.6744 7.73886 31.8903 8.06198C33.6877 8.53966 35.3494 9.42873 36.7442 10.659C38.139 11.8892 39.2286 13.4269 39.927 15.1506C40.3994 16.3166 40.684 17.5461 40.7739 18.7936C40.8452 19.7846 41.5713 20.6538 42.5619 20.7313Z" fill="#F9A1E5"/>
</svg>
