<svg width="44" height="42" viewBox="0 0 44 42" fill="none" xmlns="http://www.w3.org/2000/svg">
<mask id="path-1-outside-1_1_3019" maskUnits="userSpaceOnUse" x="0.373047" y="0" width="44" height="42" fill="black">
<rect fill="white" x="0.373047" width="44" height="42"/>
<path d="M42.2168 31.7031C42.5293 31.0781 42.1387 30.5312 41.6699 30.4531C36.2012 29.5938 33.7793 23.9688 33.623 23.7344C33.3105 23.1094 33.3105 22.6406 33.4668 22.25C33.7793 21.5469 34.9512 21.1562 35.6543 20.9219C35.8887 20.8438 36.123 20.7656 36.2793 20.6875C37.6074 20.1406 38.3105 19.5156 38.3105 18.7344C38.2324 18.1875 37.8418 17.6406 37.0605 17.3281C36.5918 17.1719 35.9668 17.1719 35.498 17.3281C34.7949 17.6406 34.248 17.7969 33.7012 17.875C33.3887 17.7969 33.1543 17.7188 33.0762 17.6406C33.2324 14.8281 33.623 10.8438 32.6074 8.57812C30.7324 4.35938 26.8262 2.25 22.6855 2.25C22.6074 2.25 21.9824 2.25 21.9043 2.25C20.2637 2.25 14.7168 2.71875 12.0605 8.65625C11.0449 10.8438 11.4355 14.9062 11.5918 17.6406C11.4355 17.7188 11.2012 17.875 10.8105 17.875C10.2637 17.875 9.7168 17.7188 9.01367 17.3281C8.07617 16.9375 6.5918 17.5625 6.43555 18.5781C6.2793 19.125 6.5918 19.9844 8.38867 20.6875C9.0918 21 10.8105 21.3125 11.2012 22.25C11.3574 22.6406 11.3574 23.1094 11.0449 23.7344C10.8887 23.9688 8.4668 29.5938 2.99805 30.4531C2.60742 30.5312 2.29492 30.9219 2.29492 31.3125H2.37305C2.45117 32.9531 6.04492 33.5781 7.68555 33.8906C7.8418 34.0469 7.99805 34.9844 8.23242 35.7656C8.31055 36.0781 8.54492 36.4688 9.16992 36.4688C9.79492 36.4688 10.7324 36.0781 12.2168 36.0781C14.248 36.0781 14.9512 36.5469 16.5918 37.7188C17.7637 38.5 19.7949 39.9844 22.2949 39.8281C24.7168 39.9062 26.3574 38.8906 28.0762 37.7188C29.7168 36.5469 30.4199 36.0781 32.4512 36.0781C34.0137 36.0781 34.7949 36.3906 35.498 36.3906C36.0449 36.3906 36.3574 36.1562 36.4355 35.6875C36.6699 34.9844 36.8262 34.0469 36.9824 33.8125C40.1074 33.3438 41.8262 32.6406 42.2168 31.7031Z"/>
</mask>
<path d="M42.2168 31.7031C42.5293 31.0781 42.1387 30.5312 41.6699 30.4531C36.2012 29.5938 33.7793 23.9688 33.623 23.7344C33.3105 23.1094 33.3105 22.6406 33.4668 22.25C33.7793 21.5469 34.9512 21.1562 35.6543 20.9219C35.8887 20.8438 36.123 20.7656 36.2793 20.6875C37.6074 20.1406 38.3105 19.5156 38.3105 18.7344C38.2324 18.1875 37.8418 17.6406 37.0605 17.3281C36.5918 17.1719 35.9668 17.1719 35.498 17.3281C34.7949 17.6406 34.248 17.7969 33.7012 17.875C33.3887 17.7969 33.1543 17.7188 33.0762 17.6406C33.2324 14.8281 33.623 10.8438 32.6074 8.57812C30.7324 4.35938 26.8262 2.25 22.6855 2.25C22.6074 2.25 21.9824 2.25 21.9043 2.25C20.2637 2.25 14.7168 2.71875 12.0605 8.65625C11.0449 10.8438 11.4355 14.9062 11.5918 17.6406C11.4355 17.7188 11.2012 17.875 10.8105 17.875C10.2637 17.875 9.7168 17.7188 9.01367 17.3281C8.07617 16.9375 6.5918 17.5625 6.43555 18.5781C6.2793 19.125 6.5918 19.9844 8.38867 20.6875C9.0918 21 10.8105 21.3125 11.2012 22.25C11.3574 22.6406 11.3574 23.1094 11.0449 23.7344C10.8887 23.9688 8.4668 29.5938 2.99805 30.4531C2.60742 30.5312 2.29492 30.9219 2.29492 31.3125H2.37305C2.45117 32.9531 6.04492 33.5781 7.68555 33.8906C7.8418 34.0469 7.99805 34.9844 8.23242 35.7656C8.31055 36.0781 8.54492 36.4688 9.16992 36.4688C9.79492 36.4688 10.7324 36.0781 12.2168 36.0781C14.248 36.0781 14.9512 36.5469 16.5918 37.7188C17.7637 38.5 19.7949 39.9844 22.2949 39.8281C24.7168 39.9062 26.3574 38.8906 28.0762 37.7188C29.7168 36.5469 30.4199 36.0781 32.4512 36.0781C34.0137 36.0781 34.7949 36.3906 35.498 36.3906C36.0449 36.3906 36.3574 36.1562 36.4355 35.6875C36.6699 34.9844 36.8262 34.0469 36.9824 33.8125C40.1074 33.3438 41.8262 32.6406 42.2168 31.7031Z" fill="white"/>
<path d="M42.2168 31.7031L40.8752 31.0323L40.8521 31.0785L40.8322 31.1262L42.2168 31.7031ZM41.6699 30.4531L41.9165 28.9735L41.9028 28.9713L41.6699 30.4531ZM33.623 23.7344L32.2814 24.4052L32.3232 24.4887L32.375 24.5664L33.623 23.7344ZM33.4668 22.25L32.0961 21.6408L32.0846 21.6666L32.0741 21.6929L33.4668 22.25ZM36.2793 20.6875L35.7082 19.3005L35.6575 19.3214L35.6085 19.3459L36.2793 20.6875ZM38.3105 18.7344H39.8105V18.6278L39.7955 18.5222L38.3105 18.7344ZM37.0605 17.3281L37.6176 15.9354L37.5767 15.919L37.5349 15.9051L37.0605 17.3281ZM35.498 17.3281L35.0237 15.9051L34.955 15.928L34.8888 15.9574L35.498 17.3281ZM33.7012 17.875L33.3374 19.3302L33.6224 19.4015L33.9133 19.3599L33.7012 17.875ZM33.0762 17.6406L31.5785 17.5574L31.5413 18.2271L32.0155 18.7013L33.0762 17.6406ZM32.6074 8.57812L31.2367 9.18734L31.2387 9.19171L32.6074 8.57812ZM12.0605 8.65625L13.4211 9.28792L13.4255 9.27839L13.4298 9.2688L12.0605 8.65625ZM11.5918 17.6406L12.2626 18.9823L13.1457 18.5407L13.0894 17.555L11.5918 17.6406ZM9.01367 17.3281L9.74214 16.0169L9.66843 15.9759L9.59059 15.9435L9.01367 17.3281ZM6.43555 18.5781L7.87783 18.9902L7.90376 18.8995L7.9181 18.8062L6.43555 18.5781ZM8.38867 20.6875L8.99788 19.3168L8.96687 19.303L8.93527 19.2906L8.38867 20.6875ZM11.2012 22.25L12.5939 21.6929L12.5899 21.683L12.5858 21.6731L11.2012 22.25ZM11.0449 23.7344L12.293 24.5664L12.3448 24.4887L12.3866 24.4052L11.0449 23.7344ZM2.99805 30.4531L2.76519 28.9713L2.73442 28.9761L2.70387 28.9823L2.99805 30.4531ZM2.29492 31.3125H0.794922V32.8125H2.29492V31.3125ZM2.37305 31.3125L3.87135 31.2412L3.80332 29.8125H2.37305V31.3125ZM7.68555 33.8906L8.74621 32.83L8.41975 32.5035L7.96622 32.4171L7.68555 33.8906ZM8.23242 35.7656L9.68764 35.4018L9.67918 35.368L9.66916 35.3346L8.23242 35.7656ZM16.5918 37.7188L15.7199 38.9394L15.7396 38.9534L15.7597 38.9668L16.5918 37.7188ZM22.2949 39.8281L22.3433 38.3289L22.2723 38.3266L22.2014 38.331L22.2949 39.8281ZM28.0762 37.7188L28.9212 38.9581L28.9347 38.9489L28.948 38.9394L28.0762 37.7188ZM36.4355 35.6875L35.0125 35.2132L34.9753 35.3248L34.956 35.4409L36.4355 35.6875ZM36.9824 33.8125L36.7599 32.3291L36.1029 32.4277L35.7343 32.9804L36.9824 33.8125ZM43.5584 32.3739C44.3371 30.8166 43.3478 29.2121 41.9165 28.9735L41.4233 31.9327C41.176 31.8915 40.9988 31.7439 40.9065 31.5669C40.7922 31.3478 40.8249 31.1328 40.8752 31.0323L43.5584 32.3739ZM41.9028 28.9713C39.6515 28.6175 37.9746 27.2761 36.7983 25.8892C35.5237 24.3863 35.1815 23.3678 34.8711 22.9023L32.375 24.5664C32.2209 24.3353 33.1677 26.2465 34.5103 27.8296C35.9512 29.5286 38.2196 31.4293 41.4371 31.9349L41.9028 28.9713ZM34.9647 23.0636C34.8748 22.8838 34.8654 22.7974 34.8644 22.7847C34.8639 22.7783 34.8647 22.782 34.8631 22.7919C34.8616 22.8016 34.8593 22.8075 34.8595 22.8071L32.0741 21.6929C31.7289 22.5559 31.8164 23.4752 32.2814 24.4052L34.9647 23.0636ZM34.8375 22.8592C34.7964 22.9517 34.758 22.9682 34.8093 22.9249C34.8589 22.883 34.9504 22.8207 35.0973 22.7455C35.4003 22.5905 35.7621 22.4671 36.1286 22.3449L35.18 19.4988C34.8433 19.6111 34.2677 19.8001 33.7308 20.0748C33.2487 20.3215 32.4724 20.794 32.0961 21.6408L34.8375 22.8592ZM36.1286 22.3449C36.321 22.2808 36.676 22.1662 36.9501 22.0291L35.6085 19.3459C35.612 19.3441 35.6039 19.3483 35.5793 19.3583C35.5558 19.368 35.5244 19.3801 35.4835 19.395C35.3986 19.4259 35.3015 19.4583 35.18 19.4988L36.1286 22.3449ZM36.8504 22.0745C37.5906 21.7698 38.2892 21.3926 38.822 20.8902C39.3842 20.3601 39.8105 19.6367 39.8105 18.7344H36.8105C36.8105 18.6133 36.8853 18.593 36.764 18.7074C36.6132 18.8496 36.2962 19.0584 35.7082 19.3005L36.8504 22.0745ZM39.7955 18.5222C39.6311 17.3719 38.8252 16.4185 37.6176 15.9354L36.5035 18.7208C36.6921 18.7963 36.7725 18.8746 36.8007 18.9081C36.8285 18.9412 36.8268 18.9549 36.8256 18.9465L39.7955 18.5222ZM37.5349 15.9051C36.7582 15.6462 35.8004 15.6462 35.0237 15.9051L35.9724 18.7512C36.1332 18.6975 36.4254 18.6975 36.5862 18.7512L37.5349 15.9051ZM34.8888 15.9574C34.2903 16.2234 33.8771 16.3346 33.489 16.3901L33.9133 19.3599C34.619 19.2591 35.2996 19.0578 36.1073 18.6988L34.8888 15.9574ZM34.065 16.4198C34.0004 16.4036 33.9462 16.3891 33.9017 16.3761C33.8562 16.3629 33.8279 16.3534 33.8134 16.3481C33.7956 16.3416 33.8129 16.3467 33.8508 16.3663C33.8709 16.3767 33.9064 16.396 33.9507 16.4259C33.9933 16.4546 34.0614 16.5046 34.1368 16.58L32.0155 18.7013C32.3139 18.9996 32.6846 19.1298 32.7882 19.1675C32.9669 19.2325 33.1611 19.2861 33.3374 19.3302L34.065 16.4198ZM34.5739 17.7238C34.6491 16.3694 34.7914 14.5875 34.7812 12.8953C34.7713 11.2327 34.62 9.40085 33.9762 7.96454L31.2387 9.19171C31.6104 10.021 31.7717 11.3142 31.7813 12.9133C31.7907 14.4828 31.6595 16.0993 31.5785 17.5574L34.5739 17.7238ZM33.9781 7.96892C31.8355 3.14789 27.3497 0.75 22.6855 0.75V3.75C26.3027 3.75 29.6294 5.57086 31.2367 9.18733L33.9781 7.96892ZM22.6855 0.75C22.6854 0.75 22.6852 0.75 22.6851 0.75C22.6849 0.75 22.6848 0.75 22.6846 0.75C22.6844 0.75 22.6843 0.75 22.6841 0.75C22.684 0.75 22.6838 0.75 22.6836 0.75C22.6834 0.75 22.6833 0.75 22.6831 0.75C22.6829 0.75 22.6828 0.75 22.6826 0.75C22.6824 0.75 22.6822 0.75 22.682 0.75C22.6819 0.75 22.6817 0.75 22.6815 0.75C22.6813 0.75 22.6811 0.75 22.6809 0.75C22.6807 0.75 22.6805 0.75 22.6804 0.75C22.6802 0.75 22.68 0.75 22.6798 0.75C22.6796 0.75 22.6794 0.75 22.6792 0.75C22.679 0.75 22.6788 0.75 22.6786 0.75C22.6784 0.75 22.6781 0.75 22.6779 0.75C22.6777 0.75 22.6775 0.75 22.6773 0.75C22.6771 0.75 22.6769 0.75 22.6767 0.75C22.6764 0.75 22.6762 0.75 22.676 0.75C22.6758 0.75 22.6756 0.75 22.6753 0.75C22.6751 0.75 22.6749 0.75 22.6746 0.75C22.6744 0.75 22.6742 0.75 22.674 0.75C22.6737 0.75 22.6735 0.75 22.6733 0.75C22.673 0.75 22.6728 0.75 22.6725 0.75C22.6723 0.75 22.6721 0.75 22.6718 0.75C22.6716 0.75 22.6713 0.75 22.6711 0.75C22.6708 0.75 22.6706 0.75 22.6703 0.75C22.6701 0.75 22.6698 0.75 22.6696 0.75C22.6693 0.75 22.669 0.75 22.6688 0.75C22.6685 0.75 22.6683 0.75 22.668 0.75C22.6677 0.75 22.6675 0.75 22.6672 0.75C22.6669 0.75 22.6667 0.75 22.6664 0.75C22.6661 0.75 22.6659 0.75 22.6656 0.75C22.6653 0.75 22.665 0.75 22.6648 0.75C22.6645 0.75 22.6642 0.75 22.6639 0.75C22.6636 0.75 22.6634 0.75 22.6631 0.75C22.6628 0.75 22.6625 0.75 22.6622 0.75C22.6619 0.75 22.6616 0.75 22.6613 0.75C22.661 0.75 22.6607 0.75 22.6605 0.75C22.6602 0.75 22.6599 0.75 22.6596 0.75C22.6593 0.75 22.659 0.75 22.6587 0.75C22.6584 0.75 22.6581 0.75 22.6577 0.75C22.6574 0.75 22.6571 0.75 22.6568 0.75C22.6565 0.75 22.6562 0.75 22.6559 0.75C22.6556 0.75 22.6553 0.75 22.6549 0.75C22.6546 0.75 22.6543 0.75 22.654 0.75C22.6537 0.75 22.6533 0.75 22.653 0.75C22.6527 0.75 22.6524 0.75 22.652 0.75C22.6517 0.75 22.6514 0.75 22.6511 0.75C22.6507 0.75 22.6504 0.75 22.6501 0.75C22.6497 0.75 22.6494 0.75 22.649 0.75C22.6487 0.75 22.6484 0.75 22.648 0.75C22.6477 0.75 22.6473 0.75 22.647 0.75C22.6467 0.75 22.6463 0.75 22.646 0.75C22.6456 0.75 22.6453 0.75 22.6449 0.75C22.6446 0.75 22.6442 0.75 22.6439 0.75C22.6435 0.75 22.6432 0.75 22.6428 0.75C22.6424 0.75 22.6421 0.75 22.6417 0.75C22.6414 0.75 22.641 0.75 22.6406 0.75C22.6403 0.75 22.6399 0.75 22.6395 0.75C22.6392 0.75 22.6388 0.75 22.6384 0.75C22.6381 0.75 22.6377 0.75 22.6373 0.75C22.6369 0.75 22.6366 0.75 22.6362 0.75C22.6358 0.75 22.6354 0.75 22.635 0.75C22.6347 0.75 22.6343 0.75 22.6339 0.75C22.6335 0.75 22.6331 0.75 22.6328 0.75C22.6324 0.75 22.632 0.75 22.6316 0.75C22.6312 0.75 22.6308 0.75 22.6304 0.75C22.63 0.75 22.6296 0.75 22.6292 0.75C22.6288 0.75 22.6284 0.75 22.628 0.75C22.6276 0.75 22.6272 0.75 22.6268 0.75C22.6264 0.75 22.626 0.75 22.6256 0.75C22.6252 0.75 22.6248 0.75 22.6244 0.75C22.624 0.75 22.6236 0.75 22.6232 0.75C22.6228 0.75 22.6224 0.75 22.6219 0.75C22.6215 0.75 22.6211 0.75 22.6207 0.75C22.6203 0.75 22.6199 0.75 22.6194 0.75C22.619 0.75 22.6186 0.75 22.6182 0.75C22.6178 0.75 22.6173 0.75 22.6169 0.75C22.6165 0.75 22.6161 0.75 22.6156 0.75C22.6152 0.75 22.6148 0.75 22.6143 0.75C22.6139 0.75 22.6135 0.75 22.613 0.75C22.6126 0.75 22.6122 0.75 22.6117 0.75C22.6113 0.75 22.6109 0.75 22.6104 0.75C22.61 0.75 22.6095 0.75 22.6091 0.75C22.6087 0.75 22.6082 0.75 22.6078 0.75C22.6073 0.75 22.6069 0.75 22.6064 0.75C22.606 0.75 22.6055 0.75 22.6051 0.75C22.6046 0.75 22.6042 0.75 22.6037 0.75C22.6033 0.75 22.6028 0.75 22.6024 0.75C22.6019 0.75 22.6014 0.75 22.601 0.75C22.6005 0.75 22.6001 0.75 22.5996 0.75C22.5991 0.75 22.5987 0.75 22.5982 0.75C22.5977 0.75 22.5973 0.75 22.5968 0.75C22.5963 0.75 22.5959 0.75 22.5954 0.75C22.5949 0.75 22.5945 0.75 22.594 0.75C22.5935 0.75 22.593 0.75 22.5926 0.75C22.5921 0.75 22.5916 0.75 22.5911 0.75C22.5907 0.75 22.5902 0.75 22.5897 0.75C22.5892 0.75 22.5887 0.75 22.5882 0.75C22.5878 0.75 22.5873 0.75 22.5868 0.75C22.5863 0.75 22.5858 0.75 22.5853 0.75C22.5848 0.75 22.5844 0.75 22.5839 0.75C22.5834 0.75 22.5829 0.75 22.5824 0.75C22.5819 0.75 22.5814 0.75 22.5809 0.75C22.5804 0.75 22.5799 0.75 22.5794 0.75C22.5789 0.75 22.5784 0.75 22.5779 0.75C22.5774 0.75 22.5769 0.75 22.5764 0.75C22.5759 0.75 22.5754 0.75 22.5749 0.75C22.5744 0.75 22.5739 0.75 22.5734 0.75C22.5729 0.75 22.5724 0.75 22.5718 0.75C22.5713 0.75 22.5708 0.75 22.5703 0.75C22.5698 0.75 22.5693 0.75 22.5688 0.75C22.5683 0.75 22.5677 0.75 22.5672 0.75C22.5667 0.75 22.5662 0.75 22.5657 0.75C22.5651 0.75 22.5646 0.75 22.5641 0.75C22.5636 0.75 22.5631 0.75 22.5625 0.75C22.562 0.75 22.5615 0.75 22.561 0.75C22.5604 0.75 22.5599 0.75 22.5594 0.75C22.5588 0.75 22.5583 0.75 22.5578 0.75C22.5572 0.75 22.5567 0.75 22.5562 0.75C22.5556 0.75 22.5551 0.75 22.5546 0.75C22.554 0.75 22.5535 0.75 22.553 0.75C22.5524 0.75 22.5519 0.75 22.5513 0.75C22.5508 0.75 22.5503 0.75 22.5497 0.75C22.5492 0.75 22.5486 0.75 22.5481 0.75C22.5475 0.75 22.547 0.75 22.5465 0.75C22.5459 0.75 22.5454 0.75 22.5448 0.75C22.5443 0.75 22.5437 0.75 22.5432 0.75C22.5426 0.75 22.5421 0.75 22.5415 0.75C22.541 0.75 22.5404 0.75 22.5398 0.75C22.5393 0.75 22.5387 0.75 22.5382 0.75C22.5376 0.75 22.5371 0.75 22.5365 0.75C22.5359 0.75 22.5354 0.75 22.5348 0.75C22.5343 0.75 22.5337 0.75 22.5331 0.75C22.5326 0.75 22.532 0.75 22.5314 0.75C22.5309 0.75 22.5303 0.75 22.5297 0.75C22.5292 0.75 22.5286 0.75 22.528 0.75C22.5275 0.75 22.5269 0.75 22.5263 0.75C22.5258 0.75 22.5252 0.75 22.5246 0.75C22.524 0.75 22.5235 0.75 22.5229 0.75C22.5223 0.75 22.5217 0.75 22.5212 0.75C22.5206 0.75 22.52 0.75 22.5194 0.75C22.5188 0.75 22.5183 0.75 22.5177 0.75C22.5171 0.75 22.5165 0.75 22.5159 0.75C22.5154 0.75 22.5148 0.75 22.5142 0.75C22.5136 0.75 22.513 0.75 22.5124 0.75C22.5118 0.75 22.5113 0.75 22.5107 0.75C22.5101 0.75 22.5095 0.75 22.5089 0.75C22.5083 0.75 22.5077 0.75 22.5071 0.75C22.5065 0.75 22.5059 0.75 22.5054 0.75C22.5048 0.75 22.5042 0.75 22.5036 0.75C22.503 0.75 22.5024 0.75 22.5018 0.75C22.5012 0.75 22.5006 0.75 22.5 0.75C22.4994 0.75 22.4988 0.75 22.4982 0.75C22.4976 0.75 22.497 0.75 22.4964 0.75C22.4958 0.75 22.4952 0.75 22.4946 0.75C22.494 0.75 22.4934 0.75 22.4928 0.75C22.4922 0.75 22.4916 0.75 22.4909 0.75C22.4903 0.75 22.4897 0.75 22.4891 0.75C22.4885 0.75 22.4879 0.75 22.4873 0.75C22.4867 0.75 22.4861 0.75 22.4855 0.75C22.4849 0.75 22.4842 0.75 22.4836 0.75C22.483 0.75 22.4824 0.75 22.4818 0.75C22.4812 0.75 22.4806 0.75 22.4799 0.75C22.4793 0.75 22.4787 0.75 22.4781 0.75C22.4775 0.75 22.4769 0.75 22.4762 0.75C22.4756 0.75 22.475 0.75 22.4744 0.75C22.4738 0.75 22.4731 0.75 22.4725 0.75C22.4719 0.75 22.4713 0.75 22.4706 0.75C22.47 0.75 22.4694 0.75 22.4688 0.75C22.4681 0.75 22.4675 0.75 22.4669 0.75C22.4663 0.75 22.4656 0.75 22.465 0.75C22.4644 0.75 22.4638 0.75 22.4631 0.75C22.4625 0.75 22.4619 0.75 22.4612 0.75C22.4606 0.75 22.46 0.75 22.4593 0.75C22.4587 0.75 22.4581 0.75 22.4574 0.75C22.4568 0.75 22.4562 0.75 22.4555 0.75C22.4549 0.75 22.4543 0.75 22.4536 0.75C22.453 0.75 22.4524 0.75 22.4517 0.75C22.4511 0.75 22.4505 0.75 22.4498 0.75C22.4492 0.75 22.4485 0.75 22.4479 0.75C22.4473 0.75 22.4466 0.75 22.446 0.75C22.4453 0.75 22.4447 0.75 22.4441 0.75C22.4434 0.75 22.4428 0.75 22.4421 0.75C22.4415 0.75 22.4408 0.75 22.4402 0.75C22.4396 0.75 22.4389 0.75 22.4383 0.75C22.4376 0.75 22.437 0.75 22.4363 0.75C22.4357 0.75 22.435 0.75 22.4344 0.75C22.4337 0.75 22.4331 0.75 22.4324 0.75C22.4318 0.75 22.4311 0.75 22.4305 0.75C22.4298 0.75 22.4292 0.75 22.4285 0.75C22.4279 0.75 22.4272 0.75 22.4266 0.75C22.4259 0.75 22.4253 0.75 22.4246 0.75C22.424 0.75 22.4233 0.75 22.4227 0.75C22.422 0.75 22.4214 0.75 22.4207 0.75C22.42 0.75 22.4194 0.75 22.4187 0.75C22.4181 0.75 22.4174 0.75 22.4168 0.75C22.4161 0.75 22.4154 0.75 22.4148 0.75C22.4141 0.75 22.4135 0.75 22.4128 0.75C22.4121 0.75 22.4115 0.75 22.4108 0.75C22.4102 0.75 22.4095 0.75 22.4088 0.75C22.4082 0.75 22.4075 0.75 22.4069 0.75C22.4062 0.75 22.4055 0.75 22.4049 0.75C22.4042 0.75 22.4035 0.75 22.4029 0.75C22.4022 0.75 22.4016 0.75 22.4009 0.75C22.4002 0.75 22.3996 0.75 22.3989 0.75C22.3982 0.75 22.3976 0.75 22.3969 0.75C22.3962 0.75 22.3956 0.75 22.3949 0.75C22.3942 0.75 22.3936 0.75 22.3929 0.75C22.3922 0.75 22.3916 0.75 22.3909 0.75C22.3902 0.75 22.3896 0.75 22.3889 0.75C22.3882 0.75 22.3875 0.75 22.3869 0.75C22.3862 0.75 22.3855 0.75 22.3849 0.75C22.3842 0.75 22.3835 0.75 22.3829 0.75C22.3822 0.75 22.3815 0.75 22.3808 0.75C22.3802 0.75 22.3795 0.75 22.3788 0.75C22.3781 0.75 22.3775 0.75 22.3768 0.75C22.3761 0.75 22.3755 0.75 22.3748 0.75C22.3741 0.75 22.3734 0.75 22.3728 0.75C22.3721 0.75 22.3714 0.75 22.3707 0.75C22.3701 0.75 22.3694 0.75 22.3687 0.75C22.368 0.75 22.3673 0.75 22.3667 0.75C22.366 0.75 22.3653 0.75 22.3646 0.75C22.364 0.75 22.3633 0.75 22.3626 0.75C22.3619 0.75 22.3613 0.75 22.3606 0.75C22.3599 0.75 22.3592 0.75 22.3585 0.75C22.3579 0.75 22.3572 0.75 22.3565 0.75C22.3558 0.75 22.3551 0.75 22.3545 0.75C22.3538 0.75 22.3531 0.75 22.3524 0.75C22.3517 0.75 22.3511 0.75 22.3504 0.75C22.3497 0.75 22.349 0.75 22.3483 0.75C22.3477 0.75 22.347 0.75 22.3463 0.75C22.3456 0.75 22.3449 0.75 22.3442 0.75C22.3436 0.75 22.3429 0.75 22.3422 0.75C22.3415 0.75 22.3408 0.75 22.3402 0.75C22.3395 0.75 22.3388 0.75 22.3381 0.75C22.3374 0.75 22.3367 0.75 22.3361 0.75C22.3354 0.75 22.3347 0.75 22.334 0.75C22.3333 0.75 22.3326 0.75 22.332 0.75C22.3313 0.75 22.3306 0.75 22.3299 0.75C22.3292 0.75 22.3285 0.75 22.3278 0.75C22.3272 0.75 22.3265 0.75 22.3258 0.75C22.3251 0.75 22.3244 0.75 22.3237 0.75C22.3231 0.75 22.3224 0.75 22.3217 0.75C22.321 0.75 22.3203 0.75 22.3196 0.75C22.3189 0.75 22.3183 0.75 22.3176 0.75C22.3169 0.75 22.3162 0.75 22.3155 0.75C22.3148 0.75 22.3141 0.75 22.3135 0.75C22.3128 0.75 22.3121 0.75 22.3114 0.75C22.3107 0.75 22.31 0.75 22.3093 0.75C22.3087 0.75 22.308 0.75 22.3073 0.75C22.3066 0.75 22.3059 0.75 22.3052 0.75C22.3045 0.75 22.3038 0.75 22.3032 0.75C22.3025 0.75 22.3018 0.75 22.3011 0.75C22.3004 0.75 22.2997 0.75 22.299 0.75C22.2984 0.75 22.2977 0.75 22.297 0.75C22.2963 0.75 22.2956 0.75 22.2949 0.75C22.2942 0.75 22.2935 0.75 22.2929 0.75C22.2922 0.75 22.2915 0.75 22.2908 0.75C22.2901 0.75 22.2894 0.75 22.2887 0.75C22.2881 0.75 22.2874 0.75 22.2867 0.75C22.286 0.75 22.2853 0.75 22.2846 0.75C22.2839 0.75 22.2833 0.75 22.2826 0.75C22.2819 0.75 22.2812 0.75 22.2805 0.75C22.2798 0.75 22.2791 0.75 22.2784 0.75C22.2778 0.75 22.2771 0.75 22.2764 0.75C22.2757 0.75 22.275 0.75 22.2743 0.75C22.2736 0.75 22.273 0.75 22.2723 0.75C22.2716 0.75 22.2709 0.75 22.2702 0.75C22.2695 0.75 22.2688 0.75 22.2682 0.75C22.2675 0.75 22.2668 0.75 22.2661 0.75C22.2654 0.75 22.2647 0.75 22.264 0.75C22.2634 0.75 22.2627 0.75 22.262 0.75C22.2613 0.75 22.2606 0.75 22.2599 0.75C22.2593 0.75 22.2586 0.75 22.2579 0.75C22.2572 0.75 22.2565 0.75 22.2558 0.75C22.2552 0.75 22.2545 0.75 22.2538 0.75C22.2531 0.75 22.2524 0.75 22.2517 0.75C22.2511 0.75 22.2504 0.75 22.2497 0.75C22.249 0.75 22.2483 0.75 22.2476 0.75C22.247 0.75 22.2463 0.75 22.2456 0.75C22.2449 0.75 22.2442 0.75 22.2436 0.75C22.2429 0.75 22.2422 0.75 22.2415 0.75C22.2408 0.75 22.2401 0.75 22.2395 0.75C22.2388 0.75 22.2381 0.75 22.2374 0.75C22.2367 0.75 22.2361 0.75 22.2354 0.75C22.2347 0.75 22.234 0.75 22.2333 0.75C22.2327 0.75 22.232 0.75 22.2313 0.75C22.2306 0.75 22.2299 0.75 22.2293 0.75C22.2286 0.75 22.2279 0.75 22.2272 0.75C22.2266 0.75 22.2259 0.75 22.2252 0.75C22.2245 0.75 22.2239 0.75 22.2232 0.75C22.2225 0.75 22.2218 0.75 22.2211 0.75C22.2205 0.75 22.2198 0.75 22.2191 0.75C22.2184 0.75 22.2178 0.75 22.2171 0.75C22.2164 0.75 22.2157 0.75 22.2151 0.75C22.2144 0.75 22.2137 0.75 22.213 0.75C22.2124 0.75 22.2117 0.75 22.211 0.75C22.2104 0.75 22.2097 0.75 22.209 0.75C22.2083 0.75 22.2077 0.75 22.207 0.75C22.2063 0.75 22.2057 0.75 22.205 0.75C22.2043 0.75 22.2036 0.75 22.203 0.75C22.2023 0.75 22.2016 0.75 22.201 0.75C22.2003 0.75 22.1996 0.75 22.199 0.75C22.1983 0.75 22.1976 0.75 22.1969 0.75C22.1963 0.75 22.1956 0.75 22.1949 0.75C22.1943 0.75 22.1936 0.75 22.1929 0.75C22.1923 0.75 22.1916 0.75 22.1909 0.75C22.1903 0.75 22.1896 0.75 22.189 0.75C22.1883 0.75 22.1876 0.75 22.187 0.75C22.1863 0.75 22.1856 0.75 22.185 0.75C22.1843 0.75 22.1836 0.75 22.183 0.75C22.1823 0.75 22.1817 0.75 22.181 0.75C22.1803 0.75 22.1797 0.75 22.179 0.75C22.1784 0.75 22.1777 0.75 22.177 0.75C22.1764 0.75 22.1757 0.75 22.1751 0.75C22.1744 0.75 22.1737 0.75 22.1731 0.75C22.1724 0.75 22.1718 0.75 22.1711 0.75C22.1705 0.75 22.1698 0.75 22.1691 0.75C22.1685 0.75 22.1678 0.75 22.1672 0.75C22.1665 0.75 22.1659 0.75 22.1652 0.75C22.1646 0.75 22.1639 0.75 22.1633 0.75C22.1626 0.75 22.162 0.75 22.1613 0.75C22.1607 0.75 22.16 0.75 22.1594 0.75C22.1587 0.75 22.1581 0.75 22.1574 0.75C22.1568 0.75 22.1561 0.75 22.1555 0.75C22.1548 0.75 22.1542 0.75 22.1535 0.75C22.1529 0.75 22.1522 0.75 22.1516 0.75C22.1509 0.75 22.1503 0.75 22.1496 0.75C22.149 0.75 22.1484 0.75 22.1477 0.75C22.1471 0.75 22.1464 0.75 22.1458 0.75C22.1451 0.75 22.1445 0.75 22.1439 0.75C22.1432 0.75 22.1426 0.75 22.1419 0.75C22.1413 0.75 22.1407 0.75 22.14 0.75C22.1394 0.75 22.1388 0.75 22.1381 0.75C22.1375 0.75 22.1368 0.75 22.1362 0.75C22.1356 0.75 22.1349 0.75 22.1343 0.75C22.1337 0.75 22.133 0.75 22.1324 0.75C22.1318 0.75 22.1311 0.75 22.1305 0.75C22.1299 0.75 22.1292 0.75 22.1286 0.75C22.128 0.75 22.1273 0.75 22.1267 0.75C22.1261 0.75 22.1255 0.75 22.1248 0.75C22.1242 0.75 22.1236 0.75 22.123 0.75C22.1223 0.75 22.1217 0.75 22.1211 0.75C22.1204 0.75 22.1198 0.75 22.1192 0.75C22.1186 0.75 22.118 0.75 22.1173 0.75C22.1167 0.75 22.1161 0.75 22.1155 0.75C22.1148 0.75 22.1142 0.75 22.1136 0.75C22.113 0.75 22.1124 0.75 22.1118 0.75C22.1111 0.75 22.1105 0.75 22.1099 0.75C22.1093 0.75 22.1087 0.75 22.1081 0.75C22.1074 0.75 22.1068 0.75 22.1062 0.75C22.1056 0.75 22.105 0.75 22.1044 0.75C22.1038 0.75 22.1032 0.75 22.1025 0.75C22.1019 0.75 22.1013 0.75 22.1007 0.75C22.1001 0.75 22.0995 0.75 22.0989 0.75C22.0983 0.75 22.0977 0.75 22.0971 0.75C22.0965 0.75 22.0959 0.75 22.0953 0.75C22.0947 0.75 22.0941 0.75 22.0935 0.75C22.0929 0.75 22.0923 0.75 22.0917 0.75C22.0911 0.75 22.0905 0.75 22.0899 0.75C22.0893 0.75 22.0887 0.75 22.0881 0.75C22.0875 0.75 22.0869 0.75 22.0863 0.75C22.0857 0.75 22.0851 0.75 22.0845 0.75C22.0839 0.75 22.0833 0.75 22.0827 0.75C22.0821 0.75 22.0815 0.75 22.0809 0.75C22.0804 0.75 22.0798 0.75 22.0792 0.75C22.0786 0.75 22.078 0.75 22.0774 0.75C22.0768 0.75 22.0762 0.75 22.0757 0.75C22.0751 0.75 22.0745 0.75 22.0739 0.75C22.0733 0.75 22.0727 0.75 22.0722 0.75C22.0716 0.75 22.071 0.75 22.0704 0.75C22.0698 0.75 22.0693 0.75 22.0687 0.75C22.0681 0.75 22.0675 0.75 22.067 0.75C22.0664 0.75 22.0658 0.75 22.0652 0.75C22.0647 0.75 22.0641 0.75 22.0635 0.75C22.063 0.75 22.0624 0.75 22.0618 0.75C22.0612 0.75 22.0607 0.75 22.0601 0.75C22.0595 0.75 22.059 0.75 22.0584 0.75C22.0578 0.75 22.0573 0.75 22.0567 0.75C22.0562 0.75 22.0556 0.75 22.055 0.75C22.0545 0.75 22.0539 0.75 22.0533 0.75C22.0528 0.75 22.0522 0.75 22.0517 0.75C22.0511 0.75 22.0506 0.75 22.05 0.75C22.0494 0.75 22.0489 0.75 22.0483 0.75C22.0478 0.75 22.0472 0.75 22.0467 0.75C22.0461 0.75 22.0456 0.75 22.045 0.75C22.0445 0.75 22.0439 0.75 22.0434 0.75C22.0428 0.75 22.0423 0.75 22.0418 0.75C22.0412 0.75 22.0407 0.75 22.0401 0.75C22.0396 0.75 22.039 0.75 22.0385 0.75C22.038 0.75 22.0374 0.75 22.0369 0.75C22.0363 0.75 22.0358 0.75 22.0353 0.75C22.0347 0.75 22.0342 0.75 22.0337 0.75C22.0331 0.75 22.0326 0.75 22.0321 0.75C22.0315 0.75 22.031 0.75 22.0305 0.75C22.0299 0.75 22.0294 0.75 22.0289 0.75C22.0284 0.75 22.0278 0.75 22.0273 0.75C22.0268 0.75 22.0263 0.75 22.0257 0.75C22.0252 0.75 22.0247 0.75 22.0242 0.75C22.0237 0.75 22.0231 0.75 22.0226 0.75C22.0221 0.75 22.0216 0.75 22.0211 0.75C22.0206 0.75 22.02 0.75 22.0195 0.75C22.019 0.75 22.0185 0.75 22.018 0.75C22.0175 0.75 22.017 0.75 22.0165 0.75C22.016 0.75 22.0155 0.75 22.0149 0.75C22.0144 0.75 22.0139 0.75 22.0134 0.75C22.0129 0.75 22.0124 0.75 22.0119 0.75C22.0114 0.75 22.0109 0.75 22.0104 0.75C22.0099 0.75 22.0094 0.75 22.0089 0.75C22.0084 0.75 22.0079 0.75 22.0075 0.75C22.007 0.75 22.0065 0.75 22.006 0.75C22.0055 0.75 22.005 0.75 22.0045 0.75C22.004 0.75 22.0035 0.75 22.003 0.75C22.0026 0.75 22.0021 0.75 22.0016 0.75C22.0011 0.75 22.0006 0.75 22.0001 0.75C21.9997 0.75 21.9992 0.75 21.9987 0.75C21.9982 0.75 21.9978 0.75 21.9973 0.75C21.9968 0.75 21.9963 0.75 21.9959 0.75C21.9954 0.75 21.9949 0.75 21.9944 0.75C21.994 0.75 21.9935 0.75 21.993 0.75C21.9926 0.75 21.9921 0.75 21.9916 0.75C21.9912 0.75 21.9907 0.75 21.9902 0.75C21.9898 0.75 21.9893 0.75 21.9889 0.75C21.9884 0.75 21.9879 0.75 21.9875 0.75C21.987 0.75 21.9866 0.75 21.9861 0.75C21.9857 0.75 21.9852 0.75 21.9848 0.75C21.9843 0.75 21.9839 0.75 21.9834 0.75C21.983 0.75 21.9825 0.75 21.9821 0.75C21.9816 0.75 21.9812 0.75 21.9807 0.75C21.9803 0.75 21.9799 0.75 21.9794 0.75C21.979 0.75 21.9785 0.75 21.9781 0.75C21.9777 0.75 21.9772 0.75 21.9768 0.75C21.9764 0.75 21.9759 0.75 21.9755 0.75C21.9751 0.75 21.9746 0.75 21.9742 0.75C21.9738 0.75 21.9734 0.75 21.9729 0.75C21.9725 0.75 21.9721 0.75 21.9717 0.75C21.9712 0.75 21.9708 0.75 21.9704 0.75C21.97 0.75 21.9696 0.75 21.9691 0.75C21.9687 0.75 21.9683 0.75 21.9679 0.75C21.9675 0.75 21.9671 0.75 21.9667 0.75C21.9662 0.75 21.9658 0.75 21.9654 0.75C21.965 0.75 21.9646 0.75 21.9642 0.75C21.9638 0.75 21.9634 0.75 21.963 0.75C21.9626 0.75 21.9622 0.75 21.9618 0.75C21.9614 0.75 21.961 0.75 21.9606 0.75C21.9602 0.75 21.9598 0.75 21.9594 0.75C21.959 0.75 21.9586 0.75 21.9583 0.75C21.9579 0.75 21.9575 0.75 21.9571 0.75C21.9567 0.75 21.9563 0.75 21.9559 0.75C21.9556 0.75 21.9552 0.75 21.9548 0.75C21.9544 0.75 21.954 0.75 21.9537 0.75C21.9533 0.75 21.9529 0.75 21.9525 0.75C21.9522 0.75 21.9518 0.75 21.9514 0.75C21.951 0.75 21.9507 0.75 21.9503 0.75C21.9499 0.75 21.9496 0.75 21.9492 0.75C21.9489 0.75 21.9485 0.75 21.9481 0.75C21.9478 0.75 21.9474 0.75 21.9471 0.75C21.9467 0.75 21.9463 0.75 21.946 0.75C21.9456 0.75 21.9453 0.75 21.9449 0.75C21.9446 0.75 21.9442 0.75 21.9439 0.75C21.9435 0.75 21.9432 0.75 21.9428 0.75C21.9425 0.75 21.9422 0.75 21.9418 0.75C21.9415 0.75 21.9411 0.75 21.9408 0.75C21.9405 0.75 21.9401 0.75 21.9398 0.75C21.9395 0.75 21.9391 0.75 21.9388 0.75C21.9385 0.75 21.9381 0.75 21.9378 0.75C21.9375 0.75 21.9372 0.75 21.9368 0.75C21.9365 0.75 21.9362 0.75 21.9359 0.75C21.9355 0.75 21.9352 0.75 21.9349 0.75C21.9346 0.75 21.9343 0.75 21.934 0.75C21.9336 0.75 21.9333 0.75 21.933 0.75C21.9327 0.75 21.9324 0.75 21.9321 0.75C21.9318 0.75 21.9315 0.75 21.9312 0.75C21.9309 0.75 21.9306 0.75 21.9303 0.75C21.93 0.75 21.9297 0.75 21.9294 0.75C21.9291 0.75 21.9288 0.75 21.9285 0.75C21.9282 0.75 21.9279 0.75 21.9276 0.75C21.9273 0.75 21.9271 0.75 21.9268 0.75C21.9265 0.75 21.9262 0.75 21.9259 0.75C21.9256 0.75 21.9254 0.75 21.9251 0.75C21.9248 0.75 21.9245 0.75 21.9243 0.75C21.924 0.75 21.9237 0.75 21.9234 0.75C21.9232 0.75 21.9229 0.75 21.9226 0.75C21.9224 0.75 21.9221 0.75 21.9218 0.75C21.9216 0.75 21.9213 0.75 21.9211 0.75C21.9208 0.75 21.9205 0.75 21.9203 0.75C21.92 0.75 21.9198 0.75 21.9195 0.75C21.9193 0.75 21.919 0.75 21.9188 0.75C21.9185 0.75 21.9183 0.75 21.918 0.75C21.9178 0.75 21.9176 0.75 21.9173 0.75C21.9171 0.75 21.9168 0.75 21.9166 0.75C21.9164 0.75 21.9161 0.75 21.9159 0.75C21.9157 0.75 21.9154 0.75 21.9152 0.75C21.915 0.75 21.9147 0.75 21.9145 0.75C21.9143 0.75 21.9141 0.75 21.9138 0.75C21.9136 0.75 21.9134 0.75 21.9132 0.75C21.913 0.75 21.9128 0.75 21.9125 0.75C21.9123 0.75 21.9121 0.75 21.9119 0.75C21.9117 0.75 21.9115 0.75 21.9113 0.75C21.9111 0.75 21.9109 0.75 21.9107 0.75C21.9105 0.75 21.9103 0.75 21.9101 0.75C21.9099 0.75 21.9097 0.75 21.9095 0.75C21.9093 0.75 21.9091 0.75 21.9089 0.75C21.9087 0.75 21.9085 0.75 21.9084 0.75C21.9082 0.75 21.908 0.75 21.9078 0.75C21.9076 0.75 21.9074 0.75 21.9073 0.75C21.9071 0.75 21.9069 0.75 21.9067 0.75C21.9066 0.75 21.9064 0.75 21.9062 0.75C21.9061 0.75 21.9059 0.75 21.9057 0.75C21.9056 0.75 21.9054 0.75 21.9052 0.75C21.9051 0.75 21.9049 0.75 21.9048 0.75C21.9046 0.75 21.9044 0.75 21.9043 0.75V3.75C21.9044 3.75 21.9046 3.75 21.9048 3.75C21.9049 3.75 21.9051 3.75 21.9052 3.75C21.9054 3.75 21.9056 3.75 21.9057 3.75C21.9059 3.75 21.9061 3.75 21.9062 3.75C21.9064 3.75 21.9066 3.75 21.9067 3.75C21.9069 3.75 21.9071 3.75 21.9073 3.75C21.9074 3.75 21.9076 3.75 21.9078 3.75C21.908 3.75 21.9082 3.75 21.9084 3.75C21.9085 3.75 21.9087 3.75 21.9089 3.75C21.9091 3.75 21.9093 3.75 21.9095 3.75C21.9097 3.75 21.9099 3.75 21.9101 3.75C21.9103 3.75 21.9105 3.75 21.9107 3.75C21.9109 3.75 21.9111 3.75 21.9113 3.75C21.9115 3.75 21.9117 3.75 21.9119 3.75C21.9121 3.75 21.9123 3.75 21.9125 3.75C21.9128 3.75 21.913 3.75 21.9132 3.75C21.9134 3.75 21.9136 3.75 21.9138 3.75C21.9141 3.75 21.9143 3.75 21.9145 3.75C21.9147 3.75 21.915 3.75 21.9152 3.75C21.9154 3.75 21.9157 3.75 21.9159 3.75C21.9161 3.75 21.9164 3.75 21.9166 3.75C21.9168 3.75 21.9171 3.75 21.9173 3.75C21.9176 3.75 21.9178 3.75 21.918 3.75C21.9183 3.75 21.9185 3.75 21.9188 3.75C21.919 3.75 21.9193 3.75 21.9195 3.75C21.9198 3.75 21.92 3.75 21.9203 3.75C21.9205 3.75 21.9208 3.75 21.9211 3.75C21.9213 3.75 21.9216 3.75 21.9218 3.75C21.9221 3.75 21.9224 3.75 21.9226 3.75C21.9229 3.75 21.9232 3.75 21.9234 3.75C21.9237 3.75 21.924 3.75 21.9243 3.75C21.9245 3.75 21.9248 3.75 21.9251 3.75C21.9254 3.75 21.9256 3.75 21.9259 3.75C21.9262 3.75 21.9265 3.75 21.9268 3.75C21.9271 3.75 21.9273 3.75 21.9276 3.75C21.9279 3.75 21.9282 3.75 21.9285 3.75C21.9288 3.75 21.9291 3.75 21.9294 3.75C21.9297 3.75 21.93 3.75 21.9303 3.75C21.9306 3.75 21.9309 3.75 21.9312 3.75C21.9315 3.75 21.9318 3.75 21.9321 3.75C21.9324 3.75 21.9327 3.75 21.933 3.75C21.9333 3.75 21.9336 3.75 21.934 3.75C21.9343 3.75 21.9346 3.75 21.9349 3.75C21.9352 3.75 21.9355 3.75 21.9359 3.75C21.9362 3.75 21.9365 3.75 21.9368 3.75C21.9372 3.75 21.9375 3.75 21.9378 3.75C21.9381 3.75 21.9385 3.75 21.9388 3.75C21.9391 3.75 21.9395 3.75 21.9398 3.75C21.9401 3.75 21.9405 3.75 21.9408 3.75C21.9411 3.75 21.9415 3.75 21.9418 3.75C21.9422 3.75 21.9425 3.75 21.9428 3.75C21.9432 3.75 21.9435 3.75 21.9439 3.75C21.9442 3.75 21.9446 3.75 21.9449 3.75C21.9453 3.75 21.9456 3.75 21.946 3.75C21.9463 3.75 21.9467 3.75 21.9471 3.75C21.9474 3.75 21.9478 3.75 21.9481 3.75C21.9485 3.75 21.9489 3.75 21.9492 3.75C21.9496 3.75 21.9499 3.75 21.9503 3.75C21.9507 3.75 21.951 3.75 21.9514 3.75C21.9518 3.75 21.9522 3.75 21.9525 3.75C21.9529 3.75 21.9533 3.75 21.9537 3.75C21.954 3.75 21.9544 3.75 21.9548 3.75C21.9552 3.75 21.9556 3.75 21.9559 3.75C21.9563 3.75 21.9567 3.75 21.9571 3.75C21.9575 3.75 21.9579 3.75 21.9583 3.75C21.9586 3.75 21.959 3.75 21.9594 3.75C21.9598 3.75 21.9602 3.75 21.9606 3.75C21.961 3.75 21.9614 3.75 21.9618 3.75C21.9622 3.75 21.9626 3.75 21.963 3.75C21.9634 3.75 21.9638 3.75 21.9642 3.75C21.9646 3.75 21.965 3.75 21.9654 3.75C21.9658 3.75 21.9662 3.75 21.9667 3.75C21.9671 3.75 21.9675 3.75 21.9679 3.75C21.9683 3.75 21.9687 3.75 21.9691 3.75C21.9696 3.75 21.97 3.75 21.9704 3.75C21.9708 3.75 21.9712 3.75 21.9717 3.75C21.9721 3.75 21.9725 3.75 21.9729 3.75C21.9734 3.75 21.9738 3.75 21.9742 3.75C21.9746 3.75 21.9751 3.75 21.9755 3.75C21.9759 3.75 21.9764 3.75 21.9768 3.75C21.9772 3.75 21.9777 3.75 21.9781 3.75C21.9785 3.75 21.979 3.75 21.9794 3.75C21.9799 3.75 21.9803 3.75 21.9807 3.75C21.9812 3.75 21.9816 3.75 21.9821 3.75C21.9825 3.75 21.983 3.75 21.9834 3.75C21.9839 3.75 21.9843 3.75 21.9848 3.75C21.9852 3.75 21.9857 3.75 21.9861 3.75C21.9866 3.75 21.987 3.75 21.9875 3.75C21.9879 3.75 21.9884 3.75 21.9889 3.75C21.9893 3.75 21.9898 3.75 21.9902 3.75C21.9907 3.75 21.9912 3.75 21.9916 3.75C21.9921 3.75 21.9926 3.75 21.993 3.75C21.9935 3.75 21.994 3.75 21.9944 3.75C21.9949 3.75 21.9954 3.75 21.9959 3.75C21.9963 3.75 21.9968 3.75 21.9973 3.75C21.9978 3.75 21.9982 3.75 21.9987 3.75C21.9992 3.75 21.9997 3.75 22.0001 3.75C22.0006 3.75 22.0011 3.75 22.0016 3.75C22.0021 3.75 22.0026 3.75 22.003 3.75C22.0035 3.75 22.004 3.75 22.0045 3.75C22.005 3.75 22.0055 3.75 22.006 3.75C22.0065 3.75 22.007 3.75 22.0075 3.75C22.0079 3.75 22.0084 3.75 22.0089 3.75C22.0094 3.75 22.0099 3.75 22.0104 3.75C22.0109 3.75 22.0114 3.75 22.0119 3.75C22.0124 3.75 22.0129 3.75 22.0134 3.75C22.0139 3.75 22.0144 3.75 22.0149 3.75C22.0155 3.75 22.016 3.75 22.0165 3.75C22.017 3.75 22.0175 3.75 22.018 3.75C22.0185 3.75 22.019 3.75 22.0195 3.75C22.02 3.75 22.0206 3.75 22.0211 3.75C22.0216 3.75 22.0221 3.75 22.0226 3.75C22.0231 3.75 22.0237 3.75 22.0242 3.75C22.0247 3.75 22.0252 3.75 22.0257 3.75C22.0263 3.75 22.0268 3.75 22.0273 3.75C22.0278 3.75 22.0284 3.75 22.0289 3.75C22.0294 3.75 22.0299 3.75 22.0305 3.75C22.031 3.75 22.0315 3.75 22.0321 3.75C22.0326 3.75 22.0331 3.75 22.0337 3.75C22.0342 3.75 22.0347 3.75 22.0353 3.75C22.0358 3.75 22.0363 3.75 22.0369 3.75C22.0374 3.75 22.038 3.75 22.0385 3.75C22.039 3.75 22.0396 3.75 22.0401 3.75C22.0407 3.75 22.0412 3.75 22.0418 3.75C22.0423 3.75 22.0428 3.75 22.0434 3.75C22.0439 3.75 22.0445 3.75 22.045 3.75C22.0456 3.75 22.0461 3.75 22.0467 3.75C22.0472 3.75 22.0478 3.75 22.0483 3.75C22.0489 3.75 22.0494 3.75 22.05 3.75C22.0506 3.75 22.0511 3.75 22.0517 3.75C22.0522 3.75 22.0528 3.75 22.0533 3.75C22.0539 3.75 22.0545 3.75 22.055 3.75C22.0556 3.75 22.0562 3.75 22.0567 3.75C22.0573 3.75 22.0578 3.75 22.0584 3.75C22.059 3.75 22.0595 3.75 22.0601 3.75C22.0607 3.75 22.0612 3.75 22.0618 3.75C22.0624 3.75 22.063 3.75 22.0635 3.75C22.0641 3.75 22.0647 3.75 22.0652 3.75C22.0658 3.75 22.0664 3.75 22.067 3.75C22.0675 3.75 22.0681 3.75 22.0687 3.75C22.0693 3.75 22.0698 3.75 22.0704 3.75C22.071 3.75 22.0716 3.75 22.0722 3.75C22.0727 3.75 22.0733 3.75 22.0739 3.75C22.0745 3.75 22.0751 3.75 22.0757 3.75C22.0762 3.75 22.0768 3.75 22.0774 3.75C22.078 3.75 22.0786 3.75 22.0792 3.75C22.0798 3.75 22.0804 3.75 22.0809 3.75C22.0815 3.75 22.0821 3.75 22.0827 3.75C22.0833 3.75 22.0839 3.75 22.0845 3.75C22.0851 3.75 22.0857 3.75 22.0863 3.75C22.0869 3.75 22.0875 3.75 22.0881 3.75C22.0887 3.75 22.0893 3.75 22.0899 3.75C22.0905 3.75 22.0911 3.75 22.0917 3.75C22.0923 3.75 22.0929 3.75 22.0935 3.75C22.0941 3.75 22.0947 3.75 22.0953 3.75C22.0959 3.75 22.0965 3.75 22.0971 3.75C22.0977 3.75 22.0983 3.75 22.0989 3.75C22.0995 3.75 22.1001 3.75 22.1007 3.75C22.1013 3.75 22.1019 3.75 22.1025 3.75C22.1032 3.75 22.1038 3.75 22.1044 3.75C22.105 3.75 22.1056 3.75 22.1062 3.75C22.1068 3.75 22.1074 3.75 22.1081 3.75C22.1087 3.75 22.1093 3.75 22.1099 3.75C22.1105 3.75 22.1111 3.75 22.1118 3.75C22.1124 3.75 22.113 3.75 22.1136 3.75C22.1142 3.75 22.1148 3.75 22.1155 3.75C22.1161 3.75 22.1167 3.75 22.1173 3.75C22.118 3.75 22.1186 3.75 22.1192 3.75C22.1198 3.75 22.1204 3.75 22.1211 3.75C22.1217 3.75 22.1223 3.75 22.123 3.75C22.1236 3.75 22.1242 3.75 22.1248 3.75C22.1255 3.75 22.1261 3.75 22.1267 3.75C22.1273 3.75 22.128 3.75 22.1286 3.75C22.1292 3.75 22.1299 3.75 22.1305 3.75C22.1311 3.75 22.1318 3.75 22.1324 3.75C22.133 3.75 22.1337 3.75 22.1343 3.75C22.1349 3.75 22.1356 3.75 22.1362 3.75C22.1368 3.75 22.1375 3.75 22.1381 3.75C22.1388 3.75 22.1394 3.75 22.14 3.75C22.1407 3.75 22.1413 3.75 22.1419 3.75C22.1426 3.75 22.1432 3.75 22.1439 3.75C22.1445 3.75 22.1451 3.75 22.1458 3.75C22.1464 3.75 22.1471 3.75 22.1477 3.75C22.1484 3.75 22.149 3.75 22.1496 3.75C22.1503 3.75 22.1509 3.75 22.1516 3.75C22.1522 3.75 22.1529 3.75 22.1535 3.75C22.1542 3.75 22.1548 3.75 22.1555 3.75C22.1561 3.75 22.1568 3.75 22.1574 3.75C22.1581 3.75 22.1587 3.75 22.1594 3.75C22.16 3.75 22.1607 3.75 22.1613 3.75C22.162 3.75 22.1626 3.75 22.1633 3.75C22.1639 3.75 22.1646 3.75 22.1652 3.75C22.1659 3.75 22.1665 3.75 22.1672 3.75C22.1678 3.75 22.1685 3.75 22.1691 3.75C22.1698 3.75 22.1705 3.75 22.1711 3.75C22.1718 3.75 22.1724 3.75 22.1731 3.75C22.1737 3.75 22.1744 3.75 22.1751 3.75C22.1757 3.75 22.1764 3.75 22.177 3.75C22.1777 3.75 22.1784 3.75 22.179 3.75C22.1797 3.75 22.1803 3.75 22.181 3.75C22.1817 3.75 22.1823 3.75 22.183 3.75C22.1836 3.75 22.1843 3.75 22.185 3.75C22.1856 3.75 22.1863 3.75 22.187 3.75C22.1876 3.75 22.1883 3.75 22.189 3.75C22.1896 3.75 22.1903 3.75 22.1909 3.75C22.1916 3.75 22.1923 3.75 22.1929 3.75C22.1936 3.75 22.1943 3.75 22.1949 3.75C22.1956 3.75 22.1963 3.75 22.1969 3.75C22.1976 3.75 22.1983 3.75 22.199 3.75C22.1996 3.75 22.2003 3.75 22.201 3.75C22.2016 3.75 22.2023 3.75 22.203 3.75C22.2036 3.75 22.2043 3.75 22.205 3.75C22.2057 3.75 22.2063 3.75 22.207 3.75C22.2077 3.75 22.2083 3.75 22.209 3.75C22.2097 3.75 22.2104 3.75 22.211 3.75C22.2117 3.75 22.2124 3.75 22.213 3.75C22.2137 3.75 22.2144 3.75 22.2151 3.75C22.2157 3.75 22.2164 3.75 22.2171 3.75C22.2178 3.75 22.2184 3.75 22.2191 3.75C22.2198 3.75 22.2205 3.75 22.2211 3.75C22.2218 3.75 22.2225 3.75 22.2232 3.75C22.2239 3.75 22.2245 3.75 22.2252 3.75C22.2259 3.75 22.2266 3.75 22.2272 3.75C22.2279 3.75 22.2286 3.75 22.2293 3.75C22.2299 3.75 22.2306 3.75 22.2313 3.75C22.232 3.75 22.2327 3.75 22.2333 3.75C22.234 3.75 22.2347 3.75 22.2354 3.75C22.2361 3.75 22.2367 3.75 22.2374 3.75C22.2381 3.75 22.2388 3.75 22.2395 3.75C22.2401 3.75 22.2408 3.75 22.2415 3.75C22.2422 3.75 22.2429 3.75 22.2436 3.75C22.2442 3.75 22.2449 3.75 22.2456 3.75C22.2463 3.75 22.247 3.75 22.2476 3.75C22.2483 3.75 22.249 3.75 22.2497 3.75C22.2504 3.75 22.2511 3.75 22.2517 3.75C22.2524 3.75 22.2531 3.75 22.2538 3.75C22.2545 3.75 22.2552 3.75 22.2558 3.75C22.2565 3.75 22.2572 3.75 22.2579 3.75C22.2586 3.75 22.2593 3.75 22.2599 3.75C22.2606 3.75 22.2613 3.75 22.262 3.75C22.2627 3.75 22.2634 3.75 22.264 3.75C22.2647 3.75 22.2654 3.75 22.2661 3.75C22.2668 3.75 22.2675 3.75 22.2682 3.75C22.2688 3.75 22.2695 3.75 22.2702 3.75C22.2709 3.75 22.2716 3.75 22.2723 3.75C22.273 3.75 22.2736 3.75 22.2743 3.75C22.275 3.75 22.2757 3.75 22.2764 3.75C22.2771 3.75 22.2778 3.75 22.2784 3.75C22.2791 3.75 22.2798 3.75 22.2805 3.75C22.2812 3.75 22.2819 3.75 22.2826 3.75C22.2833 3.75 22.2839 3.75 22.2846 3.75C22.2853 3.75 22.286 3.75 22.2867 3.75C22.2874 3.75 22.2881 3.75 22.2887 3.75C22.2894 3.75 22.2901 3.75 22.2908 3.75C22.2915 3.75 22.2922 3.75 22.2929 3.75C22.2935 3.75 22.2942 3.75 22.2949 3.75C22.2956 3.75 22.2963 3.75 22.297 3.75C22.2977 3.75 22.2984 3.75 22.299 3.75C22.2997 3.75 22.3004 3.75 22.3011 3.75C22.3018 3.75 22.3025 3.75 22.3032 3.75C22.3038 3.75 22.3045 3.75 22.3052 3.75C22.3059 3.75 22.3066 3.75 22.3073 3.75C22.308 3.75 22.3087 3.75 22.3093 3.75C22.31 3.75 22.3107 3.75 22.3114 3.75C22.3121 3.75 22.3128 3.75 22.3135 3.75C22.3141 3.75 22.3148 3.75 22.3155 3.75C22.3162 3.75 22.3169 3.75 22.3176 3.75C22.3183 3.75 22.3189 3.75 22.3196 3.75C22.3203 3.75 22.321 3.75 22.3217 3.75C22.3224 3.75 22.3231 3.75 22.3237 3.75C22.3244 3.75 22.3251 3.75 22.3258 3.75C22.3265 3.75 22.3272 3.75 22.3278 3.75C22.3285 3.75 22.3292 3.75 22.3299 3.75C22.3306 3.75 22.3313 3.75 22.332 3.75C22.3326 3.75 22.3333 3.75 22.334 3.75C22.3347 3.75 22.3354 3.75 22.3361 3.75C22.3367 3.75 22.3374 3.75 22.3381 3.75C22.3388 3.75 22.3395 3.75 22.3402 3.75C22.3408 3.75 22.3415 3.75 22.3422 3.75C22.3429 3.75 22.3436 3.75 22.3442 3.75C22.3449 3.75 22.3456 3.75 22.3463 3.75C22.347 3.75 22.3477 3.75 22.3483 3.75C22.349 3.75 22.3497 3.75 22.3504 3.75C22.3511 3.75 22.3517 3.75 22.3524 3.75C22.3531 3.75 22.3538 3.75 22.3545 3.75C22.3551 3.75 22.3558 3.75 22.3565 3.75C22.3572 3.75 22.3579 3.75 22.3585 3.75C22.3592 3.75 22.3599 3.75 22.3606 3.75C22.3613 3.75 22.3619 3.75 22.3626 3.75C22.3633 3.75 22.364 3.75 22.3646 3.75C22.3653 3.75 22.366 3.75 22.3667 3.75C22.3673 3.75 22.368 3.75 22.3687 3.75C22.3694 3.75 22.3701 3.75 22.3707 3.75C22.3714 3.75 22.3721 3.75 22.3728 3.75C22.3734 3.75 22.3741 3.75 22.3748 3.75C22.3755 3.75 22.3761 3.75 22.3768 3.75C22.3775 3.75 22.3781 3.75 22.3788 3.75C22.3795 3.75 22.3802 3.75 22.3808 3.75C22.3815 3.75 22.3822 3.75 22.3829 3.75C22.3835 3.75 22.3842 3.75 22.3849 3.75C22.3855 3.75 22.3862 3.75 22.3869 3.75C22.3875 3.75 22.3882 3.75 22.3889 3.75C22.3896 3.75 22.3902 3.75 22.3909 3.75C22.3916 3.75 22.3922 3.75 22.3929 3.75C22.3936 3.75 22.3942 3.75 22.3949 3.75C22.3956 3.75 22.3962 3.75 22.3969 3.75C22.3976 3.75 22.3982 3.75 22.3989 3.75C22.3996 3.75 22.4002 3.75 22.4009 3.75C22.4016 3.75 22.4022 3.75 22.4029 3.75C22.4035 3.75 22.4042 3.75 22.4049 3.75C22.4055 3.75 22.4062 3.75 22.4069 3.75C22.4075 3.75 22.4082 3.75 22.4088 3.75C22.4095 3.75 22.4102 3.75 22.4108 3.75C22.4115 3.75 22.4121 3.75 22.4128 3.75C22.4135 3.75 22.4141 3.75 22.4148 3.75C22.4154 3.75 22.4161 3.75 22.4168 3.75C22.4174 3.75 22.4181 3.75 22.4187 3.75C22.4194 3.75 22.42 3.75 22.4207 3.75C22.4214 3.75 22.422 3.75 22.4227 3.75C22.4233 3.75 22.424 3.75 22.4246 3.75C22.4253 3.75 22.4259 3.75 22.4266 3.75C22.4272 3.75 22.4279 3.75 22.4285 3.75C22.4292 3.75 22.4298 3.75 22.4305 3.75C22.4311 3.75 22.4318 3.75 22.4324 3.75C22.4331 3.75 22.4337 3.75 22.4344 3.75C22.435 3.75 22.4357 3.75 22.4363 3.75C22.437 3.75 22.4376 3.75 22.4383 3.75C22.4389 3.75 22.4396 3.75 22.4402 3.75C22.4408 3.75 22.4415 3.75 22.4421 3.75C22.4428 3.75 22.4434 3.75 22.4441 3.75C22.4447 3.75 22.4453 3.75 22.446 3.75C22.4466 3.75 22.4473 3.75 22.4479 3.75C22.4485 3.75 22.4492 3.75 22.4498 3.75C22.4505 3.75 22.4511 3.75 22.4517 3.75C22.4524 3.75 22.453 3.75 22.4536 3.75C22.4543 3.75 22.4549 3.75 22.4555 3.75C22.4562 3.75 22.4568 3.75 22.4574 3.75C22.4581 3.75 22.4587 3.75 22.4593 3.75C22.46 3.75 22.4606 3.75 22.4612 3.75C22.4619 3.75 22.4625 3.75 22.4631 3.75C22.4638 3.75 22.4644 3.75 22.465 3.75C22.4656 3.75 22.4663 3.75 22.4669 3.75C22.4675 3.75 22.4681 3.75 22.4688 3.75C22.4694 3.75 22.47 3.75 22.4706 3.75C22.4713 3.75 22.4719 3.75 22.4725 3.75C22.4731 3.75 22.4738 3.75 22.4744 3.75C22.475 3.75 22.4756 3.75 22.4762 3.75C22.4769 3.75 22.4775 3.75 22.4781 3.75C22.4787 3.75 22.4793 3.75 22.4799 3.75C22.4806 3.75 22.4812 3.75 22.4818 3.75C22.4824 3.75 22.483 3.75 22.4836 3.75C22.4842 3.75 22.4849 3.75 22.4855 3.75C22.4861 3.75 22.4867 3.75 22.4873 3.75C22.4879 3.75 22.4885 3.75 22.4891 3.75C22.4897 3.75 22.4903 3.75 22.4909 3.75C22.4916 3.75 22.4922 3.75 22.4928 3.75C22.4934 3.75 22.494 3.75 22.4946 3.75C22.4952 3.75 22.4958 3.75 22.4964 3.75C22.497 3.75 22.4976 3.75 22.4982 3.75C22.4988 3.75 22.4994 3.75 22.5 3.75C22.5006 3.75 22.5012 3.75 22.5018 3.75C22.5024 3.75 22.503 3.75 22.5036 3.75C22.5042 3.75 22.5048 3.75 22.5054 3.75C22.5059 3.75 22.5065 3.75 22.5071 3.75C22.5077 3.75 22.5083 3.75 22.5089 3.75C22.5095 3.75 22.5101 3.75 22.5107 3.75C22.5113 3.75 22.5118 3.75 22.5124 3.75C22.513 3.75 22.5136 3.75 22.5142 3.75C22.5148 3.75 22.5154 3.75 22.5159 3.75C22.5165 3.75 22.5171 3.75 22.5177 3.75C22.5183 3.75 22.5188 3.75 22.5194 3.75C22.52 3.75 22.5206 3.75 22.5212 3.75C22.5217 3.75 22.5223 3.75 22.5229 3.75C22.5235 3.75 22.524 3.75 22.5246 3.75C22.5252 3.75 22.5258 3.75 22.5263 3.75C22.5269 3.75 22.5275 3.75 22.528 3.75C22.5286 3.75 22.5292 3.75 22.5297 3.75C22.5303 3.75 22.5309 3.75 22.5314 3.75C22.532 3.75 22.5326 3.75 22.5331 3.75C22.5337 3.75 22.5343 3.75 22.5348 3.75C22.5354 3.75 22.5359 3.75 22.5365 3.75C22.5371 3.75 22.5376 3.75 22.5382 3.75C22.5387 3.75 22.5393 3.75 22.5398 3.75C22.5404 3.75 22.541 3.75 22.5415 3.75C22.5421 3.75 22.5426 3.75 22.5432 3.75C22.5437 3.75 22.5443 3.75 22.5448 3.75C22.5454 3.75 22.5459 3.75 22.5465 3.75C22.547 3.75 22.5475 3.75 22.5481 3.75C22.5486 3.75 22.5492 3.75 22.5497 3.75C22.5503 3.75 22.5508 3.75 22.5513 3.75C22.5519 3.75 22.5524 3.75 22.553 3.75C22.5535 3.75 22.554 3.75 22.5546 3.75C22.5551 3.75 22.5556 3.75 22.5562 3.75C22.5567 3.75 22.5572 3.75 22.5578 3.75C22.5583 3.75 22.5588 3.75 22.5594 3.75C22.5599 3.75 22.5604 3.75 22.561 3.75C22.5615 3.75 22.562 3.75 22.5625 3.75C22.5631 3.75 22.5636 3.75 22.5641 3.75C22.5646 3.75 22.5651 3.75 22.5657 3.75C22.5662 3.75 22.5667 3.75 22.5672 3.75C22.5677 3.75 22.5683 3.75 22.5688 3.75C22.5693 3.75 22.5698 3.75 22.5703 3.75C22.5708 3.75 22.5713 3.75 22.5718 3.75C22.5724 3.75 22.5729 3.75 22.5734 3.75C22.5739 3.75 22.5744 3.75 22.5749 3.75C22.5754 3.75 22.5759 3.75 22.5764 3.75C22.5769 3.75 22.5774 3.75 22.5779 3.75C22.5784 3.75 22.5789 3.75 22.5794 3.75C22.5799 3.75 22.5804 3.75 22.5809 3.75C22.5814 3.75 22.5819 3.75 22.5824 3.75C22.5829 3.75 22.5834 3.75 22.5839 3.75C22.5844 3.75 22.5848 3.75 22.5853 3.75C22.5858 3.75 22.5863 3.75 22.5868 3.75C22.5873 3.75 22.5878 3.75 22.5882 3.75C22.5887 3.75 22.5892 3.75 22.5897 3.75C22.5902 3.75 22.5907 3.75 22.5911 3.75C22.5916 3.75 22.5921 3.75 22.5926 3.75C22.593 3.75 22.5935 3.75 22.594 3.75C22.5945 3.75 22.5949 3.75 22.5954 3.75C22.5959 3.75 22.5963 3.75 22.5968 3.75C22.5973 3.75 22.5977 3.75 22.5982 3.75C22.5987 3.75 22.5991 3.75 22.5996 3.75C22.6001 3.75 22.6005 3.75 22.601 3.75C22.6014 3.75 22.6019 3.75 22.6024 3.75C22.6028 3.75 22.6033 3.75 22.6037 3.75C22.6042 3.75 22.6046 3.75 22.6051 3.75C22.6055 3.75 22.606 3.75 22.6064 3.75C22.6069 3.75 22.6073 3.75 22.6078 3.75C22.6082 3.75 22.6087 3.75 22.6091 3.75C22.6095 3.75 22.61 3.75 22.6104 3.75C22.6109 3.75 22.6113 3.75 22.6117 3.75C22.6122 3.75 22.6126 3.75 22.613 3.75C22.6135 3.75 22.6139 3.75 22.6143 3.75C22.6148 3.75 22.6152 3.75 22.6156 3.75C22.6161 3.75 22.6165 3.75 22.6169 3.75C22.6173 3.75 22.6178 3.75 22.6182 3.75C22.6186 3.75 22.619 3.75 22.6194 3.75C22.6199 3.75 22.6203 3.75 22.6207 3.75C22.6211 3.75 22.6215 3.75 22.6219 3.75C22.6224 3.75 22.6228 3.75 22.6232 3.75C22.6236 3.75 22.624 3.75 22.6244 3.75C22.6248 3.75 22.6252 3.75 22.6256 3.75C22.626 3.75 22.6264 3.75 22.6268 3.75C22.6272 3.75 22.6276 3.75 22.628 3.75C22.6284 3.75 22.6288 3.75 22.6292 3.75C22.6296 3.75 22.63 3.75 22.6304 3.75C22.6308 3.75 22.6312 3.75 22.6316 3.75C22.632 3.75 22.6324 3.75 22.6328 3.75C22.6331 3.75 22.6335 3.75 22.6339 3.75C22.6343 3.75 22.6347 3.75 22.635 3.75C22.6354 3.75 22.6358 3.75 22.6362 3.75C22.6366 3.75 22.6369 3.75 22.6373 3.75C22.6377 3.75 22.6381 3.75 22.6384 3.75C22.6388 3.75 22.6392 3.75 22.6395 3.75C22.6399 3.75 22.6403 3.75 22.6406 3.75C22.641 3.75 22.6414 3.75 22.6417 3.75C22.6421 3.75 22.6424 3.75 22.6428 3.75C22.6432 3.75 22.6435 3.75 22.6439 3.75C22.6442 3.75 22.6446 3.75 22.6449 3.75C22.6453 3.75 22.6456 3.75 22.646 3.75C22.6463 3.75 22.6467 3.75 22.647 3.75C22.6473 3.75 22.6477 3.75 22.648 3.75C22.6484 3.75 22.6487 3.75 22.649 3.75C22.6494 3.75 22.6497 3.75 22.6501 3.75C22.6504 3.75 22.6507 3.75 22.6511 3.75C22.6514 3.75 22.6517 3.75 22.652 3.75C22.6524 3.75 22.6527 3.75 22.653 3.75C22.6533 3.75 22.6537 3.75 22.654 3.75C22.6543 3.75 22.6546 3.75 22.6549 3.75C22.6553 3.75 22.6556 3.75 22.6559 3.75C22.6562 3.75 22.6565 3.75 22.6568 3.75C22.6571 3.75 22.6574 3.75 22.6577 3.75C22.6581 3.75 22.6584 3.75 22.6587 3.75C22.659 3.75 22.6593 3.75 22.6596 3.75C22.6599 3.75 22.6602 3.75 22.6605 3.75C22.6607 3.75 22.661 3.75 22.6613 3.75C22.6616 3.75 22.6619 3.75 22.6622 3.75C22.6625 3.75 22.6628 3.75 22.6631 3.75C22.6634 3.75 22.6636 3.75 22.6639 3.75C22.6642 3.75 22.6645 3.75 22.6648 3.75C22.665 3.75 22.6653 3.75 22.6656 3.75C22.6659 3.75 22.6661 3.75 22.6664 3.75C22.6667 3.75 22.6669 3.75 22.6672 3.75C22.6675 3.75 22.6677 3.75 22.668 3.75C22.6683 3.75 22.6685 3.75 22.6688 3.75C22.669 3.75 22.6693 3.75 22.6696 3.75C22.6698 3.75 22.6701 3.75 22.6703 3.75C22.6706 3.75 22.6708 3.75 22.6711 3.75C22.6713 3.75 22.6716 3.75 22.6718 3.75C22.6721 3.75 22.6723 3.75 22.6725 3.75C22.6728 3.75 22.673 3.75 22.6733 3.75C22.6735 3.75 22.6737 3.75 22.674 3.75C22.6742 3.75 22.6744 3.75 22.6746 3.75C22.6749 3.75 22.6751 3.75 22.6753 3.75C22.6756 3.75 22.6758 3.75 22.676 3.75C22.6762 3.75 22.6764 3.75 22.6767 3.75C22.6769 3.75 22.6771 3.75 22.6773 3.75C22.6775 3.75 22.6777 3.75 22.6779 3.75C22.6781 3.75 22.6784 3.75 22.6786 3.75C22.6788 3.75 22.679 3.75 22.6792 3.75C22.6794 3.75 22.6796 3.75 22.6798 3.75C22.68 3.75 22.6802 3.75 22.6804 3.75C22.6805 3.75 22.6807 3.75 22.6809 3.75C22.6811 3.75 22.6813 3.75 22.6815 3.75C22.6817 3.75 22.6819 3.75 22.682 3.75C22.6822 3.75 22.6824 3.75 22.6826 3.75C22.6828 3.75 22.6829 3.75 22.6831 3.75C22.6833 3.75 22.6834 3.75 22.6836 3.75C22.6838 3.75 22.684 3.75 22.6841 3.75C22.6843 3.75 22.6844 3.75 22.6846 3.75C22.6848 3.75 22.6849 3.75 22.6851 3.75C22.6852 3.75 22.6854 3.75 22.6855 3.75V0.75ZM21.9043 0.75C20.0841 0.75 13.7213 1.27075 10.6913 8.0437L13.4298 9.2688C15.7123 4.16675 20.4432 3.75 21.9043 3.75V0.75ZM10.7 8.02458C10.0457 9.43383 9.89665 11.2802 9.88675 12.9344C9.87661 14.6279 10.0189 16.4077 10.0942 17.7262L13.0894 17.555C13.0084 16.1392 12.8773 14.5205 12.8867 12.9523C12.8963 11.3448 13.0597 10.0662 13.4211 9.28792L10.7 8.02458ZM10.921 16.299C10.8824 16.3182 10.8458 16.3377 10.8259 16.3483C10.8012 16.3615 10.7881 16.3684 10.7749 16.3751C10.7517 16.387 10.7469 16.3885 10.7506 16.3871C10.7555 16.3852 10.7666 16.3814 10.7813 16.3785C10.7962 16.3755 10.8068 16.375 10.8105 16.375V19.375C11.217 19.375 11.5559 19.2916 11.8275 19.1871C12.0428 19.1043 12.3073 18.9599 12.2626 18.9823L10.921 16.299ZM10.8105 16.375C10.5912 16.375 10.2959 16.3245 9.74214 16.0169L8.28521 18.6394C9.13772 19.113 9.93618 19.375 10.8105 19.375V16.375ZM9.59059 15.9435C8.63505 15.5454 7.58155 15.7045 6.80305 16.0638C6.03278 16.4194 5.13526 17.1653 4.95299 18.35L7.9181 18.8062C7.90508 18.8908 7.87037 18.9218 7.8874 18.9029C7.90739 18.8807 7.96236 18.8329 8.06023 18.7877C8.15664 18.7432 8.25873 18.7181 8.34418 18.712C8.43233 18.7057 8.45908 18.722 8.43675 18.7127L9.59059 15.9435ZM4.99326 18.166C4.77276 18.9378 4.94488 19.7735 5.48726 20.4842C5.99848 21.1541 6.80215 21.6774 7.84207 22.0844L8.93527 19.2906C8.17831 18.9944 7.9273 18.7365 7.87211 18.6642C7.85057 18.636 7.87458 18.6574 7.89006 18.7311C7.90564 18.8052 7.90467 18.8963 7.87783 18.9902L4.99326 18.166ZM7.77946 22.0582C8.04015 22.1741 8.36604 22.2789 8.5994 22.356C8.86937 22.4451 9.11302 22.5271 9.33858 22.6204C9.56753 22.7151 9.71917 22.7984 9.81045 22.8651C9.90232 22.9323 9.85887 22.9285 9.81656 22.8269L12.5858 21.6731C12.1346 20.5902 11.058 20.0852 10.4856 19.8484C10.1448 19.7073 9.8025 19.5939 9.54024 19.5073C9.24138 19.4086 9.08875 19.3572 8.99788 19.3168L7.77946 22.0582ZM9.80846 22.8071C9.80864 22.8075 9.80637 22.8016 9.80484 22.7919C9.80328 22.782 9.80411 22.7783 9.80361 22.7847C9.80258 22.7974 9.79314 22.8838 9.70328 23.0636L12.3866 24.4052C12.8516 23.4752 12.9391 22.5559 12.5939 21.6929L9.80846 22.8071ZM9.79685 22.9023C9.4865 23.3678 9.14427 24.3863 7.86969 25.8892C6.69341 27.2761 5.01646 28.6175 2.76519 28.9713L3.2309 31.9349C6.44838 31.4293 8.71674 29.5286 10.1577 27.8296C11.5003 26.2465 12.4471 24.3353 12.293 24.5664L9.79685 22.9023ZM2.70387 28.9823C1.60102 29.2028 0.794922 30.2182 0.794922 31.3125H3.79492C3.79492 31.5097 3.72216 31.6401 3.66417 31.7115C3.60532 31.784 3.48892 31.8847 3.29222 31.924L2.70387 28.9823ZM2.29492 32.8125H2.37305V29.8125H2.29492V32.8125ZM0.874745 31.3838C0.922743 32.3918 1.51631 33.1001 2.07728 33.5419C2.63397 33.9804 3.31421 34.2876 3.93572 34.5111C5.18364 34.9599 6.62176 35.215 7.40488 35.3641L7.96622 32.4171C7.10871 32.2538 5.92964 32.0401 4.951 31.6881C4.45923 31.5113 4.12384 31.3351 3.93346 31.1851C3.74736 31.0385 3.86241 31.0535 3.87135 31.2412L0.874745 31.3838ZM6.62489 34.9513C6.45713 34.7835 6.38801 34.6247 6.3854 34.6191C6.37009 34.5864 6.36879 34.5772 6.37951 34.6097C6.40096 34.6747 6.4311 34.7841 6.47447 34.9576C6.55109 35.264 6.66514 35.7615 6.79568 36.1966L9.66916 35.3346C9.56533 34.9885 9.48407 34.6266 9.3849 34.2299C9.34038 34.0519 9.28752 33.8487 9.2284 33.6696C9.19884 33.58 9.15786 33.4658 9.10319 33.3489C9.06121 33.2591 8.95302 33.0368 8.74621 32.83L6.62489 34.9513ZM6.77721 36.1294C6.86208 36.4689 7.05139 36.9378 7.47262 37.331C7.92435 37.7526 8.51683 37.9688 9.16992 37.9688V34.9688C9.16992 34.9688 9.1707 34.9688 9.17223 34.9688C9.17376 34.9689 9.17603 34.969 9.17901 34.9692C9.18499 34.9697 9.19374 34.9707 9.20496 34.9726C9.22776 34.9765 9.25887 34.9839 9.29574 34.9977C9.37376 35.0269 9.45193 35.0747 9.51957 35.1378C9.64783 35.2575 9.68088 35.3748 9.68764 35.4018L6.77721 36.1294ZM9.16992 37.9688C9.67525 37.9688 10.308 37.8144 10.6597 37.7454C11.1113 37.6569 11.6109 37.5781 12.2168 37.5781V34.5781C11.3383 34.5781 10.6269 34.6947 10.0825 34.8015C9.43805 34.9278 9.28959 34.9688 9.16992 34.9688V37.9688ZM12.2168 37.5781C13.1084 37.5781 13.5804 37.6802 13.9754 37.8442C14.424 38.0306 14.8696 38.332 15.7199 38.9394L17.4637 36.4981C16.6734 35.9337 15.9471 35.4147 15.1262 35.0737C14.2516 34.7105 13.3564 34.5781 12.2168 34.5781V37.5781ZM15.7597 38.9668C16.8267 39.6782 19.2925 41.5187 22.3885 41.3252L22.2014 38.331C20.2974 38.45 18.7006 37.3218 17.4238 36.4707L15.7597 38.9668ZM22.2466 41.3273C25.1855 41.4221 27.1754 40.1484 28.9212 38.9581L27.2312 36.4794C25.5395 37.6328 24.2481 38.3904 22.3433 38.3289L22.2466 41.3273ZM28.948 38.9394C29.7984 38.332 30.244 38.0306 30.6926 37.8442C31.0876 37.6802 31.5595 37.5781 32.4512 37.5781V34.5781C31.3116 34.5781 30.4164 34.7105 29.5418 35.0737C28.7209 35.4147 27.9946 35.9337 27.2043 36.4981L28.948 38.9394ZM32.4512 37.5781C33.1239 37.5781 33.6237 37.6443 34.0552 37.7148C34.426 37.7753 34.9867 37.8906 35.498 37.8906V34.8906C35.3063 34.8906 35.1248 34.8497 34.5386 34.754C34.013 34.6682 33.341 34.5781 32.4512 34.5781V37.5781ZM35.498 37.8906C35.9694 37.8906 36.5409 37.7911 37.0426 37.4148C37.5716 37.0181 37.8272 36.4618 37.9151 35.9341L34.956 35.4409C34.9596 35.419 34.9738 35.353 35.0218 35.2667C35.0722 35.1758 35.147 35.0866 35.2426 35.0148C35.4317 34.873 35.5736 34.8906 35.498 34.8906V37.8906ZM37.8586 36.1618C37.9989 35.741 38.1135 35.2581 38.1935 34.938C38.2378 34.7607 38.2709 34.6341 38.2985 34.5438C38.312 34.4997 38.3184 34.4836 38.3173 34.4864C38.3164 34.4887 38.3106 34.5031 38.2994 34.526C38.2889 34.5473 38.2667 34.5903 38.2305 34.6446L35.7343 32.9804C35.5586 33.244 35.4669 33.5445 35.4295 33.6671C35.3765 33.8405 35.3266 34.0362 35.2831 34.2104C35.1873 34.5935 35.1066 34.9309 35.0125 35.2132L37.8586 36.1618ZM37.2049 35.2959C38.8174 35.054 40.1605 34.7395 41.1875 34.3241C42.1497 33.9349 43.1656 33.3261 43.6014 32.28L40.8322 31.1262C40.8774 31.0177 40.8386 31.2291 40.0625 31.543C39.3512 31.8308 38.2724 32.1022 36.7599 32.3291L37.2049 35.2959Z" fill="black" mask="url(#path-1-outside-1_1_3019)"/>
</svg>
