<?xml version="1.0" encoding="UTF-8" standalone="no"?>
<!-- Created with Inkscape (http://www.inkscape.org/) -->

<svg
   width="68.791763mm"
   height="77.035248mm"
   viewBox="0 0 68.791763 77.035248"
   version="1.1"
   id="svg771"
   inkscape:version="1.2.2 (b0a8486, 2022-12-01)"
   sodipodi:docname="LC_LOGO_ICON_ONLY.svg"
   xmlns:inkscape="http://www.inkscape.org/namespaces/inkscape"
   xmlns:sodipodi="http://sodipodi.sourceforge.net/DTD/sodipodi-0.dtd"
   xmlns="http://www.w3.org/2000/svg"
   xmlns:svg="http://www.w3.org/2000/svg">
  <sodipodi:namedview
     id="namedview773"
     pagecolor="#ffffff"
     bordercolor="#000000"
     borderopacity="0.25"
     inkscape:showpageshadow="2"
     inkscape:pageopacity="0.0"
     inkscape:pagecheckerboard="0"
     inkscape:deskcolor="#d1d1d1"
     inkscape:document-units="mm"
     showgrid="false"
     inkscape:zoom="0.2102413"
     inkscape:cx="321.05966"
     inkscape:cy="516.07367"
     inkscape:window-width="1405"
     inkscape:window-height="739"
     inkscape:window-x="164"
     inkscape:window-y="92"
     inkscape:window-maximized="0"
     inkscape:current-layer="layer1" />
  <defs
     id="defs768" />
  <g
     inkscape:label="Layer 1"
     inkscape:groupmode="layer"
     id="layer1"
     transform="translate(-28.52785,-23.14763)">
    <g
       id="g730"
       transform="translate(-339.86526,0.88933451)">
      <path
         style="fill:#000000;stroke-width:1"
         d="m 374.17496,42.473591 c -1.94309,-1.19216 -3.52231,-2.276343 -3.50938,-2.409296 0.0129,-0.13295 4.41825,-2.768547 9.78959,-5.856877 5.37134,-3.08833 12.06571,-6.940247 14.87639,-8.559815 2.81068,-1.619568 5.16467,-2.890327 5.23108,-2.82391 0.0664,0.06642 0.18821,2.013335 0.27065,4.326482 l 0.14989,4.205722 -4.05806,2.28523 c -2.23193,1.256876 -7.46887,4.246059 -11.63766,6.642627 l -7.5796,4.357399 z"
         id="path716" />
      <path
         style="fill:#000000;stroke-width:1"
         d="m 414.7786,38.299229 -10.89681,-7.207915 0.0115,-2.910417 c 0.006,-1.600729 0.0878,-3.588158 0.18118,-4.416509 l 0.16972,-1.506093 15.26989,8.778709 c 8.39843,4.82829 15.185,8.861998 15.08125,8.963794 -0.25439,0.249602 -8.29485,5.277606 -8.64386,5.405331 -0.15182,0.05556 -5.17959,-3.142546 -11.17283,-7.1069 z"
         id="path714" />
      <path
         style="fill:#000000;stroke-width:1"
         d="M 368.39311,60.211099 V 42.852411 l 2.71198,1.475412 c 1.49159,0.811477 3.21799,1.731065 3.83646,2.043528 l 1.12448,0.568116 v 13.297006 13.297006 l -3.63005,1.929958 c -1.99652,1.061479 -3.72293,1.969648 -3.83646,2.018154 -0.11352,0.04851 -0.20641,-7.723214 -0.20641,-17.270492 z"
         id="path710" />
      <path
         style="fill:#000000;stroke-width:1"
         d="m 432.95144,75.803662 -3.57187,-1.945053 -0.068,-13.57844 -0.068,-13.578438 3.7914,-2.050521 c 2.08527,-1.127787 3.87206,-2.050521 3.97065,-2.050521 0.0986,0 0.17925,7.917656 0.17925,17.594792 0,13.910527 -0.0693,17.590442 -0.33073,17.574014 -0.1819,-0.01143 -1.93807,-0.896054 -3.90261,-1.965833 z"
         id="path708" />
      <path
         style="fill:#000000;stroke-width:1"
         d="m 393.9254,70.646523 c -0.0943,-0.152636 0.15402,-0.264584 0.58697,-0.264584 0.41278,0 1.01512,-0.185346 1.33853,-0.411877 0.58604,-0.410474 0.58804,-0.439679 0.58804,-8.566563 0,-8.988023 0.0842,-8.553468 -1.74051,-8.981344 -0.74707,-0.175181 0.40709,-0.243311 4.12176,-0.243311 3.70007,0 4.86003,0.06814 4.10105,0.240908 -1.82616,0.415687 -1.98473,0.823196 -1.9819,5.09306 l 0.002,3.741002 0.75919,-1.322917 c 1.29875,-2.26314 3.61015,-3.047447 6.46249,-2.192861 0.83838,0.251182 1.0935,0.251182 1.17723,0 0.26862,-0.805553 0.59206,-0.185653 0.59206,1.134528 0,0.800365 -0.11906,1.455208 -0.26458,1.455208 -0.14552,0 -0.26458,-0.166002 -0.26458,-0.368892 0,-0.202893 -0.34543,-0.738675 -0.76761,-1.190625 -1.32429,-1.417656 -3.73173,-1.044922 -4.6225,0.715682 -0.57504,1.136562 -0.72057,2.487713 -0.43462,4.035046 0.50164,2.714385 2.6965,3.71011 4.89278,2.219669 0.96653,-0.655902 1.43157,-0.713573 1.07278,-0.133035 -0.0972,0.157282 -0.66486,0.53499 -1.26146,0.839351 -1.63603,0.834642 -4.06304,0.625716 -5.41797,-0.466394 -0.55111,-0.444214 -1.13312,-1.066041 -1.29334,-1.381834 -0.5553,-1.094462 -0.63473,-0.905788 -0.63473,1.507768 0,3.177651 0.25879,3.483681 2.94587,3.483681 1.03814,0 2.35704,-0.140671 2.9309,-0.3126 1.34613,-0.403312 2.72404,-2.005219 3.30204,-3.838826 0.24355,-0.772652 0.55771,-1.404824 0.69813,-1.404824 0.25004,0 0.1191,2.917838 -0.25266,5.630103 l -0.17121,1.249064 h -8.1505 c -5.14827,0 -8.21074,-0.09746 -8.31403,-0.264583 z"
         id="path706" />
      <path
         style="fill:#000000;stroke-width:1"
         d="m 393.20314,76.802891 -9.18892,-5.230337 0.0608,-10.714363 0.0608,-10.71436 9.12812,-5.223524 c 5.02047,-2.872938 9.23903,-5.224991 9.37458,-5.226785 0.13555,-0.0019 4.38749,2.348224 9.44876,5.222261 l 9.20229,5.225521 0.005,10.715625 0.005,10.715625 -9.04059,5.159375 c -4.97233,2.837657 -9.22642,5.191308 -9.45353,5.230337 -0.22712,0.03903 -4.54796,-2.282688 -9.60187,-5.159375 z m 17.92018,-2.800425 7.14375,-4.093876 0.0696,-8.990627 0.0696,-8.990626 -7.73041,-4.442844 c -4.25172,-2.443562 -7.8549,-4.441643 -8.00708,-4.440174 -0.15217,0.0016 -3.7608,1.998946 -8.01917,4.438846 l -7.74251,4.436179 0.0696,9.003519 0.0696,9.00352 7.78091,4.446265 c 7.43493,4.248562 7.81139,4.430199 8.46667,4.084981 0.37716,-0.198705 3.90045,-2.203529 7.82951,-4.455163 z"
         id="path704" />
      <path
         style="fill:#000000;stroke-width:1"
         d="m 397.23269,97.195738 c -1.67349,-0.96234 -7.92427,-4.54987 -13.89062,-7.97228 -5.96636,-3.42242 -11.60131,-6.666771 -12.52212,-7.209673 l -1.67421,-0.987094 3.7254,-2.279674 c 2.04896,-1.253818 3.77382,-2.279671 3.83302,-2.279671 0.0888,0 20.72997,11.803312 23.41804,13.391192 l 0.81466,0.48124 -0.002,2.52264 c -0.002,2.89844 -0.26452,6.09719 -0.4994,6.08877 -0.0881,-0.003 -1.5294,-0.79311 -3.20289,-1.75545 z"
         id="path702" />
      <path
         style="fill:#000000;stroke-width:1"
         d="m 404.01746,97.450828 c -0.0936,-1.10733 -0.16883,-3.09669 -0.16718,-4.4208 l 0.003,-2.40747 2.84126,-1.62345 c 1.5627,-0.8929 6.82176,-3.91165 11.6868,-6.708336 4.86504,-2.796688 9.11381,-5.207121 9.44172,-5.356524 0.51259,-0.233553 1.11765,0.03925 4.31566,1.945833 2.04572,1.219611 3.72018,2.277005 3.72104,2.349765 7.9e-4,0.07276 -0.6234,0.481804 -1.38724,0.908984 -0.76384,0.42718 -7.63958,4.366218 -15.27942,8.753418 -7.63984,4.3872 -14.14146,8.11065 -14.44804,8.27432 -0.5384,0.28743 -0.56322,0.2289 -0.7276,-1.71574 z"
         id="path700" />
    </g>
  </g>
</svg>
