<?xml version="1.0" encoding="UTF-8" standalone="no"?>
<!-- Created with Inkscape (http://www.inkscape.org/) -->

<svg
   width="259.79538mm"
   height="59.796291mm"
   viewBox="0 0 259.79538 59.796291"
   version="1.1"
   id="svg1016"
   xmlns:inkscape="http://www.inkscape.org/namespaces/inkscape"
   xmlns:sodipodi="http://sodipodi.sourceforge.net/DTD/sodipodi-0.dtd"
   xmlns="http://www.w3.org/2000/svg"
   xmlns:svg="http://www.w3.org/2000/svg">
  <sodipodi:namedview
     id="namedview1018"
     pagecolor="#ffffff"
     bordercolor="#000000"
     borderopacity="0.25"
     inkscape:showpageshadow="2"
     inkscape:pageopacity="0.0"
     inkscape:pagecheckerboard="0"
     inkscape:deskcolor="#d1d1d1"
     inkscape:document-units="mm"
     showgrid="false" />
  <defs
     id="defs1013" />
  <g
     inkscape:label="Layer 1"
     inkscape:groupmode="layer"
     id="layer1"
     transform="translate(40.545991,-69.521347)">
    <g
       id="g753"
       transform="translate(-312.22435,-36.843933)">
      <path
         style="fill:#000000;stroke-width:1"
         d="m 497.24519,130.20728 c 0,-0.12933 0.44649,-0.31673 0.99219,-0.41645 0.54571,-0.0997 1.26008,-0.35384 1.5875,-0.56471 l 0.59531,-0.3834 v -10.13936 c 0,-11.4258 0.11126,-10.82183 -2.05743,-11.16862 -2.5182,-0.40268 -0.793,-0.64013 4.63712,-0.63824 6.58303,0.002 8.60556,0.24248 10.63923,1.26353 3.62275,1.81889 4.31032,6.46435 1.35232,9.13673 -1.13243,1.02309 -3.55932,2.03315 -4.88506,2.03315 -0.48251,0 -1.60914,0.0765 -2.50361,0.16999 l -1.62632,0.16991 v 4.46023 c 0,5.07248 0.0822,5.29485 2.07642,5.61372 0.60422,0.0966 1.09858,0.29333 1.09858,0.43713 0,0.16448 -2.20822,0.26146 -5.95312,0.26146 -3.29536,0 -5.95313,-0.10498 -5.95313,-0.23514 z m 11.97802,-12.41753 c 1.16493,-0.68739 1.86851,-2.45147 1.86851,-4.68489 0,-3.17781 -1.20453,-4.74466 -3.79236,-4.93306 l -1.19062,-0.0867 -0.0717,5.19983 -0.0717,5.19982 1.26228,-0.13118 c 0.69425,-0.0721 1.59223,-0.32587 1.9955,-0.56384 z"
         id="path696" />
      <path
         style="fill:#000000;stroke-width:1"
         d="m 483.22228,130.20781 c 0,-0.129 0.52207,-0.31283 1.16015,-0.40852 2.22417,-0.33353 2.14714,0.0658 2.14714,-11.1309 0,-11.1967 0.077,-10.79737 -2.14714,-11.1309 -2.66176,-0.39915 -0.79369,-0.64306 4.92526,-0.64306 5.73924,0 7.58652,0.24398 4.89887,0.64702 -2.04385,0.30649 -1.98845,-0.005 -1.98845,11.18581 0,11.13945 -0.0866,10.68139 2.08868,11.0489 2.53938,0.42903 0.75971,0.66619 -4.9991,0.66619 -3.36091,0 -6.08541,-0.10501 -6.08541,-0.23454 z"
         id="path694" />
      <path
         style="fill:#000000;stroke-width:1"
         d="m 455.97019,130.20781 c 0,-0.129 0.53395,-0.31461 1.18655,-0.41248 2.04293,-0.30635 1.98845,-0.002 1.98845,-11.12694 0,-11.12542 0.0545,-10.82059 -1.98845,-11.12694 -2.68765,-0.40304 -0.84036,-0.64702 4.89887,-0.64702 5.71895,0 7.58703,0.24391 4.92526,0.64306 -2.00431,0.30057 -2.13334,0.6232 -2.24047,5.60226 l -0.0933,4.33802 h 4.28329 4.28329 l -0.0889,-4.33843 c -0.10205,-4.97962 -0.23036,-5.30108 -2.23605,-5.60185 -2.66176,-0.39915 -0.79369,-0.64306 4.92526,-0.64306 5.73924,0 7.58652,0.24398 4.89887,0.64702 -2.04385,0.30649 -1.98845,-0.005 -1.98845,11.18581 0,9.48694 0.02,9.88304 0.52545,10.38845 0.28899,0.289 1.00337,0.60187 1.5875,0.69527 2.48295,0.39704 0.67347,0.63137 -4.87546,0.63137 -5.61582,0 -7.64456,-0.25746 -5.07047,-0.64347 2.03028,-0.30445 2.13176,-0.57716 2.23201,-5.99829 l 0.0876,-4.73532 h -4.28047 -4.28046 l 0.0918,4.73503 c 0.10517,5.42193 0.2068,5.69425 2.23898,5.99899 2.66177,0.39916 0.79369,0.64306 -4.92526,0.64306 -3.36091,0 -6.08542,-0.10501 -6.08542,-0.23454 z"
         id="path692" />
      <path
         style="fill:#000000;stroke-width:1"
         d="m 410.72644,130.17777 c 0,-0.14553 0.14883,-0.26525 0.33073,-0.26606 1.09779,-0.005 2.277,-0.59068 2.55885,-1.27112 0.21584,-0.52109 0.28253,-3.57153 0.22886,-10.46856 -0.085,-10.92006 0.0445,-10.26057 -2.08451,-10.62026 -0.56866,-0.0961 -1.03393,-0.2963 -1.03393,-0.44495 0,-0.18064 2.56655,-0.22911 7.73907,-0.14615 9.10869,0.14609 9.89616,0.29715 11.87637,2.27821 1.70122,1.70196 2.1812,3.59082 1.52212,5.98993 -0.36917,1.34379 -2.22816,3.16963 -3.66569,3.60033 -0.58723,0.17594 -1.0677,0.40188 -1.0677,0.50211 0,0.23422 5.96493,8.67459 6.67402,9.44373 0.2949,0.31987 0.88473,0.65814 1.31072,0.7517 0.426,0.0936 0.72871,0.3081 0.67269,0.47675 -0.0689,0.20742 -1.26427,0.33039 -3.69463,0.38009 l -3.59278,0.0735 -3.79386,-5.42312 c -3.35723,-4.79898 -3.87761,-5.42406 -4.52147,-5.43127 l -0.72761,-0.008 v 4.49792 c 0,5.1124 0.0856,5.3454 2.08869,5.68381 2.52398,0.42643 0.7724,0.66619 -4.86681,0.66619 -3.79236,0 -5.95313,-0.096 -5.95313,-0.26458 z m 12.43542,-11.92886 c 2.23387,-0.51454 3.25976,-2.05303 3.26183,-4.89164 0.002,-3.34553 -1.11496,-4.71569 -4.24025,-5.19944 -2.89381,-0.44792 -2.72575,-0.76919 -2.72575,5.21059 v 5.16768 l 1.25677,-0.006 c 0.69123,-0.004 1.79256,-0.12988 2.4474,-0.28072 z"
         id="path690" />
      <path
         style="fill:#000000;stroke-width:1"
         d="m 387.31082,130.17777 c -0.0899,-0.14553 0.0519,-0.26525 0.31511,-0.26606 0.26325,-8e-4 0.91439,-0.12251 1.44698,-0.27044 0.73569,-0.20434 1.03765,-0.46775 1.25677,-1.09634 0.18706,-0.53659 0.28843,-4.10212 0.28843,-10.14492 0,-8.95926 -0.0206,-9.34377 -0.53648,-9.99957 -0.37207,-0.47301 -0.89831,-0.73629 -1.71709,-0.85907 -2.9455,-0.44171 -0.16922,-0.64694 8.75148,-0.64694 h 9.64167 v 3.57188 c 0,2.27732 -0.0989,3.57187 -0.27288,3.57187 -0.15009,0 -0.31187,-0.14883 -0.35952,-0.33073 -1.07071,-4.0879 -2.27915,-4.98415 -6.97437,-5.17263 l -2.97656,-0.11948 v 4.83063 4.83064 l 1.06841,-0.14331 c 2.02089,-0.27106 3.17948,-1.54857 3.70643,-4.08686 0.56516,-2.72234 0.78141,-1.42449 0.78141,4.68966 0,3.83204 -0.0968,6.08542 -0.26146,6.08542 -0.1438,0 -0.3342,-0.45493 -0.42311,-1.01095 -0.21986,-1.37491 -1.17674,-3.20569 -1.99468,-3.81637 -0.37062,-0.27671 -1.16956,-0.56959 -1.77543,-0.65086 l -1.10157,-0.14775 v 4.47388 c 0,5.12482 0.11639,5.48943 1.82539,5.71866 1.48234,0.19882 4.86813,-0.22369 5.84641,-0.72958 1.30533,-0.67501 2.81809,-2.41074 3.46831,-3.97952 0.32941,-0.79476 0.69608,-1.44501 0.81483,-1.44501 0.31252,0 0.27059,0.80844 -0.22303,4.29947 l -0.43959,3.10886 h -9.99617 c -6.37871,0 -10.05535,-0.0958 -10.15969,-0.26458 z"
         id="path688" />
      <path
         style="fill:#000000;stroke-width:1"
         d="m 361.51394,130.23729 c 0,-0.14106 0.44649,-0.3283 0.99219,-0.41609 0.5457,-0.0878 1.26008,-0.34788 1.5875,-0.57799 l 0.59531,-0.41837 v -9.88523 c 0,-5.43688 -0.074,-10.07797 -0.16435,-10.31353 -0.21243,-0.55359 -1.47304,-1.20248 -2.33605,-1.20248 -0.37103,0 -0.6746,-0.11906 -0.6746,-0.26458 0,-0.16891 2.17666,-0.26125 6.01927,-0.25536 8.80209,0.0135 11.4471,0.63213 14.16681,3.31342 4.88478,4.81578 4.20242,14.30905 -1.28746,17.91158 -2.88695,1.89446 -4.10509,2.12395 -11.9533,2.25189 -4.38541,0.0715 -6.94532,0.0187 -6.94532,-0.14326 z m 13.30381,-1.48215 c 2.77236,-1.18621 4.07491,-4.916 3.82393,-10.94962 -0.2059,-4.94966 -1.36974,-7.74651 -3.73553,-8.97695 -0.88864,-0.46218 -3.72655,-0.91317 -4.31801,-0.68621 -0.35749,0.13718 -0.39322,1.34601 -0.29968,10.13922 0.0833,7.83235 0.18259,10.07551 0.46074,10.41066 0.44928,0.54135 2.86312,0.57867 4.06855,0.0629 z"
         id="path686" />
      <path
         style="fill:#000000;stroke-width:1"
         d="m 335.84936,130.04547 c 0,-0.21828 0.16946,-0.39687 0.37657,-0.39687 0.61979,0 1.98983,-1.3149 2.5847,-2.48068 0.52902,-1.03673 7.11182,-15.64571 8.62722,-19.14607 0.39305,-0.9079 0.78869,-1.65204 0.8792,-1.65365 0.0905,-0.002 2.0996,4.43214 4.46463,9.85279 5.2854,12.1141 5.6662,12.86041 6.80457,13.33605 1.75249,0.73224 0.94214,0.88531 -4.68689,0.88531 -5.39527,0 -6.7162,-0.2044 -4.4593,-0.69001 1.90592,-0.4101 1.93522,-1.07285 0.21899,-4.95269 l -0.54695,-1.23647 h -4.06927 -4.06926 l -0.63574,1.38906 c -0.90726,1.98233 -1.06809,2.81207 -0.7118,3.67223 0.23488,0.56707 0.54077,0.78493 1.27202,0.90598 1.36079,0.22527 1.62423,0.32891 1.62423,0.63901 0,0.17492 -1.37739,0.27289 -3.83646,0.27289 -3.2338,0 -3.83646,-0.0623 -3.83646,-0.39688 z m 13.49375,-8.01847 c 0,-0.34295 -2.92322,-7.0379 -3.19358,-7.31413 -0.1353,-0.13825 -0.246,-0.1914 -0.246,-0.11813 0,0.0733 -0.76741,1.8235 -1.70535,3.88938 l -1.70536,3.75615 h 3.42515 c 1.88382,0 3.42514,-0.096 3.42514,-0.21327 z"
         id="path684" />
      <path
         style="fill:#000000;stroke-width:1"
         d="m 312.83061,130.21158 c 0,-0.12692 0.47792,-0.30719 1.06205,-0.4006 0.58413,-0.0934 1.29851,-0.40627 1.5875,-0.69527 0.50553,-0.50552 0.52545,-0.90165 0.52545,-10.44732 0,-9.54567 -0.0199,-9.9418 -0.52545,-10.44732 -0.28899,-0.289 -1.00337,-0.60187 -1.5875,-0.69527 -0.58413,-0.0934 -1.06205,-0.27515 -1.06205,-0.40386 0,-0.13266 4.21159,-0.20397 9.72344,-0.16462 l 9.72343,0.0694 v 3.41789 c 0,3.81336 -0.29544,4.44814 -1.01211,2.1746 -0.96213,-3.05224 -2.3743,-3.90967 -6.72695,-4.08439 l -2.97656,-0.11948 v 4.7958 4.79579 h 0.6561 c 1.13706,0 2.62888,-0.76839 3.2449,-1.67134 0.32654,-0.47865 0.72993,-1.54856 0.89642,-2.37758 0.19268,-0.95942 0.43551,-1.50733 0.66803,-1.50733 0.30205,0 0.353,1.0387 0.2942,5.99738 -0.0503,4.23917 -0.16058,6.02716 -0.3763,6.09895 -0.18109,0.0603 -0.38151,-0.35019 -0.4929,-1.00949 -0.20619,-1.22042 -0.71394,-2.49968 -1.27515,-3.21268 -0.45613,-0.57949 -2.0582,-1.25957 -2.9672,-1.25957 h -0.69181 l 0.088,4.59021 c 0.0613,3.19851 0.18946,4.71226 0.42265,4.99277 0.80697,0.97073 5.68004,0.68597 7.60931,-0.44466 1.46105,-0.85623 2.66839,-2.31422 3.24013,-3.9128 0.52442,-1.4663 1.22707,-1.74645 0.99539,-0.39688 -0.17998,1.04844 -0.93469,6.22769 -0.93469,6.41441 0,0.0737 -4.52438,0.13403 -10.05417,0.13403 -5.54418,0 -10.05416,-0.10352 -10.05416,-0.23077 z"
         id="path682" />
      <path
         style="fill:#000000;stroke-width:1"
         d="m 289.1504,130.17778 c -0.0899,-0.14553 0.0519,-0.26525 0.31511,-0.26606 1.15986,-0.004 2.39029,-0.55449 2.6855,-1.20241 0.32186,-0.70641 0.45291,-18.72914 0.14455,-19.87894 -0.17662,-0.65858 -1.56233,-1.40676 -2.60545,-1.40676 -0.40145,0 -0.63306,-0.11354 -0.53971,-0.26458 0.10131,-0.16392 2.46699,-0.26459 6.21771,-0.26459 3.75072,0 6.1164,0.10067 6.21771,0.26459 0.0947,0.15323 -0.16048,0.26458 -0.60636,0.26458 -1.26519,0 -2.45446,0.54234 -2.71983,1.24032 -0.13513,0.35541 -0.24569,4.86518 -0.24569,10.02169 0,11.30326 -0.30473,10.43382 3.65704,10.43382 1.67698,0 3.03489,-0.14862 3.82851,-0.41903 1.83154,-0.62407 3.33637,-2.55023 4.16852,-5.33566 0.18477,-0.61846 0.49569,-1.12447 0.69094,-1.12447 0.42592,0 0.43006,-0.35804 -0.0444,3.83645 -0.21399,1.89177 -0.39026,3.64795 -0.39172,3.90261 -0.002,0.433 -0.67066,0.46302 -10.30577,0.46302 -6.58336,0 -10.36218,-0.0955 -10.46666,-0.26458 z"
         id="path680" />
      <path
         style="fill:#000000;stroke-width:1"
         d="m 437.44936,126.6059 c 0,-2.47969 0.10511,-4.36562 0.24332,-4.36562 0.13383,0 0.44532,0.62507 0.6922,1.38906 1.39391,4.31343 4.97541,6.86839 8.41419,6.00249 2.21869,-0.55867 3.4497,-2.44424 2.82719,-4.33048 -0.43723,-1.3248 -1.86704,-2.47549 -5.43871,-4.37697 -4.9424,-2.63123 -6.73524,-4.71075 -6.73524,-7.81223 0,-1.91398 0.50727,-3.09788 1.94429,-4.5377 2.3797,-2.38434 5.30028,-2.78109 9.20248,-1.25011 2.00992,0.78856 2.66344,0.69818 2.82545,-0.39077 0.0465,-0.31256 0.18045,-0.56829 0.29766,-0.56829 0.36475,0 0.54384,1.53562 0.54384,4.66328 0,2.28421 -0.0824,3.00963 -0.342,3.00963 -0.1881,0 -0.47753,-0.50601 -0.64319,-1.12448 -0.64476,-2.40722 -2.8143,-4.60998 -5.16348,-5.24255 -1.77289,-0.47739 -3.86961,0.25601 -4.56248,1.59587 -1.15049,2.22481 -0.0192,3.66812 4.97188,6.34337 4.06247,2.17749 5.72289,3.50117 6.55936,5.22909 0.72314,1.49379 0.79876,3.94431 0.16726,5.4197 -0.63337,1.47979 -2.42248,3.25655 -3.96999,3.94259 -1.90272,0.84351 -5.24301,0.85459 -7.33611,0.0243 -1.9133,-0.75894 -2.78668,-0.73828 -3.54871,0.084 -0.33716,0.3638 -0.68866,0.66146 -0.78111,0.66146 -0.0925,-1e-5 -0.1681,-1.96455 -0.1681,-4.36564 z"
         id="path678" />
      <path
         style="fill:#000000;stroke-width:1"
         d="m 447.96655,165.4575 c -0.82266,-0.22921 -0.49159,-0.61926 0.52917,-0.62342 2.1851,-0.009 2.18281,0.003 2.18281,-11.19404 0,-10.94404 0.0526,-10.66368 -2.05323,-10.94613 -0.61697,-0.0827 -1.12177,-0.25383 -1.12177,-0.38019 0,-0.12636 2.73844,-0.22974 6.08541,-0.22974 3.88056,0 6.08542,0.0959 6.08542,0.26458 0,0.14552 -0.35159,0.26458 -0.7813,0.26458 -1.29579,0 -2.10777,0.52685 -2.4119,1.56494 -0.17826,0.60846 -0.24854,4.28956 -0.196,10.26601 0.0923,10.49637 0.01,10.09298 2.12282,10.37499 0.62375,0.0832 1.13409,0.27042 1.13409,0.41594 0,0.2706 -10.66701,0.47563 -11.57552,0.2225 z"
         id="path676" />
      <path
         style="fill:#000000;stroke-width:1"
         d="m 429.17789,165.4468 c -0.74227,-0.19037 -0.24942,-0.6087 0.71715,-0.6087 0.48461,0 1.16219,-0.2275 1.50574,-0.50557 l 0.62462,-0.50557 0.0753,-10.07776 0.0752,-10.07776 h -1.59124 c -2.87356,0 -4.46432,1.13116 -5.29699,3.76662 -0.59322,1.87757 -0.80288,1.34715 -0.80288,-2.03122 v -3.3229 h 10.45918 10.45919 l -0.0743,3.24114 c -0.0409,1.78263 -0.17271,3.24115 -0.293,3.24115 -0.12029,0 -0.44597,-0.64531 -0.72372,-1.43402 -0.89522,-2.54208 -2.18676,-3.46077 -4.86527,-3.46077 h -1.73293 v 10.05675 c 0,9.75535 0.016,10.07056 0.5335,10.51719 0.29342,0.25324 0.95221,0.51996 1.46397,0.59272 0.51176,0.0728 0.9563,0.25136 0.98786,0.39688 0.0574,0.26485 -10.55399,0.45995 -11.52138,0.21183 z"
         id="path674" />
      <path
         style="fill:#000000;stroke-width:1"
         d="m 375.07219,165.4498 c -0.6241,-0.23966 -0.0351,-0.61161 0.96844,-0.61161 0.68207,0 1.16255,-0.17761 1.50574,-0.55661 0.47213,-0.52139 0.50907,-1.14511 0.58363,-9.85573 0.0438,-5.11451 0.009,-9.68577 -0.078,-10.15835 -0.17989,-0.98069 -1.19867,-1.65431 -2.50199,-1.65431 -0.44379,0 -0.80689,-0.11906 -0.80689,-0.26458 0,-0.17162 3.43958,-0.26458 9.78958,-0.26458 h 9.78959 v 3.57187 c 0,2.02299 -0.10659,3.57188 -0.24581,3.57188 -0.13519,0 -0.44481,-0.68461 -0.68803,-1.52136 -0.52465,-1.80496 -1.85823,-3.22797 -3.48063,-3.71405 -0.58899,-0.17646 -2.21793,-0.32084 -3.61987,-0.32084 h -2.549 v 4.79194 4.79195 l 0.99219,-0.18288 c 2.21817,-0.40884 3.25799,-1.50919 3.7737,-3.99338 0.57431,-2.76642 0.79037,-1.49625 0.79037,4.64653 0,6.07758 -0.20996,7.36941 -0.77187,4.74928 -0.56673,-2.64256 -1.68388,-3.93946 -3.57728,-4.15287 l -1.20711,-0.13606 v 4.53233 c 0,5.81867 -0.0831,5.69744 3.79925,5.53912 2.0832,-0.0849 2.92761,-0.23701 3.77695,-0.68017 1.60015,-0.83491 2.73621,-2.09292 3.59018,-3.97557 0.41528,-0.91552 0.85154,-1.60494 0.96948,-1.53205 0.1917,0.11848 -0.57836,6.40347 -0.88674,7.23732 -0.0979,0.26479 -2.19853,0.32948 -9.85398,0.30347 -5.35123,-0.0182 -9.87908,-0.0905 -10.06189,-0.16069 z"
         id="path672" />
      <path
         style="fill:#000000;stroke-width:1"
         d="m 515.23686,161.79589 c 0,-2.48934 0.1049,-4.36562 0.24407,-4.36562 0.13423,0 0.38861,0.44648 0.56528,0.99219 1.32231,4.08432 3.97712,6.41614 7.30485,6.41614 1.93347,0 3.14599,-0.68912 3.89233,-2.21214 0.43077,-0.87905 0.45458,-1.15671 0.17822,-2.07904 -0.44754,-1.4938 -1.72115,-2.54657 -5.4179,-4.47844 -3.70914,-1.93835 -5.91813,-3.885 -6.44646,-5.68087 -1.45471,-4.94474 2.26958,-9.24975 7.5823,-8.76458 0.81951,0.0748 2.25677,0.44813 3.19391,0.82954 1.88984,0.76914 2.58093,0.70694 2.8221,-0.25398 0.0889,-0.3541 0.25286,-0.64382 0.36441,-0.64382 0.35459,0 0.53356,1.56414 0.53356,4.66328 0,2.49884 -0.0674,3.00964 -0.39688,3.00964 -0.21828,0 -0.39687,-0.21911 -0.39687,-0.48691 0,-0.2678 -0.36431,-1.21592 -0.80955,-2.10694 -0.8473,-1.69559 -2.15,-2.94287 -3.78883,-3.62761 -2.70775,-1.13137 -5.72037,0.35209 -5.72037,2.81679 0,1.5612 1.26291,2.75945 4.95892,4.70502 1.71098,0.90066 3.66483,2.04084 4.34187,2.53373 2.531,1.84255 3.57889,4.15186 3.13145,6.90104 -0.80425,4.94148 -6.19072,7.34533 -11.86107,5.29329 -2.11523,-0.76548 -2.74463,-0.71651 -3.38677,0.26353 -0.23114,0.35276 -0.52563,0.64139 -0.65441,0.64139 -0.12879,0 -0.23416,-1.96453 -0.23416,-4.36563 z"
         id="path670" />
      <path
         style="fill:#000000;stroke-width:1"
         d="m 504.90415,161.08111 c -7.81244,-9.7112 -11.41916,-14.1024 -11.65503,-14.19008 -0.3293,-0.1224 -0.30105,14.66458 0.0303,15.85739 0.33347,1.20051 1.06042,1.86549 2.25833,2.06583 0.51515,0.0862 0.93148,0.27571 0.92517,0.42123 -0.018,0.41592 -7.74374,0.35109 -7.88282,-0.0661 -0.0707,-0.21218 0.15846,-0.33212 0.63941,-0.33463 1.17071,-0.006 2.04375,-0.58748 2.38837,-1.59049 0.21845,-0.63582 0.32039,-3.61442 0.33072,-9.66285 l 0.0149,-8.7437 -0.99219,-0.96188 c -0.5457,-0.52904 -1.31961,-1.04236 -1.71979,-1.14072 -1.6869,-0.4146 -0.47051,-0.65062 3.35308,-0.65062 h 4.08069 l 5.64275,7.13233 c 3.10351,3.92278 5.74626,7.13746 5.87277,7.14375 0.12677,0.006 0.18249,-2.64168 0.12414,-5.89964 -0.12216,-6.82002 -0.20421,-7.10312 -2.21445,-7.64078 -0.65033,-0.17394 -1.18242,-0.41062 -1.18242,-0.52596 0,-0.11534 1.72641,-0.2097 3.83646,-0.2097 2.11005,0 3.83646,0.10021 3.83646,0.2227 0,0.12248 -0.47673,0.36553 -1.0594,0.54011 -2.01467,0.60361 -1.97348,0.35331 -2.06061,12.52041 -0.0425,5.93662 -0.16787,10.79386 -0.27855,10.79386 -0.11069,0 -2.04043,-2.28619 -4.28832,-5.08041 z"
         id="path668" />
      <path
         style="fill:#000000;stroke-width:1"
         d="m 471.7129,165.86875 c -5.9773,-0.85937 -10.25977,-6.42506 -9.85201,-12.80411 0.31515,-4.9301 3.03123,-8.80838 7.33847,-10.47854 1.84732,-0.71631 5.69861,-0.96288 7.99711,-0.512 7.73243,1.51682 11.6255,9.96723 8.00616,17.37842 -1.73295,3.5485 -4.90273,5.87797 -8.75631,6.435 -2.07504,0.29995 -2.52913,0.29815 -4.73342,-0.0188 z m 5.48961,-1.88742 c 2.09164,-1.59537 3.11256,-4.78644 3.10403,-9.70224 -0.007,-4.09572 -0.33547,-6.13874 -1.30231,-8.10267 -2.36981,-4.81376 -8.07214,-4.21018 -10.04518,1.06326 -0.81548,2.17956 -1.18387,6.36801 -0.83516,9.49532 0.4447,3.98811 1.5552,6.35498 3.57774,7.62547 1.25705,0.78964 4.23789,0.58419 5.50088,-0.37914 z"
         id="path666" />
      <path
         style="fill:#000000;stroke-width:1"
         d="m 409.50992,165.89785 c -5.51849,-0.80916 -9.32462,-4.43373 -10.21135,-9.72423 -1.05023,-6.26608 2.99691,-12.37469 9.4289,-14.23164 2.13668,-0.61687 5.37056,-0.41048 8.30231,0.52986 2.05522,0.65921 2.24517,0.67829 2.84427,0.28574 0.35309,-0.23135 0.64198,-0.59649 0.64198,-0.81141 0,-0.21493 0.17859,-0.39078 0.39687,-0.39078 0.33514,0 0.39688,0.61736 0.39688,3.96875 0,4.39781 -0.28596,5.04876 -1.14964,2.61701 -1.88475,-5.30662 -8.88806,-6.73748 -12.47366,-2.5485 -1.50873,1.76261 -2.04819,3.54873 -2.19048,7.25264 -0.26101,6.79422 1.63848,10.60763 5.71869,11.48085 2.885,0.61742 5.86663,-0.32241 8.22038,-2.59112 l 1.34554,-1.29705 v 0.97782 c 0,0.82958 -0.17047,1.11738 -1.12448,1.89839 -1.69348,1.38641 -3.5581,2.22546 -5.67308,2.55282 -2.07913,0.32182 -2.46961,0.3245 -4.47313,0.0307 z"
         id="path664" />
      <path
         style="fill:#000000;stroke-width:1"
         d="m 362.0383,156.51029 c -4.29022,-5.30825 -7.89613,-9.65403 -8.01314,-9.6573 -0.11701,-0.003 -0.17654,3.59571 -0.13229,7.99771 0.0619,6.15785 0.16464,8.16733 0.4455,8.71337 0.37074,0.72078 1.21689,1.18662 2.41307,1.32849 0.3638,0.0432 0.6317,0.19752 0.59532,0.34304 -0.0958,0.38304 -7.79748,0.35392 -7.92545,-0.03 -0.0571,-0.17124 0.36431,-0.35658 1.00655,-0.44272 1.34339,-0.18019 1.7915,-0.59295 2.1034,-1.93748 0.13135,-0.56618 0.24165,-4.8093 0.24512,-9.42917 l 0.006,-8.39988 -0.94076,-1.04131 c -0.51741,-0.57272 -1.29132,-1.1183 -1.71979,-1.21241 -1.82596,-0.40105 -0.53551,-0.65822 3.3028,-0.65822 h 4.08183 l 5.59453,7.0776 c 3.07699,3.89268 5.70668,7.11785 5.84375,7.16704 0.1525,0.0547 0.22166,-2.20965 0.17819,-5.83428 -0.0821,-6.84532 -0.16399,-7.13188 -2.19354,-7.6747 -0.65034,-0.17394 -1.18243,-0.41062 -1.18243,-0.52596 0,-0.11534 1.72641,-0.2097 3.83646,-0.2097 3.7641,0 4.78797,0.25157 2.86995,0.70517 -0.56972,0.13473 -1.1943,0.53351 -1.52135,0.97134 -0.53909,0.72169 -0.55704,1.05026 -0.63215,11.57167 -0.0425,5.9559 -0.16375,10.8289 -0.2694,10.8289 -0.10565,0 -3.70227,-4.34311 -7.99249,-9.65136 z"
         id="path662" />
      <path
         style="fill:#000000;stroke-width:1"
         d="m 343.73293,165.42463 c -0.36523,-0.39513 -3.9069,-4.73668 -7.87038,-9.64801 -3.96347,-4.91132 -7.25473,-8.92968 -7.31392,-8.92968 -0.0592,0 -0.1076,3.70009 -0.1076,8.22243 v 8.22244 l 0.77339,0.77339 c 0.57308,0.57308 1.02424,0.7734 1.74184,0.7734 0.65745,0 0.93287,0.10621 0.85768,0.33073 -0.082,0.24474 -1.13112,0.33073 -4.03519,0.33073 -2.90452,0 -3.953,-0.0859 -4.03437,-0.33073 -0.0741,-0.22286 0.19447,-0.33073 0.82338,-0.33073 0.60499,0 1.1945,-0.22455 1.6757,-0.63829 l 0.74236,-0.63829 0.076,-9.31183 0.076,-9.31183 -0.67827,-0.88926 c -0.41772,-0.54765 -1.08215,-1.01026 -1.72966,-1.20426 -0.57826,-0.17325 -1.05138,-0.41522 -1.05138,-0.5377 0,-0.12249 1.87524,-0.22225 4.16719,-0.2217 l 4.16719,0.001 1.08033,1.38806 c 4.03239,5.18101 9.49786,12.05731 9.93579,12.50055 0.52087,0.52719 0.52252,0.5062 0.44189,-5.60162 -0.0803,-6.08531 -0.0857,-6.1359 -0.72706,-6.81802 -0.3768,-0.40077 -1.0661,-0.75439 -1.65364,-0.84834 -2.13031,-0.3407 -0.84909,-0.62269 2.82894,-0.62269 3.89696,0 4.78742,0.2527 2.78781,0.79114 -1.91517,0.5157 -1.86177,0.16529 -1.86177,12.2167 0,5.92538 -0.10084,10.83575 -0.2241,10.91193 -0.12325,0.0762 -0.52292,-0.18469 -0.88816,-0.5797 z"
         id="path660" />
      <path
         style="fill:#000000;stroke-width:1"
         d="m 307.16325,165.86869 c -6.13738,-0.89503 -10.34676,-6.50156 -9.87106,-13.14741 0.33158,-4.63243 3.13244,-8.50784 7.33634,-10.15092 1.81946,-0.71114 6.02444,-0.96364 8.17886,-0.49113 6.15209,1.3493 9.92071,7.01913 9.01681,13.56565 -0.74808,5.41798 -4.77034,9.47504 -10.18422,10.27233 -1.83005,0.26951 -2.33336,0.26406 -4.47673,-0.0485 z m 5.49736,-1.90931 c 1.195,-0.91147 2.20761,-2.85142 2.69935,-5.17139 0.42423,-2.00145 0.48822,-6.76035 0.12472,-9.27519 -0.29558,-2.045 -1.55706,-4.72501 -2.57548,-5.4716 -3.64712,-2.67371 -7.93505,-0.39677 -9.02098,4.79023 -1.10764,5.29071 -0.31486,11.75243 1.74177,14.19659 1.26218,1.50002 2.09079,1.84777 4.1825,1.7553 1.57429,-0.0696 2.03319,-0.20236 2.84812,-0.82394 z"
         id="path658" />
      <path
         style="fill:#000000;stroke-width:1"
         d="m 282.0161,165.86669 c -2.39348,-0.34867 -3.95452,-0.95639 -5.63144,-2.19235 -2.48117,-1.82871 -3.80267,-3.9339 -4.46576,-7.1141 -1.11966,-5.3699 1.75626,-11.13007 6.82043,-13.66067 3.19762,-1.59787 6.65678,-1.71958 10.91165,-0.38394 l 2.35266,0.73853 0.70931,-0.84965 c 0.39013,-0.46731 0.78995,-0.84965 0.88849,-0.84965 0.0985,0 0.17917,1.78594 0.17917,3.96875 0,3.35139 -0.0617,3.96875 -0.39688,3.96875 -0.21828,0 -0.39687,-0.18255 -0.39687,-0.40567 0,-0.73532 -1.29798,-2.98422 -2.26369,-3.92211 -1.34816,-1.30932 -2.62955,-1.84821 -4.6934,-1.97384 -1.60886,-0.0979 -1.97884,-0.0203 -3.52182,0.73934 -1.93753,0.95385 -2.9025,2.07071 -3.85827,4.46563 -0.51698,1.29541 -0.59709,1.98487 -0.60391,5.19769 -0.01,4.45209 0.55185,6.70831 2.12661,8.54806 1.46921,1.71644 2.7452,2.26954 5.27385,2.28604 2.63426,0.0172 4.46453,-0.75427 6.61529,-2.78837 l 1.45451,-1.37561 v 0.94193 c 0,0.78852 -0.19936,1.11742 -1.22397,2.01932 -1.62557,1.43087 -3.62892,2.34601 -5.8335,2.66474 -2.04602,0.29581 -2.26293,0.29469 -4.44246,-0.0228 z"
         id="path656" />
    </g>
  </g>
</svg>
