<?xml version="1.0" encoding="UTF-8" standalone="no"?>
<!-- Created with Inkscape (http://www.inkscape.org/) -->

<svg
   width="112.81542mm"
   height="62.413376mm"
   viewBox="0 0 112.81542 62.413376"
   version="1.1"
   id="svg2087"
   xmlns="http://www.w3.org/2000/svg"
   xmlns:svg="http://www.w3.org/2000/svg">
  <defs
     id="defs2084" />
  <g
     id="layer1"
     transform="translate(-44.270261,-85.83144)">
    <path
       style="fill:#000000;stroke-width:1"
       d="m 144.92937,128.09153 c -2.28416,-0.69692 -3.93367,-3.93448 -3.45329,-6.77787 0.35648,-2.10999 1.07278,-3.63933 3.22909,-6.89426 2.21723,-3.34689 2.24297,-2.76949 -0.35698,-8.0068 -1.32552,-2.67013 -1.42034,-2.7747 -1.7594,-1.94028 -1.41418,3.48026 -2.9821,6.26281 -4.30974,7.64841 -1.46121,1.525 -1.63833,1.60902 -3.00542,1.42566 -1.49024,-0.19989 -2.42491,-1.00526 -2.44493,-2.10671 -0.0207,-1.14001 -0.67712,-0.63342 -2.66871,2.05961 -1.51883,2.05377 -2.35437,2.8427 -3.58902,3.38884 -2.16315,0.95687 -3.56868,0.58236 -4.43531,-1.1818 -0.80301,-1.63466 -0.47799,-3.2265 1.6997,-8.32452 1.8985,-4.44445 1.96388,-4.89716 0.60365,-4.18004 -1.09107,0.57522 -4.38294,3.91846 -5.89037,5.98229 -1.08063,1.47949 -3.02237,2.50171 -4.10149,2.1592 -0.50963,-0.16174 -0.67905,-0.54073 -0.67719,-1.51485 0.003,-1.6418 1.09414,-6.22218 2.22234,-9.32994 0.47647,-1.312503 0.75271,-2.456573 0.61385,-2.542383 -0.13886,-0.0858 -1.47993,0.42418 -2.98017,1.13333 l -2.7277,1.289363 0.22379,1.62716 c 0.18476,1.34332 0.009,2.19784 -1.00741,4.89864 -2.02227,5.37345 -3.34137,6.75899 -6.47606,6.80226 -1.67034,0.023 -3.20104,-0.87287 -3.49545,-2.04587 -0.263929,-1.05159 -0.621609,-1.0663 -1.091329,-0.0449 -0.63465,1.38008 -3.63832,5.16222 -4.70014,5.9183 -0.5612,0.39961 -1.81416,0.82058 -2.78434,0.93549 -1.67808,0.19874 -1.82681,0.14606 -3.05486,-1.08199 l -1.29091,-1.29091 0.17519,-2.9019 c 0.1338,-2.2165 0.55173,-3.98511 1.76941,-7.48802 0.87682,-2.52236 1.70236,-4.84973 1.83452,-5.17194 0.21357,-0.52068 -0.10074,-0.49749 -2.82675,0.20853 -1.68688,0.43689 -3.18533,1.01801 -3.32988,1.29138 -0.14456,0.27336 -0.77374,2.64015 -1.39818,5.25953 -1.88292,7.89842 -4.08059,12.62197 -6.68404,14.3663 -1.54578,1.03569 -2.67666,1.0168 -3.75622,-0.0628 -0.75031,-0.7503 -0.86592,-1.18755 -0.86592,-3.27514 0,-1.92852 1.45883,-10.30279 3.01201,-17.2902 0.31742,-1.428013 -0.37368,-0.84323 -2.81991,2.38609 l -2.40875,3.17985 1.12244,2.43516 c 0.73698,1.59889 1.05702,2.74814 0.93194,3.34655 -0.10478,0.50126 -0.27391,1.31226 -0.37585,1.80222 -0.10193,0.48996 -0.75541,1.52184 -1.45216,2.29306 -0.98544,1.09076 -1.52327,1.40221 -2.42141,1.40221 -3.22042,0 -4.06725,-4.27477 -1.62851,-8.22073 l 0.80757,-1.30668 -1.16154,-1.85088 c -0.63884,-1.01798 -1.81266,-3.0833 -2.60848,-4.5896 l -1.44695,-2.738743 -0.82856,2.033183 c -3.4053,8.35607 -8.82575,16.12171 -12.11633,17.35852 -2.18968,0.82301 -4.47495,0.31103 -4.47495,-1.00257 0,-0.41157 0.0941,-0.43509 0.42333,-0.10583 0.5996,0.5996 2.60798,0.52462 4.03063,-0.15047 3.15755,-1.49836 8.1516,-8.99148 11.2364,-16.85921 1.44015,-3.673083 1.9727,-3.992363 3.57971,-2.146163 0.67555,0.77611 1.84477,2.284243 2.59826,3.351393 0.75349,1.06716 1.74933,2.40072 2.21298,2.96349 l 0.84301,1.0232 1.71252,-2.25793 c 0.94188,-1.24185 2.39828,-3.00519 3.23645,-3.918513 l 1.52393,-1.66058 v -3.3665 c 0,-1.85157 -0.0894,-3.3665 -0.19866,-3.3665 -0.10927,0 -2.6651,0.71437 -5.67964,1.5875 -6.40458,1.85501 -9.36664,2.08418 -11.08877,0.85792 -0.56353,-0.40127 -1.0246,-0.9815 -1.0246,-1.2894 0,-0.49254 0.0815,-0.48606 0.67818,0.0539 1.43276,1.29663 4.23026,0.99666 12.99196,-1.39311 2.47942,-0.67626 3.61598,-1.14775 3.61598,-1.50004 0,-0.28258 -0.34574,-1.12893 -0.7683,-1.88078 -0.42256,-0.75185 -0.66565,-1.46966 -0.54018,-1.59513 0.41428,-0.41427 2.03147,0.93842 2.635,2.20402 0.50475,1.05848 0.72596,1.21322 1.48536,1.03906 5.80998,-1.33245 12.3415,-2.1409 17.29645,-2.1409 3.62317,0 4.6504,0.11952 5.759059,0.67009 1.73731,0.86276 2.61571,2.11827 2.00059,2.85945 -0.62611,0.75441 -1.15151,0.65786 -0.72786,-0.13375 0.26989,-0.50428 0.20066,-0.79978 -0.29175,-1.24541 -1.62325,-1.46902 -5.893729,-1.63816 -13.795589,-0.5464 -2.81341,0.38872 -6.30151,0.87035 -7.75134,1.07031 -1.44983,0.19996 -2.70052,0.42802 -2.77931,0.50681 -0.0788,0.0788 0.0517,0.9034 0.28993,1.83247 1.2238,4.77231 0.73605,12.064323 -1.43892,21.512063 -1.14389,4.96889 -1.20509,6.56102 -0.25908,6.74027 1.59874,0.30293 4.42039,-5.05738 6.35269,-12.06824 1.63273,-5.92394 1.6782,-6.55739 0.47075,-6.55739 -1.17785,0 -2.29306,-1.17561 -2.29306,-2.417273 0,-0.55339 0.36237,-1.54558 0.80527,-2.20486 0.66804,-0.99443 1.05493,-1.21699 2.27038,-1.30607 1.91929,-0.14065 2.38481,0.60228 1.85597,2.96202 -0.20321,0.90678 -0.31311,1.705073 -0.24421,1.773963 0.0689,0.0689 1.69123,-0.27197 3.60519,-0.757493 1.91396,-0.48551 3.59211,-0.76139 3.72921,-0.61305 0.35105,0.37981 -0.25601,4.686573 -1.13063,8.021303 -0.42511,1.62083 -0.75875,4.06094 -0.78736,5.75842 -0.0423,2.51148 0.0483,3.0177 0.61446,3.43399 0.56658,0.41655 0.80677,0.41449 1.63547,-0.014 1.84332,-0.95322 4.84201,-4.73112 6.75011,-8.50414 1.316859,-2.60391 2.036049,-3.66332 2.486879,-3.66332 0.5656,0 0.63426,0.35968 0.63426,3.32254 0,4.20975 0.091,4.43857 1.76509,4.43857 1.09859,0 1.53997,-0.23137 2.47675,-1.29831 1.78243,-2.03007 3.16589,-5.26876 3.16622,-7.41212 1.5e-4,-1.00719 -0.11879,-1.90361 -0.26431,-1.99202 -0.14552,-0.0884 -1.50349,0.24733 -3.01771,0.74612 -3.14462,1.03583 -4.27969,0.87789 -5.17346,-0.71985 -0.48487,-0.86678 -0.48488,-1.06467 -1.6e-4,-1.935633 1.37342,-2.46781 5.17436,-2.85331 7.55178,-0.7659 l 1.18276,1.03847 2.58476,-1.23871 c 2.4731,-1.1852 4.27238,-1.52621 5.11143,-0.96873 0.64398,0.42787 0.8512,2.58636 0.48209,5.021683 -0.19115,1.26118 -0.44961,2.98331 -0.57436,3.82696 l -0.22682,1.5339 1.90478,-2.02879 c 2.13179,-2.2706 4.66304,-4.03763 5.78384,-4.03763 1.9157,0 2.05869,2.06576 0.51282,7.40834 -0.5895,2.03729 -1.16572,4.37885 -1.28049,5.20347 -0.20225,1.45303 -0.17855,1.49931 0.76775,1.49931 1.20472,0 2.2794,-1.10202 6.4068,-6.56977 3.29414,-4.36388 5.03548,-6.0667 7.34947,-7.18688 2.6044,-1.26078 3.33976,-1.03069 5.35021,1.67401 0.97351,1.30968 2.21816,3.06235 2.76587,3.8948 0.61008,0.92723 1.12226,1.38714 1.32217,1.18723 0.36538,-0.36538 5.35542,-6.82499 7.05572,-9.133633 0.60516,-0.82168 1.16194,-1.43231 1.2373,-1.35695 0.28958,0.28958 -3.98628,7.909393 -5.76308,10.270103 l -1.8668,2.48029 0.70214,2.10582 c 1.92701,5.77929 2.36774,10.46486 1.1758,12.5005 -1.34858,2.30316 -3.80934,3.2523 -6.39036,2.4648 z m 1.79554,-2.5948 c 1.72127,-0.71918 2.1401,-2.23689 1.64356,-5.95561 -0.44966,-3.36763 -1.00069,-5.5438 -1.40374,-5.5438 -0.47686,0 -3.36066,3.81696 -3.80132,5.03139 -0.61734,1.70131 -0.56618,4.54944 0.0988,5.49878 0.45346,0.64741 1.3842,1.26346 2.17844,1.44191 0.0547,0.0123 0.63267,-0.2004 1.28429,-0.47267 z M 68.599521,115.07884 c 0.554,-1.03517 0.41215,-2.87927 -0.32743,-4.25652 l -0.66304,-1.23472 -0.72553,1.5875 c -0.70713,1.54721 -0.97818,3.87859 -0.50585,4.35092 0.48738,0.48738 1.87068,0.20898 2.22185,-0.44718 z m 68.759029,-3.85553 c 1.24446,-1.33219 5.08545,-8.55715 4.73112,-8.8993 -0.52456,-0.50654 -2.2546,0.12388 -3.35513,1.2226 -1.92103,1.91786 -4.15317,5.68762 -4.15317,7.0141 0,0.66129 0.10584,1.30818 0.23519,1.43753 0.52276,0.52277 1.65108,0.1788 2.54199,-0.77493 z m -29.24166,-10.49386 c 0.77949,-0.31189 1.41726,-0.69448 1.41726,-0.850193 0,-0.75006 -2.23921,-2.10972 -3.47447,-2.10972 -1.65118,0 -4.02911,1.80732 -3.86478,2.937383 0.19699,1.35458 2.5703,1.36361 5.92199,0.0225 z M 84.485871,98.656557 c 0.51211,-2.46679 0.30967,-2.78933 -1.32261,-2.10732 -1.57291,0.65721 -1.44756,0.52437 -1.70382,1.80564 -0.25261,1.26307 0.52793,2.236883 1.79295,2.236883 0.72389,0 0.88383,-0.25093 1.23348,-1.935203 z"
       id="path2066" />
    <path
       style="fill:#000000;stroke-width:1"
       d="m 143.29058,138.81671 c -0.46006,-0.46006 -0.24042,-0.8305 0.49241,-0.8305 0.41055,0 0.67332,0.18491 0.59532,0.41892 -0.17185,0.51553 -0.7609,0.73842 -1.08773,0.41158 z"
       id="path2064" />
    <path
       style="fill:#000000;stroke-width:1"
       d="m 60.048961,147.5994 c -0.36665,-0.40533 -0.6442,-1.67501 -0.80816,-3.69695 -0.27342,-3.37168 0.10191,-7.76963 1.46831,-17.20513 l 0.17881,-1.23472 -1.28382,1.41111 c -0.70611,0.77611 -2.14471,2.55221 -3.1969,3.94689 -2.54463,3.37292 -2.83998,3.63783 -4.05581,3.63783 -1.74441,0 -1.90824,-0.90112 -1.37853,-7.58252 0.28749,-3.62625 0.62437,-5.9619 0.89192,-6.18395 0.60367,-0.501 1.39315,-0.11431 1.96907,0.96445 0.66326,1.24236 0.57735,7.14282 -0.13631,9.36244 -0.29633,0.92163 -0.41541,1.67569 -0.26461,1.67569 0.15079,0 1.27066,-1.30969 2.48858,-2.91042 3.50751,-4.60993 5.70876,-6.32901 6.75917,-5.2786 0.44099,0.44099 0.47287,4.13382 0.12018,13.92166 -0.14508,4.02608 -0.17285,7.32014 -0.0617,7.32014 0.3525,0 2.84384,-3.91535 5.16289,-8.11389 4.48751,-8.12443 4.95371,-8.87475 5.41808,-8.71995 0.60807,0.20268 0.86305,1.58992 0.90109,4.90239 0.0261,2.27726 0.17719,3.20363 0.58953,3.61597 1.43681,1.43681 4.14954,-0.0732 5.36505,-2.98643 0.66798,-1.60096 0.78315,-2.42132 0.6802,-4.84539 -0.0682,-1.60498 -0.30694,-3.10115 -0.53062,-3.32482 -0.30705,-0.30705 -0.88245,-0.17371 -2.34879,0.54429 -3.55561,1.74101 -5.48409,1.57486 -5.48409,-0.47249 0,-0.84898 0.28035,-1.19535 1.58761,-1.96145 2.12553,-1.24565 4.02921,-1.48061 5.40612,-0.66725 1.05482,0.6231 1.08587,0.61949 2.24143,-0.26033 1.68755,-1.28488 4.00876,-2.4051 4.98361,-2.4051 0.46273,0 1.12789,0.31665 1.47813,0.70367 0.55305,0.61111 0.60759,1.11521 0.41468,3.83285 -0.12216,1.72106 -0.31367,3.42847 -0.42557,3.79425 -0.1466,0.47923 -0.0254,0.42118 0.43374,-0.20772 2.08191,-2.85167 2.90758,-3.78881 3.96744,-4.50305 2.76541,-1.86361 3.64357,-0.49948 2.69605,4.18804 -0.35179,1.74036 -0.56784,3.23606 -0.48012,3.32379 0.0877,0.0877 1.09066,-1.15074 2.22875,-2.75214 1.13809,-1.6014 2.67705,-3.65391 3.419899,-4.56115 1.48142,-1.80922 4.0841,-3.29373 5.17026,-2.949 1.54737,0.49112 1.56653,3.44759 0.0504,7.77352 -0.40802,1.16417 -0.97697,3.46604 -1.26433,5.11528 -0.28737,1.64923 -0.62269,3.31611 -0.74515,3.70417 -0.53209,1.68603 -0.18665,3.36359 0.68769,3.33965 0.64231,-0.0176 1.72215,-1.0341 3.00348,-2.82733 1.1276,-1.57807 1.13698,-1.62315 0.57305,-2.75358 -1.00077,-2.00608 0.11248,-5.31964 2.48797,-7.40534 1.40785,-1.23611 1.61931,-1.30149 2.231,-0.68979 0.82709,0.82708 0.46432,2.98727 -0.96575,5.75081 -1.04447,2.01839 -1.27117,2.72959 -0.91378,2.86674 1.18163,0.45343 3.59594,-1.65652 6.71205,-5.86589 3.33611,-4.50656 5.8144,-6.62369 7.22832,-6.17493 1.3305,0.42228 1.66091,3.08023 0.81145,6.52771 -0.16373,0.6645 0.53808,0.12776 2.84647,-2.17696 4.21531,-4.20861 7.18215,-5.47442 9.32053,-3.97665 1.18485,0.82991 1.04056,3.3744 -0.46899,8.27028 -1.22793,3.98247 -2.2321,9.33246 -1.82759,9.73696 0.51423,0.51423 1.76938,-0.42859 3.24242,-2.43558 2.27018,-3.09306 2.42143,-3.25588 2.58073,-2.77798 0.21691,0.65073 -2.3892,4.67229 -4.21281,6.5009 -1.45413,1.45812 -1.86004,1.6757 -3.12616,1.6757 -1.13784,0 -1.67985,-0.22481 -2.48624,-1.0312 -1.93203,-1.93202 -1.25533,-5.50665 2.60968,-13.78547 0.67937,-1.45521 1.34639,-3.24115 1.48226,-3.96875 0.2174,-1.16415 0.16375,-1.32292 -0.44704,-1.32292 -1.16075,0 -3.59357,2.14143 -8.15628,7.1794 -3.65053,4.03075 -4.45126,4.74871 -4.98039,4.46553 -1.18771,-0.63564 -1.11237,-1.86631 0.35217,-5.75272 1.30223,-3.45571 1.77468,-5.89465 1.14104,-5.89045 -0.59518,0.004 -2.2716,1.77115 -4.68351,4.93713 -4.47361,5.87226 -5.87138,7.05351 -8.35175,7.05797 -1.13307,0.002 -1.46938,0.19175 -2.17393,1.22636 -1.61224,2.36751 -4.11662,4.4115 -5.40864,4.41435 -0.32873,7.1e-4 -1.01144,-0.35586 -1.51713,-0.79243 -2.017829,-1.74197 -1.504429,-5.80776 1.80313,-14.27968 1.52395,-3.90341 1.86025,-5.38768 1.2207,-5.38768 -0.59823,0 -2.4454,1.77569 -3.77808,3.63187 -5.326859,7.41934 -5.803169,7.89672 -7.308199,7.3245 -1.31393,-0.49955 -1.38078,-1.32795 -0.41456,-5.13692 0.485,-1.91192 0.7889,-3.56689 0.67533,-3.6777 -0.33414,-0.32602 -2.12065,2.01324 -4.20486,5.50582 -1.06811,1.78987 -2.10195,3.35315 -2.29741,3.47396 -0.19547,0.1208 -0.82777,0.11589 -1.40512,-0.0109 -0.94625,-0.20783 -1.04972,-0.36658 -1.04972,-1.61053 0,-0.75899 0.41188,-3.29782 0.91531,-5.64185 0.50342,-2.34403 0.83084,-4.34634 0.7276,-4.44958 -0.10324,-0.10323 -1.31745,0.42249 -2.69825,1.16829 -2.10495,1.13694 -2.47577,1.47057 -2.29537,2.06523 0.58323,1.92248 0.58849,5.16755 0.0126,7.75619 -0.5319,2.39079 -0.80592,2.92927 -2.24974,4.42095 -1.37844,1.42414 -1.92616,1.74032 -3.39002,1.9569 -1.25364,0.18547 -1.9997,0.11769 -2.64584,-0.2404 -1.3206,-0.73187 -2.20652,-2.66432 -2.0011,-4.36497 0.15892,-1.31561 0.13483,-1.36336 -0.35595,-0.70556 -0.28952,0.38806 -1.24729,2.13431 -2.12837,3.88056 -4.37616,8.67332 -6.55286,11.04739 -8.32882,9.08403 z m 50.814399,-13.93472 c 0.75796,-1.6203 1.36289,-4.49792 0.94555,-4.49792 -0.80065,0 -2.27476,3.11417 -2.27476,4.80559 0,1.61119 0.48399,1.49917 1.32921,-0.30767 z m -33.573689,-7.66301 c 1.31061,-0.59425 2.21515,-1.20554 2.0881,-1.41111 -0.37345,-0.60426 -2.94596,-0.40701 -4.40596,0.33783 -1.62349,0.82824 -2.04538,1.38025 -1.378,1.80297 0.7615,0.48233 1.22436,0.39094 3.69586,-0.72969 z"
       id="path2062" />
  </g>
</svg>
