<?xml version="1.0" encoding="UTF-8" standalone="no"?>
<!-- Created with Inkscape (http://www.inkscape.org/) -->

<svg
   width="111.3269mm"
   height="42.266975mm"
   viewBox="0 0 111.3269 42.266975"
   version="1.1"
   id="svg2332"
   xmlns="http://www.w3.org/2000/svg"
   xmlns:svg="http://www.w3.org/2000/svg">
  <defs
     id="defs2329" />
  <g
     id="layer1"
     transform="translate(-21.103493,-134.91736)">
    <path
       style="fill:#000000;stroke-width:1"
       d="m 127.13874,143.03123 c 0,-0.19402 0.24749,-0.35277 0.54998,-0.35277 0.3025,0 0.45188,0.15875 0.33196,0.35277 -0.11991,0.19403 -0.36741,0.35278 -0.54999,0.35278 -0.18257,0 -0.33195,-0.15875 -0.33195,-0.35278 z"
       id="path2060" />
    <path
       style="fill:#000000;stroke-width:1"
       d="m 112.56946,143.64859 c -0.56145,-0.4175 -1.42958,-4.67777 -1.07562,-5.2786 0.19429,-0.32981 2.55011,-0.97872 3.56226,-0.98123 1.35622,-0.004 0.87068,0.60036 -0.6465,0.80386 -1.79735,0.24108 -1.85678,0.30496 -1.55628,1.6731 0.24315,1.10703 0.26208,1.11585 1.88565,0.87814 1.89454,-0.27737 1.68563,0.27242 -0.30023,0.79016 -0.94474,0.24631 -1.20614,0.48064 -1.11299,0.99775 0.17134,0.95127 0.24254,0.97874 1.44775,0.5586 1.19212,-0.41557 1.48237,0.0515 0.39398,0.63401 -0.91326,0.48876 -1.87661,0.46066 -2.59802,-0.0758 z"
       id="path2058" />
    <path
       style="fill:#000000;stroke-width:1"
       d="m 103.0112,143.53155 c -0.11777,-0.30691 -0.21413,-1.08082 -0.21413,-1.7198 0,-0.63897 -0.0967,-1.64508 -0.2148,-2.23578 -0.19994,-0.99969 -0.3037,-1.06329 -1.49931,-0.91897 l -1.2845,0.15505 1.53637,-0.71391 c 1.8778,-0.87255 5.14245,-1.32092 5.49261,-0.75435 0.15986,0.25867 -0.11925,0.39578 -0.8057,0.39578 -2.13946,0 -2.22038,0.14041 -1.95631,3.39484 0.20465,2.52226 0.16069,2.95516 -0.30016,2.95516 -0.29696,0 -0.6363,-0.25111 -0.75407,-0.55802 z"
       id="path2056" />
    <path
       style="fill:#000000;stroke-width:1"
       d="m 110.02367,143.35237 c -0.21255,-1.25806 -0.34071,-1.41673 -1.00115,-1.23954 -0.41657,0.11177 -0.95583,0.20538 -1.19837,0.20803 -0.24253,0.003 -0.44097,0.32232 -0.44097,0.71037 0,0.89784 -0.57105,0.91051 -1.04592,0.0232 -0.5865,-1.09587 -0.46856,-3.90373 0.16398,-3.90373 0.29104,0 0.52916,0.30452 0.52916,0.6767 0,1.28505 0.41101,1.79274 1.45132,1.79274 h 1.02305 l -0.22615,-2.43335 c -0.22676,-2.43979 -0.007,-4.26943 0.51245,-4.26943 0.23424,0 1.50497,8.09872 1.48067,9.43681 -0.004,0.24253 -0.23218,0.44097 -0.50616,0.44097 -0.30809,0 -0.59117,-0.55048 -0.74191,-1.44275 z"
       id="path2054" />
    <path
       style="fill:#000000;stroke-width:1"
       d="m 84.94827,144.05179 c -0.89462,-0.98952 -0.91328,-4.2819 -0.0293,-5.1659 0.90405,-0.90404 1.70976,-0.21009 2.48376,2.13924 0.84322,2.55941 0.59099,3.76999 -0.7855,3.76999 -0.56601,0 -1.28743,-0.3213 -1.66898,-0.74333 z m 1.96455,-0.93236 c -0.005,-0.53358 -0.29805,-1.60514 -0.65102,-2.38125 l -0.64177,-1.41111 -0.25721,1.1386 c -0.26401,1.16864 -0.0361,2.40371 0.58728,3.18292 0.57756,0.72191 0.97257,0.50478 0.96272,-0.52916 z"
       id="path2052" />
    <path
       style="fill:#000000;stroke-width:1"
       d="m 89.06797,143.36665 c -0.47145,-2.1983 -0.49391,-4.45795 -0.0471,-4.73412 0.18422,-0.11386 0.4315,0.39271 0.54949,1.12571 0.118,0.73299 0.30848,1.72959 0.4233,2.21466 0.19488,0.82329 0.23569,0.79169 0.61371,-0.47512 0.74946,-2.51158 1.84646,-2.38701 2.78225,0.31595 0.72537,2.09518 1.16563,1.84751 1.42001,-0.79883 0.26458,-2.75251 0.54965,-3.98089 0.92383,-3.98089 0.47252,0 -0.0348,6.84134 -0.54742,7.38271 -0.71414,0.75412 -2.0874,-0.013 -2.92733,-1.63519 l -0.69267,-1.3378 -0.25079,1.85209 c -0.21958,1.62161 -0.35124,1.85208 -1.05805,1.85208 -0.68414,0 -0.86553,-0.27167 -1.18927,-1.78125 z"
       id="path2050" />
    <path
       style="fill:#000000;stroke-width:1"
       d="m 124.12212,144.27729 c -0.28114,-0.67287 -0.51116,-1.45725 -0.51116,-1.74307 0,-0.28583 -0.15875,-0.61779 -0.35278,-0.73771 -0.19403,-0.11992 -0.35278,0.0959 -0.35278,0.4795 0,2.66312 -1.4498,2.43981 -3.43745,-0.52948 -0.3807,-0.56871 -0.4348,-0.44523 -0.40826,0.93193 0.0429,2.22623 0.0316,2.25823 -0.60761,1.7277 -0.46532,-0.38619 -0.53288,-0.90246 -0.36015,-2.75221 0.11694,-1.25227 0.35516,-2.41941 0.52939,-2.59363 0.36034,-0.36034 1.44976,1.07171 2.14862,2.82439 0.25145,0.63059 0.58845,1.14652 0.7489,1.14652 0.16045,0 0.56101,-0.95972 0.89013,-2.13271 0.83982,-2.99307 1.50144,-2.73508 2.30287,0.89799 0.34241,1.55222 0.63167,3.02066 0.64279,3.2632 0.0411,0.89671 -0.73742,0.40248 -1.23251,-0.78242 z"
       id="path2048" />
    <path
       style="fill:#000000;stroke-width:1"
       d="m 58.5612,144.94266 c -0.30621,-0.79798 -0.25469,-4.82922 0.0682,-5.33733 0.44316,-0.69732 2.77056,-1.51559 4.20424,-1.47811 l 1.33424,0.0349 -1.45866,0.46013 c -2.33455,0.7364 -2.95106,1.18104 -2.95106,2.12835 0,0.97256 0.006,0.97421 1.87048,0.54134 1.85028,-0.4295 1.54665,0.30628 -0.39322,0.9529 -1.28428,0.4281 -1.47726,0.62683 -1.47726,1.52136 0,1.26857 0.33586,1.2836 2.1314,0.0954 1.8244,-1.20733 2.13257,-0.88727 0.51401,0.53385 -1.41452,1.24197 -3.4638,1.53384 -3.84239,0.54726 z"
       id="path2046" />
    <path
       style="fill:#000000;stroke-width:1"
       d="m 30.71281,145.26549 c -0.12936,-0.12935 -0.25183,-1.04216 -0.27218,-2.02847 l -0.037,-1.79329 -0.43557,1.41111 c -0.23956,0.77612 -0.67859,1.45848 -0.97562,1.51637 -0.52997,0.10329 -2.39538,-1.78549 -2.39538,-2.42538 0,-0.17914 -0.15875,-0.32571 -0.35278,-0.32571 -0.19403,0 -0.35278,0.79375 -0.35278,1.76389 0,1.30061 -0.13352,1.76389 -0.50835,1.76389 -0.27959,0 -0.60552,-0.15723 -0.72429,-0.34941 -0.25567,-0.41367 0.51845,-5.77069 0.92887,-6.42793 0.34939,-0.55951 1.26394,0.60964 2.10706,2.69362 0.31271,0.77295 0.71176,1.45309 0.88676,1.51142 0.17501,0.0583 0.59108,-0.66224 0.9246,-1.60129 0.71567,-2.01502 2.25739,-3.85381 2.78709,-3.32412 0.22486,0.22486 0.26248,1.72229 0.10305,4.10231 -0.21376,3.19115 -0.34004,3.74818 -0.84969,3.74818 -0.32924,0 -0.70445,-0.10584 -0.8338,-0.23519 z"
       id="path2044" />
    <path
       style="fill:#000000;stroke-width:1"
       d="m 70.76484,145.43012 c -0.45277,-0.45277 -0.58634,-5.02339 -0.20284,-6.9409 0.33979,-1.69897 0.83784,-1.30577 0.83784,0.66146 0,0.97014 0.0923,1.76389 0.20522,1.76389 0.11286,0 0.86693,-0.53464 1.67569,-1.18809 0.80877,-0.65345 1.82767,-1.37341 2.26423,-1.59991 1.47416,-0.76485 0.80679,0.22394 -1.14652,1.69871 -1.06716,0.80571 -1.94028,1.56177 -1.94028,1.68014 0,0.11837 0.98524,0.11224 2.18941,-0.0136 1.58083,-0.16523 2.08248,-0.1219 1.8047,0.15589 -0.2116,0.2116 -1.35559,0.47276 -2.5422,0.58036 l -2.15747,0.19562 v 1.71489 c 0,1.74557 -0.23131,2.04802 -0.98778,1.29156 z"
       id="path2042" />
    <path
       style="fill:#000000;stroke-width:1"
       d="m 53.99386,145.00826 c -0.30459,-0.46486 -0.65793,-1.26012 -0.78521,-1.76723 -0.38212,-1.52249 -0.76506,-1.36557 -1.21178,0.49657 -0.36186,1.50842 -0.54526,1.76308 -1.26971,1.76308 -0.82741,0 -0.84676,-0.0685 -0.84676,-2.99861 0,-3.30101 0.50124,-4.00275 0.88194,-1.23473 0.13343,0.97014 0.35456,1.76389 0.49141,1.76389 0.13684,0 0.44972,-0.55562 0.69528,-1.23472 0.24557,-0.6791 0.65317,-1.23472 0.90578,-1.23472 0.25261,0 0.82012,0.83344 1.26113,1.85208 l 0.80182,1.85209 0.46586,-2.61413 c 0.71991,-4.03973 1.28213,-4.05732 1.01324,-0.0317 -0.12312,1.84326 -0.28534,3.54983 -0.36047,3.79236 -0.22816,0.73641 -1.45413,0.49378 -2.04253,-0.40423 z"
       id="path2040" />
    <path
       style="fill:#000000;stroke-width:1"
       d="m 77.69502,144.70693 c -0.0981,-2.68136 0.10477,-5.37239 0.43031,-5.70912 0.17507,-0.1811 0.36401,-0.26047 0.41986,-0.17639 2.61316,3.93368 3.30841,4.90004 3.53035,4.90697 0.14782,0.005 0.16825,-0.62014 0.0454,-1.38836 -0.26489,-1.65647 0.15347,-6.71713 0.5553,-6.71713 0.43315,0 0.6605,8.95221 0.23455,9.2358 -0.53931,0.35906 -1.67135,-0.31967 -2.95084,-1.76922 l -1.14129,-1.29297 -0.005,2.20486 c -0.004,1.72236 -0.12105,2.20486 -0.53442,2.20486 -0.37876,0 -0.54475,-0.42614 -0.58399,-1.4993 z"
       id="path2038" />
    <path
       style="fill:#000000;stroke-width:1"
       d="m 33.15375,145.90247 c -0.24372,-0.39435 0.30606,-3.33963 1.07615,-5.76514 0.61606,-1.94036 1.556,-2.45438 2.66872,-1.45942 1.09941,0.98306 2.04567,3.49984 2.04567,5.44091 0,2.46091 -0.69407,2.25427 -1.54364,-0.45957 -0.17082,-0.54567 -0.30679,-0.55769 -1.35162,-0.11952 -0.82831,0.34738 -1.21309,0.77336 -1.34079,1.48435 -0.17764,0.98898 -1.14746,1.53699 -1.55449,0.87839 z m 3.98939,-3.44217 c 0.0765,-0.0654 -0.14676,-0.86747 -0.49618,-1.7824 -0.69092,-1.80916 -0.87796,-1.66744 -1.37476,1.04168 -0.2422,1.32073 -0.2347,1.33179 0.74357,1.0969 0.54353,-0.1305 1.05085,-0.29078 1.12737,-0.35618 z"
       id="path2036" />
    <path
       style="fill:#000000;stroke-width:1"
       d="m 41.36645,149.46943 c -0.026,-0.14552 -0.0106,-1.47635 0.0342,-2.95739 0.0779,-2.57405 0.0255,-2.77416 -1.18744,-4.5375 -1.34318,-1.95264 -1.46886,-2.30588 -0.93735,-2.63437 0.18237,-0.11271 0.76959,0.34401 1.30494,1.01494 1.04551,1.3103 1.53848,1.33849 1.53848,0.088 0,-0.88093 0.91069,-2.35074 1.4565,-2.35074 0.36025,0 0.28739,1.14559 -0.4263,6.70278 -0.58029,4.51846 -0.68436,4.93889 -1.22257,4.93889 -0.28225,0 -0.53446,-0.11906 -0.56046,-0.26458 z"
       id="path2034" />
    <path
       style="fill:#000000;stroke-width:1"
       d="m 118.67207,156.08401 c 0,-0.19403 0.23812,-0.35278 0.52917,-0.35278 0.29104,0 0.52916,0.15875 0.52916,0.35278 0,0.19403 -0.23812,0.35278 -0.52916,0.35278 -0.29105,0 -0.52917,-0.15875 -0.52917,-0.35278 z"
       id="path2032" />
    <path
       style="fill:#000000;stroke-width:1"
       d="m 109.49985,157.54327 c 0,-2.5582 1.46022,-6.39464 1.88843,-4.96147 0.66657,2.23091 1.42016,3.86926 1.73194,3.76533 0.20552,-0.0685 0.59107,-0.87011 0.85677,-1.78134 0.64556,-2.21394 1.67044,-2.30749 2.23681,-0.20416 0.44902,1.66753 0.5527,3.39276 0.22367,3.7218 -0.25606,0.25605 -1.29318,-2.04569 -1.29318,-2.87003 0,-1.03335 -0.62845,-0.53296 -0.85635,0.68185 -0.12612,0.67229 -0.38333,1.31753 -0.57158,1.43388 -0.63826,0.39447 -1.7008,-0.21586 -2.15254,-1.23641 -0.58604,-1.32396 -1.00564,-1.02451 -1.00564,0.71767 0,1.00063 -0.14831,1.39029 -0.52917,1.39029 -0.29104,0 -0.52916,-0.29583 -0.52916,-0.65741 z"
       id="path2030" />
    <path
       style="fill:#000000;stroke-width:1"
       d="m 93.50725,157.96549 c -0.12935,-0.12935 -0.23518,-1.31997 -0.23518,-2.64583 v -2.41065 h -1.23472 c -0.6791,0 -1.23473,-0.15263 -1.23473,-0.33918 0,-0.48866 2.64832,-1.13048 4.14128,-1.00364 1.49515,0.12704 1.96399,0.84882 0.53779,0.82793 -0.96954,-0.0142 -0.97511,-7e-4 -1.014,2.45517 -0.0215,1.35819 -0.0612,2.66788 -0.0882,2.91042 -0.0532,0.47803 -0.49561,0.58241 -0.87224,0.20578 z"
       id="path2028" />
    <path
       style="fill:#000000;stroke-width:1"
       d="m 82.33312,157.66809 c -0.42984,-0.51792 -0.55245,-4.49879 -0.15821,-5.13667 0.27687,-0.44799 2.61589,-1.0293 4.15062,-1.03155 1.9518,-0.003 1.26661,0.61317 -0.99652,0.89593 -1.92414,0.24041 -1.93472,0.24839 -1.93472,1.45958 0,1.29792 -0.13692,1.2596 2.1584,0.60411 1.28853,-0.36797 0.56432,0.69976 -0.77379,1.14085 -1.22145,0.40262 -1.7484,1.27553 -1.03585,1.71591 0.2133,0.13183 0.77213,-0.0121 1.24184,-0.31988 1.32996,-0.87143 1.87339,-0.63634 0.77098,0.33351 -1.11499,0.98092 -2.75487,1.14296 -3.42275,0.33821 z"
       id="path2026" />
    <path
       style="fill:#000000;stroke-width:1"
       d="m 67.01013,157.41663 c -0.58158,-0.83032 -0.75018,-3.99752 -0.25439,-4.77865 0.54058,-0.85168 4.6441,-1.58273 4.6441,-0.82736 0,0.172 -0.71437,0.41985 -1.5875,0.55079 -1.47937,0.22184 -1.5875,0.31078 -1.5875,1.30578 0,1.0598 0.0111,1.06586 1.49129,0.81578 1.32831,-0.22442 1.44117,-0.19157 1.03271,0.30059 -0.25221,0.30389 -0.80423,0.60176 -1.2267,0.66191 -0.48468,0.069 -0.80973,0.40228 -0.88086,0.90313 -0.12369,0.87088 0.30716,0.99771 1.40086,0.41239 1.01445,-0.54292 1.19322,-0.15971 0.32877,0.70474 -0.98691,0.9869 -2.65218,0.96258 -3.36078,-0.0491 z"
       id="path2024" />
    <path
       style="fill:#000000;stroke-width:1"
       d="m 104.48695,158.18036 c -0.57062,-0.33266 -0.71242,-0.83127 -1.11499,-3.92079 -0.16068,-1.23313 -0.102,-1.32201 1.2228,-1.85209 1.51287,-0.60533 2.94365,-0.74059 2.64019,-0.24959 -0.10443,0.16897 -0.64937,0.39911 -1.21099,0.51144 -1.08391,0.21678 -1.57504,0.94833 -1.23376,1.83769 0.19621,0.51133 0.58005,0.49409 2.15201,-0.0967 0.24253,-0.0911 0.44097,-2.6e-4 0.44097,0.20196 0,0.20223 -0.55614,0.56879 -1.23587,0.81459 -1.00782,0.36443 -1.19502,0.58021 -1.01451,1.16936 0.33101,1.08033 0.44226,1.11352 1.5676,0.46766 1.32671,-0.76142 1.47532,0.0619 0.16602,0.91979 -0.99402,0.65131 -1.52439,0.69514 -2.37947,0.19664 z"
       id="path2022" />
    <path
       style="fill:#000000;stroke-width:1"
       d="m 100.67167,157.64855 c -0.18923,-0.4977 -0.34405,-1.06339 -0.34405,-1.25708 0,-0.19369 -0.51593,-0.30242 -1.14652,-0.24162 -0.95535,0.0921 -1.16514,0.27232 -1.25816,1.08069 -0.0614,0.53358 -0.25681,0.97014 -0.43425,0.97014 -0.47183,0 -0.75135,-1.42297 -0.62386,-3.17588 0.13004,-1.78793 0.99335,-2.42592 0.99335,-0.73407 0,1.10626 0.25444,1.24667 1.60281,0.88443 0.64484,-0.17323 0.70836,-0.42387 0.60223,-2.37643 -0.10728,-1.97371 0.283,-3.51649 0.76712,-3.03238 0.38935,0.38935 1.33164,7.0472 1.11792,7.89875 -0.28655,1.14169 -0.83895,1.13452 -1.27659,-0.0165 z"
       id="path2020" />
    <path
       style="fill:#000000;stroke-width:1"
       d="m 38.8267,158.31827 c -0.12936,-0.12935 -0.23519,-1.31997 -0.23519,-2.64583 0,-3.58789 -1.01078,-3.02808 -1.59755,0.88478 -0.20988,1.39958 -0.36497,1.64346 -1.04514,1.64346 -0.96691,0 -1.36202,-0.45795 -1.93873,-2.24707 -0.49846,-1.54635 -0.88467,-1.26375 -1.25309,0.91693 -0.19095,1.13022 -0.3594,1.33014 -1.12075,1.33014 -0.84859,0 -0.88402,-0.0751 -0.66916,-1.41878 0.12478,-0.78033 0.50226,-2.24877 0.83884,-3.2632 0.58045,-1.74943 0.67465,-1.84441 1.82921,-1.84441 1.14392,0 1.24859,0.10093 1.73763,1.67569 0.28622,0.92164 0.61158,1.66994 0.72304,1.66291 0.11145,-0.007 0.52014,-0.68171 0.9082,-1.4993 1.37798,-2.90324 3.35139,-1.77591 3.35139,1.91451 0,1.10513 -0.0964,2.26043 -0.21413,2.56734 -0.22006,0.57346 -0.89757,0.73984 -1.31457,0.32283 z"
       id="path2018" />
    <path
       style="fill:#000000;stroke-width:1"
       d="m 58.93808,158.45396 c -0.71385,-0.53692 -1.26728,-6.00894 -0.64653,-6.39258 0.24688,-0.15258 0.53882,0.34801 0.79402,1.3615 0.43246,1.71743 0.83033,2.03402 1.1276,0.89724 0.13323,-0.50948 0.4812,-0.70555 1.2521,-0.70555 0.75776,0 1.13258,0.20476 1.29152,0.70555 0.25864,0.81489 0.88194,0.95128 0.88194,0.19299 0,-0.72925 0.76293,-2.30965 1.11497,-2.30965 0.34608,0 0.38714,3.10649 0.0667,5.04577 -0.19645,1.18878 -0.32534,1.32942 -1.13152,1.23472 -0.9149,-0.10748 -1.46163,-0.83633 -2.19721,-2.9291 -0.44611,-1.26923 -0.81557,-0.80637 -1.19529,1.49745 -0.28362,1.72085 -0.55778,2.00376 -1.35829,1.40166 z"
       id="path2016" />
    <path
       style="fill:#000000;stroke-width:1"
       d="m 76.02047,158.14846 c -0.21301,-0.61104 -0.38729,-2.18052 -0.38729,-3.48774 v -2.37676 l 1.14653,-0.23318 c 3.06819,-0.62397 3.43088,-0.63285 3.63956,-0.089 0.11392,0.29688 0.0298,0.87118 -0.18701,1.27624 -0.34122,0.63757 -0.27381,0.7822 0.502,1.07717 0.49288,0.18739 0.89614,0.44538 0.89614,0.57332 0,0.45703 -4.22593,4.37096 -4.7194,4.37096 -0.27678,0 -0.67752,-0.49994 -0.89053,-1.11097 z m 2.61132,-1.71125 c 0.56357,-0.62274 0.57145,-0.70556 0.0671,-0.70556 -0.31429,0 -0.74135,0.3175 -0.94904,0.70556 -0.20768,0.38806 -0.23787,0.70556 -0.0671,0.70556 0.17078,0 0.59784,-0.3175 0.94903,-0.70556 z m -0.18176,-2.20528 c 1.6269,-1.78836 1.30469,-2.66493 -0.53621,-1.45873 -0.5916,0.38763 -0.86953,0.89504 -0.86953,1.5875 0,0.55976 0.0816,1.01776 0.18136,1.01776 0.0998,0 0.65072,-0.51594 1.22438,-1.14653 z"
       id="path2014" />
    <path
       style="fill:#000000;stroke-width:1"
       d="m 41.32554,159.01625 c -0.80361,-0.21 -0.78529,-0.4134 0.37529,-4.16654 l 0.98181,-3.175 1.31597,-0.1101 c 1.25415,-0.10492 1.34876,-0.036 2.01375,1.46734 0.941,2.1273 1.26859,4.65204 0.69351,5.34497 -0.55521,0.66899 -1.41158,0.0911 -1.41158,-0.9526 0,-0.59474 -0.15885,-0.65593 -1.14653,-0.44165 -1.23729,0.26843 -1.66181,0.69018 -1.67029,1.6594 -0.005,0.6309 -0.0787,0.65466 -1.15193,0.37418 z m 3.40923,-4.25473 c -0.13128,-0.72761 -0.31515,-1.45582 -0.40858,-1.61824 -0.28239,-0.49093 -0.69643,0.21782 -0.94538,1.61824 -0.22198,1.24878 -0.18394,1.32291 0.67876,1.32291 0.86333,0 0.9007,-0.0732 0.6752,-1.32291 z"
       id="path2012" />
    <path
       style="fill:#000000;stroke-width:1"
       d="m 50.04738,162.77199 c -0.13775,-0.22289 -0.14718,-1.3181 -0.021,-2.43381 0.2262,-1.9993 0.20597,-2.06052 -1.40296,-4.2461 -1.21641,-1.65238 -1.51636,-2.2893 -1.17691,-2.4991 0.63686,-0.3936 1.57999,0.19126 2.31507,1.43566 0.34302,0.58069 0.73847,1.05579 0.87877,1.05579 0.14031,0 0.36584,-0.75406 0.50119,-1.67569 0.31902,-2.17235 0.73671,-3.2632 1.24948,-3.2632 0.30008,0 0.3584,1.02665 0.21544,3.79236 -0.26941,5.21202 -1.62153,9.35116 -2.55913,7.83409 z"
       id="path2010" />
    <path
       style="fill:#000000;stroke-width:1"
       d="m 117.61374,170.52124 c 0,-0.33452 1.45964,-1.03125 2.16045,-1.03125 0.65659,0 -0.0391,0.63489 -1.10147,1.00524 -0.66838,0.233 -1.05898,0.24259 -1.05898,0.026 z"
       id="path2008" />
    <path
       style="fill:#000000;stroke-width:1"
       d="m 131.90124,172.31221 c -0.11992,-0.19403 -0.0499,-0.35278 0.15557,-0.35278 0.20547,0 0.37359,0.15875 0.37359,0.35278 0,0.19403 -0.07,0.35278 -0.15556,0.35278 -0.0856,0 -0.25369,-0.15875 -0.3736,-0.35278 z"
       id="path2006" />
    <path
       style="fill:#000000;stroke-width:1"
       d="m 21.15435,172.35321 c -0.10597,-0.17148 -0.0409,-1.48116 0.14468,-2.91042 0.18555,-1.42925 0.34226,-2.78574 0.34825,-3.01442 0.0152,-0.58118 1.01894,-1.5245 1.62211,-1.5245 0.31438,0 0.72599,0.80386 1.09949,2.14729 l 0.597,2.14729 0.82235,-1.61812 c 0.63886,-1.25706 1.01488,-1.61813 1.68513,-1.61813 1.12113,0 1.68977,1.08302 1.79974,3.42778 0.12023,2.56359 -0.13185,3.33581 -1.04633,3.20531 -0.66833,-0.0954 -0.75904,-0.36903 -0.85392,-2.57614 -0.0584,-1.3582 -0.23969,-2.60313 -0.4029,-2.76651 -0.33389,-0.33427 -0.91127,1.30041 -1.26456,3.58029 -0.20076,1.29551 -0.34702,1.50339 -0.9929,1.41111 -0.45657,-0.0652 -0.99672,-0.5987 -1.35977,-1.34295 -0.58317,-1.19546 -0.60286,-1.20479 -0.61927,-0.29344 -0.009,0.51771 -0.1133,1.1924 -0.23107,1.49931 -0.23167,0.60372 -1.03626,0.7507 -1.34803,0.24625 z"
       id="path2004" />
    <path
       style="fill:#000000;stroke-width:1"
       d="m 56.89534,172.43961 c -0.27268,-0.32855 -0.53201,-1.66102 -0.60078,-3.0868 l -0.12101,-2.5087 1.52773,-0.59805 c 2.02727,-0.7936 4.73014,-1.16313 5.02444,-0.68694 0.21083,0.34112 -0.48726,0.59843 -3.40851,1.25633 -0.73894,0.16641 -0.97014,0.42707 -0.97014,1.09371 0,1.00944 0.27722,1.06366 1.92283,0.37608 0.65704,-0.27453 1.28136,-0.41241 1.38737,-0.30639 0.45465,0.45464 -0.60813,1.51876 -1.90485,1.90727 -0.97749,0.29286 -1.40535,0.61886 -1.40535,1.07077 0,0.82414 0.17863,0.81489 1.63405,-0.0846 1.51432,-0.9359 1.52648,-0.43754 0.0248,1.0179 -1.28176,1.24234 -2.37526,1.43548 -3.11062,0.54943 z"
       id="path2002" />
    <path
       style="fill:#000000;stroke-width:1"
       d="m 29.89745,172.48284 c -0.11289,-0.29418 -0.0804,-1.44512 0.0722,-2.55764 0.1526,-1.11252 0.25362,-2.1308 0.22448,-2.26286 -0.0926,-0.41953 2.07583,-2.05296 2.72532,-2.05296 1.11398,0 1.84137,1.26169 2.14667,3.7235 0.1613,1.30065 0.20977,2.58245 0.1077,2.84844 -0.2789,0.7268 -1.20893,0.58134 -1.41899,-0.22194 -0.28806,-1.10155 -2.0765,-0.96809 -2.36375,0.17639 -0.24406,0.97242 -1.17102,1.18781 -1.49364,0.34707 z m 3.2582,-3.753 c -0.1289,-0.80611 -0.32778,-1.61681 -0.44196,-1.80156 -0.34892,-0.56455 -0.81381,0.53836 -0.81956,1.9443 -0.005,1.11591 0.11206,1.32291 0.74525,1.32291 0.68282,0 0.72947,-0.1324 0.51627,-1.46565 z"
       id="path2000" />
    <path
       style="fill:#000000;stroke-width:1"
       d="m 83.25564,172.81247 c -0.11777,-0.30691 -0.21413,-1.73566 -0.21413,-3.175 0,-2.023 0.11347,-2.61698 0.49994,-2.61698 0.56611,0 1.26395,2.73638 1.26395,4.95626 0,1.1323 -0.12527,1.39374 -0.66781,1.39374 -0.3673,0 -0.76417,-0.2511 -0.88195,-0.55802 z"
       id="path1998" />
    <path
       style="fill:#000000;stroke-width:1"
       d="m 116.69641,173.45329 c -0.77743,-0.51911 -1.19934,-1.84314 -1.19934,-3.76377 0,-1.81756 0.40439,-2.56412 0.8247,-1.5225 0.11375,0.28192 0.18798,0.23484 0.20578,-0.13054 0.03,-0.61506 2.78258,-1.58224 3.617,-1.2709 0.25729,0.096 -0.28626,0.38431 -1.2079,0.64068 -1.56541,0.43545 -1.67569,0.54257 -1.67569,1.62768 0,0.63885 -0.15875,1.16155 -0.35278,1.16155 -0.19403,0 -0.35278,0.2475 -0.35278,0.54999 0,0.30249 0.15875,0.45187 0.35278,0.33196 0.19403,-0.11992 0.35521,-0.0102 0.35818,0.24376 0.003,0.25399 0.14661,0.68483 0.31919,0.95743 0.26156,0.41315 0.52487,0.37109 1.5821,-0.25268 1.50879,-0.89021 1.61872,-0.64731 0.32036,0.70788 -0.92383,0.96427 -2.00691,1.24341 -2.7916,0.71946 z"
       id="path1996" />
    <path
       style="fill:#000000;stroke-width:1"
       d="m 105.08668,172.88558 c -0.31491,-0.48061 -0.59417,-1.73067 -0.63286,-2.83287 l -0.0693,-1.97268 -1.32292,-7.1e-4 c -1.58616,-7e-4 -1.72334,-0.49754 -0.27662,-1.00187 1.67672,-0.58451 6.16099,-0.94075 5.86767,-0.46615 -0.13525,0.21886 -0.75404,0.53052 -1.37508,0.69259 l -1.12916,0.29467 0.12479,2.84248 c 0.13541,3.08428 -0.24877,3.87571 -1.18657,2.44443 z"
       id="path1994" />
    <path
       style="fill:#000000;stroke-width:1"
       d="m 75.61945,173.17757 c -0.73023,-0.87988 0.89139,-5.6276 2.25339,-6.59743 l 1.0408,-0.74112 0.65517,0.80911 c 0.82737,1.02175 1.79186,4.28966 1.64445,5.5717 -0.14301,1.24378 -1.01799,1.27234 -1.60273,0.0523 -0.58624,-1.22314 -2.0244,-0.99612 -2.76524,0.4365 -0.61016,1.17994 -0.62958,1.18737 -1.22584,0.46892 z m 3.31248,-3.97069 c -0.029,-0.62669 -0.16505,-1.41469 -0.30245,-1.75111 -0.2278,-0.55778 -0.27537,-0.54951 -0.53993,0.0939 -0.15956,0.38806 -0.30127,1.23314 -0.31491,1.87795 -0.0198,0.93642 0.0995,1.14687 0.59257,1.04556 0.44877,-0.0922 0.60299,-0.438 0.56472,-1.26629 z"
       id="path1992" />
    <path
       style="fill:#000000;stroke-width:1"
       d="m 68.13442,170.67986 c -0.10565,-1.69355 -0.10893,-3.2959 -0.007,-3.56078 0.13629,-0.35517 0.79852,-0.45448 2.52251,-0.37829 2.07298,0.0916 2.34978,0.18791 2.4443,0.85023 0.0696,0.48749 -0.27699,1.06967 -0.99777,1.67617 -1.18774,0.99941 -1.13771,1.05852 1.24395,1.4698 1.34813,0.23279 1.37175,0.25872 0.52917,0.58084 -0.48507,0.18544 -1.54597,0.23878 -2.35755,0.11852 -1.46304,-0.21677 -1.47656,-0.20871 -1.5875,0.94595 -0.0836,0.87057 -0.29946,1.19137 -0.8548,1.27066 -0.69468,0.0992 -0.75538,-0.0938 -0.93502,-2.9731 z m 3.17723,-2.22834 c 1.04496,-0.87174 1.00151,-1.07825 -0.22684,-1.07825 -0.93428,0 -1.44885,0.51142 -1.44885,1.43997 0,0.52693 0.82356,0.34915 1.67569,-0.36172 z"
       id="path1990" />
    <path
       style="fill:#000000;stroke-width:1"
       d="m 51.71242,172.91387 c -0.41822,-0.44518 -0.9778,-1.43737 -1.24352,-2.20487 -0.26571,-0.76749 -0.61829,-1.39544 -0.78352,-1.39544 -0.16522,0 -0.4715,0.70273 -0.68062,1.56163 -0.42676,1.75273 -0.89145,2.08894 -1.72925,1.25114 -0.774,-0.774 -0.8025,-4.82657 -0.0384,-5.46072 0.44837,-0.37212 0.5935,-0.26409 0.92578,0.68908 0.2812,0.80666 0.50273,1.0217 0.77355,0.75087 0.79477,-0.79476 2.25638,-0.42593 3.00641,0.75867 0.50359,0.79535 0.76797,0.98129 0.87778,0.61736 0.71715,-2.37686 1.22469,-3.35416 1.79938,-3.46484 0.51391,-0.099 0.59888,0.0145 0.39446,0.527 -0.14329,0.35923 -0.45296,1.92785 -0.68816,3.48583 -0.59902,3.96795 -1.08847,4.50803 -2.61389,2.88429 z"
       id="path1988" />
    <path
       style="fill:#000000;stroke-width:1"
       d="m 122.1034,173.67916 c -0.49137,-0.27722 -0.61846,-0.78344 -0.59227,-2.35927 0.0502,-3.02161 0.29353,-3.94662 1.03817,-3.94662 0.7583,0 2.15562,1.55766 2.80613,3.12813 0.25179,0.60786 0.58631,1.10521 0.74339,1.10521 0.15708,0 0.50598,-0.99219 0.77533,-2.20487 0.43569,-1.96151 0.58387,-2.20486 1.34255,-2.20486 1.15493,0 1.78516,1.41034 1.86069,4.16389 0.0476,1.73467 -0.0493,2.18611 -0.46921,2.18611 -0.52065,0 -0.79105,-0.83113 -1.25454,-3.85614 -0.26835,-1.7514 -0.84882,-1.03891 -0.85672,1.05156 -0.009,2.42468 -1.62269,3.11363 -2.79138,1.19188 -0.85828,-1.41133 -1.18208,-1.3432 -1.34845,0.28374 -0.16474,1.61091 -0.43338,1.92403 -1.25369,1.46123 z"
       id="path1986" />
    <path
       style="fill:#000000;stroke-width:1"
       d="m 87.51003,173.84087 c -0.43453,-0.43452 -0.24136,-0.74995 0.90298,-1.47449 1.02974,-0.65199 1.07175,-0.74246 0.44097,-0.94966 -2.19937,-0.72247 -2.66248,-1.02164 -2.87167,-1.85513 -0.18,-0.71718 -7.1e-4,-1.09784 0.892,-1.89562 1.13246,-1.01185 1.96321,-1.25644 2.31797,-0.68243 0.10735,0.17369 -0.0337,0.40365 -0.31352,0.51102 -0.27978,0.10736 -0.76022,0.68161 -1.06765,1.2761 -0.5515,1.06649 -0.54586,1.08548 0.42253,1.42367 2.84154,0.99234 3.48834,1.90404 2.23789,3.15449 -0.69473,0.69474 -2.46473,0.98882 -2.9615,0.49205 z"
       id="path1984" />
    <path
       style="fill:#000000;stroke-width:1"
       d="m 108.85508,173.53943 c -0.52551,-1.15337 -0.5364,-3.78554 -0.0178,-4.30414 0.63781,-0.63781 1.38983,-0.13105 1.16064,0.78212 -0.25397,1.01187 0.18523,1.29379 1.58075,1.01469 l 1.09296,-0.21859 -0.22292,-2.39858 c -0.12261,-1.31921 -0.11121,-2.68857 0.0253,-3.04303 0.23521,-0.6106 0.26654,-0.61188 0.5964,-0.0243 0.19148,0.34108 0.25759,0.76667 0.14691,0.94576 -0.11068,0.17908 -0.0229,0.4358 0.19496,0.57047 0.29274,0.18092 0.29227,0.30909 -0.002,0.49084 -0.27308,0.16877 -0.17417,0.50408 0.31511,1.06822 0.39222,0.45223 0.71312,1.17497 0.71312,1.6061 0,0.43113 0.0992,1.27996 0.22049,1.8863 0.17315,0.86577 0.0998,1.10243 -0.34171,1.10243 -0.36524,0 -0.50241,0.21628 -0.39155,0.61736 0.0939,0.33955 -0.0627,0.14111 -0.34794,-0.44097 -0.28522,-0.58208 -0.52574,-1.23806 -0.53449,-1.45774 -0.0115,-0.28821 -0.3842,-0.27309 -1.33883,0.0543 -1.01087,0.34667 -1.36452,0.68365 -1.4993,1.42863 -0.23458,1.2966 -0.84002,1.44014 -1.35033,0.32014 z m 5.11909,-3.05729 c -0.11262,-0.28142 -0.19621,-0.19783 -0.21314,0.21313 -0.0153,0.37189 0.0681,0.58025 0.18529,0.46303 0.11722,-0.11723 0.12975,-0.4215 0.0278,-0.67616 z"
       id="path1982" />
    <path
       style="fill:#000000;stroke-width:1"
       d="m 93.4163,173.54643 c -0.79236,-0.79236 -0.87142,-1.12186 -0.77771,-3.24137 l 0.10431,-2.35934 1.76389,-0.45599 c 0.97014,-0.2508 2.05107,-0.45906 2.40207,-0.4628 1.11762,-0.0119 0.3129,0.59758 -1.33774,1.01322 -1.38008,0.34751 -1.5935,0.52459 -1.5935,1.32221 0,0.97701 0.13357,0.98916 2.82223,0.25671 0.87141,-0.2374 0.87413,-0.23142 0.228,0.50068 -0.35967,0.40751 -1.11373,0.84193 -1.67569,0.96535 -1.05027,0.23068 -1.24874,0.67461 -0.69369,1.55157 0.27009,0.42674 0.4529,0.41241 1.22933,-0.0963 1.10245,-0.72236 1.15034,-0.49574 0.18247,0.86351 -0.894,1.25551 -1.50804,1.28849 -2.65397,0.14257 z"
       id="path1980" />
    <path
       style="fill:#000000;stroke-width:1"
       d="m 38.15198,177.04633 c -0.12048,-0.12048 -0.13472,-1.27472 -0.0316,-2.56499 0.18393,-2.30228 0.16051,-2.38398 -1.25821,-4.39008 -0.7951,-1.12427 -1.44563,-2.11646 -1.44563,-2.20486 0,-0.52845 1.18634,0.007 2.26163,1.02151 0.68944,0.65023 1.33575,1.10002 1.43623,0.99954 0.10048,-0.10048 0.19852,-0.75155 0.21786,-1.44682 0.0526,-1.89262 0.45382,-3.01061 1.12683,-3.14021 0.51524,-0.0992 0.6019,0.19992 0.6019,2.07797 0,1.98862 -1.12199,7.87319 -1.73997,9.12574 -0.29001,0.5878 -0.85226,0.83896 -1.16901,0.5222 z"
       id="path1692" />
  </g>
</svg>
