<svg width="59" height="64" viewBox="0 0 59 64" fill="none" xmlns="http://www.w3.org/2000/svg">
<path d="M58.1092 51.6843C58.1092 58.4858 46.4673 63.9994 32.1063 63.9994C17.7454 63.9994 6.10352 58.4858 6.10352 51.6843C6.10352 44.8829 17.7454 39.3692 32.1063 39.3692C46.4673 39.3692 58.1092 44.8829 58.1092 51.6843Z" fill="#22137B"/>
<path d="M58.1092 50.9599C58.1092 57.7613 46.4673 63.275 32.1063 63.275C17.7454 63.275 6.10352 57.7613 6.10352 50.9599C6.10352 44.1584 17.7454 38.6448 32.1063 38.6448C46.4673 38.6448 58.1092 44.1584 58.1092 50.9599Z" fill="#22137B"/>
<path d="M58.1092 50.2355C58.1092 57.0369 46.4673 62.5506 32.1063 62.5506C17.7454 62.5506 6.10352 57.0369 6.10352 50.2355C6.10352 43.434 17.7454 37.9204 32.1063 37.9204C46.4673 37.9204 58.1092 43.434 58.1092 50.2355Z" fill="#22137B"/>
<path d="M58.1092 49.5111C58.1092 56.3125 46.4673 61.8262 32.1063 61.8262C17.7454 61.8262 6.10352 56.3125 6.10352 49.5111C6.10352 42.7096 17.7454 37.1959 32.1063 37.1959C46.4673 37.1959 58.1092 42.7096 58.1092 49.5111Z" fill="#22137B"/>
<path d="M58.1092 48.7866C58.1092 55.5881 46.4673 61.1017 32.1063 61.1017C17.7454 61.1017 6.10352 55.5881 6.10352 48.7866C6.10352 41.9852 17.7454 36.4715 32.1063 36.4715C46.4673 36.4715 58.1092 41.9852 58.1092 48.7866Z" fill="#22137B"/>
<path d="M58.1092 48.0622C58.1092 54.8637 46.4673 60.3773 32.1063 60.3773C17.7454 60.3773 6.10352 54.8637 6.10352 48.0622C6.10352 41.2608 17.7454 35.7471 32.1063 35.7471C46.4673 35.7471 58.1092 41.2608 58.1092 48.0622Z" fill="#22137B"/>
<path d="M58.1092 47.3378C58.1092 54.1392 46.4673 59.6529 32.1063 59.6529C17.7454 59.6529 6.10352 54.1392 6.10352 47.3378C6.10352 40.5363 17.7454 35.0227 32.1063 35.0227C46.4673 35.0227 58.1092 40.5363 58.1092 47.3378Z" fill="#22137B"/>
<path d="M58.1092 46.6134C58.1092 53.4148 46.4673 58.9285 32.1063 58.9285C17.7454 58.9285 6.10352 53.4148 6.10352 46.6134C6.10352 39.8119 17.7454 34.2983 32.1063 34.2983C46.4673 34.2983 58.1092 39.8119 58.1092 46.6134Z" fill="#22137B"/>
<path d="M58.1092 45.889C58.1092 52.6904 46.4673 58.2041 32.1063 58.2041C17.7454 58.2041 6.10352 52.6904 6.10352 45.889C6.10352 39.0875 17.7454 33.5738 32.1063 33.5738C46.4673 33.5738 58.1092 39.0875 58.1092 45.889Z" fill="#22137B"/>
<path d="M58.1092 45.1645C58.1092 51.966 46.4673 57.4797 32.1063 57.4797C17.7454 57.4797 6.10352 51.966 6.10352 45.1645C6.10352 38.3631 17.7454 32.8494 32.1063 32.8494C46.4673 32.8494 58.1092 38.3631 58.1092 45.1645Z" fill="#22137B"/>
<path d="M58.1092 44.4401C58.1092 51.2416 46.4673 56.7552 32.1063 56.7552C17.7454 56.7552 6.10352 51.2416 6.10352 44.4401C6.10352 37.6387 17.7454 32.125 32.1063 32.125C46.4673 32.125 58.1092 37.6387 58.1092 44.4401Z" fill="#22137B"/>
<path d="M58.1092 49.6843C58.1092 56.4858 46.4673 61.9994 32.1063 61.9994C17.7454 61.9994 6.10352 56.4858 6.10352 49.6843C6.10352 42.8829 17.7454 37.3692 32.1063 37.3692C46.4673 37.3692 58.1092 42.8829 58.1092 49.6843Z" fill="#836FFD"/>
<path d="M58.1092 48.9599C58.1092 55.7613 46.4673 61.275 32.1063 61.275C17.7454 61.275 6.10352 55.7613 6.10352 48.9599C6.10352 42.1584 17.7454 36.6448 32.1063 36.6448C46.4673 36.6448 58.1092 42.1584 58.1092 48.9599Z" fill="#836FFD"/>
<path d="M58.1092 48.2355C58.1092 55.0369 46.4673 60.5506 32.1063 60.5506C17.7454 60.5506 6.10352 55.0369 6.10352 48.2355C6.10352 41.434 17.7454 35.9204 32.1063 35.9204C46.4673 35.9204 58.1092 41.434 58.1092 48.2355Z" fill="#836FFD"/>
<path d="M58.1092 47.5111C58.1092 54.3125 46.4673 59.8262 32.1063 59.8262C17.7454 59.8262 6.10352 54.3125 6.10352 47.5111C6.10352 40.7096 17.7454 35.1959 32.1063 35.1959C46.4673 35.1959 58.1092 40.7096 58.1092 47.5111Z" fill="#836FFD"/>
<path d="M58.1092 46.7866C58.1092 53.5881 46.4673 59.1017 32.1063 59.1017C17.7454 59.1017 6.10352 53.5881 6.10352 46.7866C6.10352 39.9852 17.7454 34.4715 32.1063 34.4715C46.4673 34.4715 58.1092 39.9852 58.1092 46.7866Z" fill="#836FFD"/>
<path d="M58.1092 46.0622C58.1092 52.8637 46.4673 58.3773 32.1063 58.3773C17.7454 58.3773 6.10352 52.8637 6.10352 46.0622C6.10352 39.2608 17.7454 33.7471 32.1063 33.7471C46.4673 33.7471 58.1092 39.2608 58.1092 46.0622Z" fill="#836FFD"/>
<path d="M58.1092 45.3378C58.1092 52.1392 46.4673 57.6529 32.1063 57.6529C17.7454 57.6529 6.10352 52.1392 6.10352 45.3378C6.10352 38.5363 17.7454 33.0227 32.1063 33.0227C46.4673 33.0227 58.1092 38.5363 58.1092 45.3378Z" fill="#836FFD"/>
<path d="M58.1092 44.6134C58.1092 51.4148 46.4673 56.9285 32.1063 56.9285C17.7454 56.9285 6.10352 51.4148 6.10352 44.6134C6.10352 37.8119 17.7454 32.2983 32.1063 32.2983C46.4673 32.2983 58.1092 37.8119 58.1092 44.6134Z" fill="#836FFD"/>
<path d="M58.1092 43.889C58.1092 50.6904 46.4673 56.2041 32.1063 56.2041C17.7454 56.2041 6.10352 50.6904 6.10352 43.889C6.10352 37.0875 17.7454 31.5738 32.1063 31.5738C46.4673 31.5738 58.1092 37.0875 58.1092 43.889Z" fill="#836FFD"/>
<path d="M58.1092 43.1645C58.1092 49.966 46.4673 55.4797 32.1063 55.4797C17.7454 55.4797 6.10352 49.966 6.10352 43.1645C6.10352 36.3631 17.7454 30.8494 32.1063 30.8494C46.4673 30.8494 58.1092 36.3631 58.1092 43.1645Z" fill="#836FFD"/>
<path d="M58.1092 42.4401C58.1092 49.2416 46.4673 54.7552 32.1063 54.7552C17.7454 54.7552 6.10352 49.2416 6.10352 42.4401C6.10352 35.6387 17.7454 30.125 32.1063 30.125C46.4673 30.125 58.1092 35.6387 58.1092 42.4401Z" fill="#836FFD"/>
<ellipse cx="32.1063" cy="41.8682" rx="26.0028" ry="11.7432" fill="white"/>
<path d="M37.9776 43.9892C37.9776 44.6123 37.5798 45.1392 36.7841 45.57C36.0026 45.9931 34.9441 46.2662 33.6085 46.3893V47.047C33.6085 47.2547 33.4877 47.4201 33.2462 47.5432C33.0189 47.674 32.7134 47.7394 32.3298 47.7394C31.9603 47.7394 31.6549 47.674 31.4133 47.5432C31.1718 47.4201 31.051 47.2547 31.051 47.047V46.4239C30.2695 46.3855 29.5094 46.297 28.7706 46.1585C28.0459 46.0201 27.4066 45.8431 26.8524 45.6277C26.6251 45.5508 26.4617 45.4662 26.3623 45.3739C26.277 45.2739 26.2344 45.1508 26.2344 45.0046C26.2344 44.8123 26.3409 44.6431 26.5541 44.4969C26.7814 44.3507 27.0371 44.2777 27.3213 44.2777C27.5913 44.2777 27.9252 44.3392 28.323 44.4623C28.9766 44.67 29.5947 44.8238 30.1772 44.9238C30.7739 45.0162 31.392 45.0623 32.0314 45.0623C32.8839 45.0623 33.5375 44.9777 33.9921 44.8085C34.4468 44.6315 34.6741 44.3854 34.6741 44.07C34.6741 43.8776 34.5392 43.7199 34.2692 43.5968C34.0135 43.4738 33.6938 43.3776 33.3101 43.3084C32.9265 43.2391 32.3724 43.1507 31.6478 43.043C30.5963 42.8968 29.7296 42.7507 29.0476 42.6045C28.3656 42.4583 27.776 42.2275 27.2787 41.9121C26.7956 41.5967 26.5541 41.1736 26.5541 40.6428C26.5541 40.0197 26.959 39.4851 27.7689 39.0389C28.593 38.5927 29.6657 38.3081 30.9871 38.185V37.5273C30.9871 37.3196 31.1078 37.1542 31.3494 37.0311C31.5909 36.9003 31.8964 36.835 32.2658 36.835C32.6494 36.835 32.9549 36.9003 33.1823 37.0311C33.4238 37.1542 33.5446 37.3196 33.5446 37.5273V38.162C34.8233 38.2543 36.0239 38.5158 37.1464 38.9466C37.3595 39.0235 37.5087 39.112 37.594 39.212C37.6934 39.312 37.7431 39.4312 37.7431 39.5697C37.7431 39.762 37.6295 39.9313 37.4021 40.0774C37.189 40.2236 36.9404 40.2967 36.6562 40.2967C36.4999 40.2967 36.3507 40.2851 36.2086 40.2621C36.0808 40.239 35.8961 40.189 35.6545 40.1121C35.072 39.912 34.5463 39.762 34.0774 39.662C33.6227 39.562 33.0615 39.512 32.3937 39.512C31.6264 39.512 31.0084 39.6043 30.5395 39.789C30.0848 39.9736 29.8575 40.2198 29.8575 40.5275C29.8575 40.7429 29.9925 40.9198 30.2624 41.0583C30.5324 41.189 30.8734 41.2929 31.2854 41.3698C31.6975 41.4467 32.2729 41.5352 33.0118 41.6352C34.049 41.7737 34.8944 41.916 35.548 42.0622C36.2157 42.2006 36.7841 42.4276 37.253 42.743C37.736 43.0507 37.9776 43.4661 37.9776 43.9892Z" fill="#5236FF"/>
<path d="M58.1092 36.2644C58.1092 43.0658 46.4673 48.5795 32.1063 48.5795C17.7454 48.5795 6.10352 43.0658 6.10352 36.2644C6.10352 29.4629 17.7454 23.9493 32.1063 23.9493C46.4673 23.9493 58.1092 29.4629 58.1092 36.2644Z" fill="#836FFD"/>
<path d="M58.1092 35.54C58.1092 42.3414 46.4673 47.8551 32.1063 47.8551C17.7454 47.8551 6.10352 42.3414 6.10352 35.54C6.10352 28.7385 17.7454 23.2248 32.1063 23.2248C46.4673 23.2248 58.1092 28.7385 58.1092 35.54Z" fill="#836FFD"/>
<path d="M58.1092 34.8155C58.1092 41.617 46.4673 47.1307 32.1063 47.1307C17.7454 47.1307 6.10352 41.617 6.10352 34.8155C6.10352 28.0141 17.7454 22.5004 32.1063 22.5004C46.4673 22.5004 58.1092 28.0141 58.1092 34.8155Z" fill="#836FFD"/>
<path d="M58.1092 34.0911C58.1092 40.8926 46.4673 46.4062 32.1063 46.4062C17.7454 46.4062 6.10352 40.8926 6.10352 34.0911C6.10352 27.2897 17.7454 21.776 32.1063 21.776C46.4673 21.776 58.1092 27.2897 58.1092 34.0911Z" fill="#836FFD"/>
<path d="M58.1092 33.3667C58.1092 40.1682 46.4673 45.6818 32.1063 45.6818C17.7454 45.6818 6.10352 40.1682 6.10352 33.3667C6.10352 26.5653 17.7454 21.0516 32.1063 21.0516C46.4673 21.0516 58.1092 26.5653 58.1092 33.3667Z" fill="#836FFD"/>
<path d="M58.1092 32.6423C58.1092 39.4437 46.4673 44.9574 32.1063 44.9574C17.7454 44.9574 6.10352 39.4437 6.10352 32.6423C6.10352 25.8408 17.7454 20.3272 32.1063 20.3272C46.4673 20.3272 58.1092 25.8408 58.1092 32.6423Z" fill="#836FFD"/>
<path d="M58.1092 31.9179C58.1092 38.7193 46.4673 44.233 32.1063 44.233C17.7454 44.233 6.10352 38.7193 6.10352 31.9179C6.10352 25.1164 17.7454 19.6028 32.1063 19.6028C46.4673 19.6028 58.1092 25.1164 58.1092 31.9179Z" fill="#836FFD"/>
<path d="M58.1092 31.1935C58.1092 37.9949 46.4673 43.5086 32.1063 43.5086C17.7454 43.5086 6.10352 37.9949 6.10352 31.1935C6.10352 24.392 17.7454 18.8783 32.1063 18.8783C46.4673 18.8783 58.1092 24.392 58.1092 31.1935Z" fill="#836FFD"/>
<path d="M58.1092 30.469C58.1092 37.2705 46.4673 42.7842 32.1063 42.7842C17.7454 42.7842 6.10352 37.2705 6.10352 30.469C6.10352 23.6676 17.7454 18.1539 32.1063 18.1539C46.4673 18.1539 58.1092 23.6676 58.1092 30.469Z" fill="#836FFD"/>
<path d="M58.1092 29.7446C58.1092 36.5461 46.4673 42.0597 32.1063 42.0597C17.7454 42.0597 6.10352 36.5461 6.10352 29.7446C6.10352 22.9432 17.7454 17.4295 32.1063 17.4295C46.4673 17.4295 58.1092 22.9432 58.1092 29.7446Z" fill="#836FFD"/>
<path d="M58.1092 29.0202C58.1092 35.8216 46.4673 41.3353 32.1063 41.3353C17.7454 41.3353 6.10352 35.8216 6.10352 29.0202C6.10352 22.2187 17.7454 16.7051 32.1063 16.7051C46.4673 16.7051 58.1092 22.2187 58.1092 29.0202Z" fill="#836FFD"/>
<ellipse cx="32.1063" cy="28.4483" rx="26.0028" ry="11.7432" fill="white"/>
<path d="M37.9776 30.5693C37.9776 31.1924 37.5798 31.7193 36.7841 32.1501C36.0026 32.5732 34.9441 32.8463 33.6085 32.9694V33.6271C33.6085 33.8348 33.4877 34.0002 33.2462 34.1233C33.0189 34.2541 32.7134 34.3194 32.3298 34.3194C31.9603 34.3194 31.6549 34.2541 31.4133 34.1233C31.1718 34.0002 31.051 33.8348 31.051 33.6271V33.004C30.2695 32.9655 29.5094 32.8771 28.7706 32.7386C28.0459 32.6001 27.4066 32.4232 26.8524 32.2078C26.6251 32.1309 26.4617 32.0463 26.3623 31.9539C26.277 31.8539 26.2344 31.7309 26.2344 31.5847C26.2344 31.3924 26.3409 31.2231 26.5541 31.077C26.7814 30.9308 27.0371 30.8577 27.3213 30.8577C27.5913 30.8577 27.9252 30.9193 28.323 31.0424C28.9766 31.2501 29.5947 31.4039 30.1772 31.5039C30.7739 31.5962 31.392 31.6424 32.0314 31.6424C32.8839 31.6424 33.5375 31.5578 33.9921 31.3885C34.4468 31.2116 34.6741 30.9654 34.6741 30.65C34.6741 30.4577 34.5392 30.3 34.2692 30.1769C34.0135 30.0538 33.6938 29.9577 33.3101 29.8885C32.9265 29.8192 32.3724 29.7308 31.6478 29.6231C30.5963 29.4769 29.7296 29.3307 29.0476 29.1846C28.3656 29.0384 27.776 28.8076 27.2787 28.4922C26.7956 28.1768 26.5541 27.7537 26.5541 27.2229C26.5541 26.5998 26.959 26.0652 27.7689 25.619C28.593 25.1728 29.6657 24.8882 30.9871 24.7651V24.1074C30.9871 23.8997 31.1078 23.7343 31.3494 23.6112C31.5909 23.4804 31.8964 23.415 32.2658 23.415C32.6494 23.415 32.9549 23.4804 33.1823 23.6112C33.4238 23.7343 33.5446 23.8997 33.5446 24.1074V24.742C34.8233 24.8343 36.0239 25.0959 37.1464 25.5267C37.3595 25.6036 37.5087 25.6921 37.594 25.7921C37.6934 25.8921 37.7431 26.0113 37.7431 26.1498C37.7431 26.3421 37.6295 26.5114 37.4021 26.6575C37.189 26.8037 36.9404 26.8768 36.6562 26.8768C36.4999 26.8768 36.3507 26.8652 36.2086 26.8421C36.0808 26.8191 35.8961 26.7691 35.6545 26.6921C35.072 26.4921 34.5463 26.3421 34.0774 26.2421C33.6227 26.1421 33.0615 26.0921 32.3937 26.0921C31.6264 26.0921 31.0084 26.1844 30.5395 26.369C30.0848 26.5537 29.8575 26.7998 29.8575 27.1075C29.8575 27.3229 29.9925 27.4999 30.2624 27.6383C30.5324 27.7691 30.8734 27.873 31.2854 27.9499C31.6975 28.0268 32.2729 28.1153 33.0118 28.2153C34.049 28.3538 34.8944 28.4961 35.548 28.6422C36.2157 28.7807 36.7841 29.0076 37.253 29.323C37.736 29.6307 37.9776 30.0462 37.9776 30.5693Z" fill="#5236FF"/>
<path d="M52.2381 20.3269C52.2381 27.1283 40.5962 32.642 26.2352 32.642C11.8743 32.642 0.232422 27.1283 0.232422 20.3269C0.232422 13.5254 11.8743 8.01177 26.2352 8.01177C40.5962 8.01177 52.2381 13.5254 52.2381 20.3269Z" fill="#836FFD"/>
<path d="M52.2381 19.6025C52.2381 26.4039 40.5962 31.9176 26.2352 31.9176C11.8743 31.9176 0.232422 26.4039 0.232422 19.6025C0.232422 12.801 11.8743 7.28735 26.2352 7.28735C40.5962 7.28735 52.2381 12.801 52.2381 19.6025Z" fill="#836FFD"/>
<path d="M52.2381 18.878C52.2381 25.6795 40.5962 31.1932 26.2352 31.1932C11.8743 31.1932 0.232422 25.6795 0.232422 18.878C0.232422 12.0766 11.8743 6.56293 26.2352 6.56293C40.5962 6.56293 52.2381 12.0766 52.2381 18.878Z" fill="#836FFD"/>
<path d="M52.2381 18.1536C52.2381 24.9551 40.5962 30.4687 26.2352 30.4687C11.8743 30.4687 0.232422 24.9551 0.232422 18.1536C0.232422 11.3522 11.8743 5.83851 26.2352 5.83851C40.5962 5.83851 52.2381 11.3522 52.2381 18.1536Z" fill="#836FFD"/>
<path d="M52.2381 17.4292C52.2381 24.2307 40.5962 29.7443 26.2352 29.7443C11.8743 29.7443 0.232422 24.2307 0.232422 17.4292C0.232422 10.6278 11.8743 5.11409 26.2352 5.11409C40.5962 5.11409 52.2381 10.6278 52.2381 17.4292Z" fill="#836FFD"/>
<path d="M52.2381 16.7048C52.2381 23.5062 40.5962 29.0199 26.2352 29.0199C11.8743 29.0199 0.232422 23.5062 0.232422 16.7048C0.232422 9.90334 11.8743 4.38967 26.2352 4.38967C40.5962 4.38967 52.2381 9.90334 52.2381 16.7048Z" fill="#836FFD"/>
<path d="M52.2381 15.9804C52.2381 22.7818 40.5962 28.2955 26.2352 28.2955C11.8743 28.2955 0.232422 22.7818 0.232422 15.9804C0.232422 9.17892 11.8743 3.66525 26.2352 3.66525C40.5962 3.66525 52.2381 9.17892 52.2381 15.9804Z" fill="#836FFD"/>
<path d="M52.2381 15.256C52.2381 22.0574 40.5962 27.5711 26.2352 27.5711C11.8743 27.5711 0.232422 22.0574 0.232422 15.256C0.232422 8.4545 11.8743 2.94083 26.2352 2.94083C40.5962 2.94083 52.2381 8.4545 52.2381 15.256Z" fill="#836FFD"/>
<path d="M52.2381 14.5315C52.2381 21.333 40.5962 26.8467 26.2352 26.8467C11.8743 26.8467 0.232422 21.333 0.232422 14.5315C0.232422 7.73008 11.8743 2.21642 26.2352 2.21642C40.5962 2.21642 52.2381 7.73008 52.2381 14.5315Z" fill="#836FFD"/>
<path d="M52.2381 13.8071C52.2381 20.6086 40.5962 26.1222 26.2352 26.1222C11.8743 26.1222 0.232422 20.6086 0.232422 13.8071C0.232422 7.00566 11.8743 1.492 26.2352 1.492C40.5962 1.492 52.2381 7.00566 52.2381 13.8071Z" fill="#836FFD"/>
<path d="M52.2381 13.0827C52.2381 19.8841 40.5962 25.3978 26.2352 25.3978C11.8743 25.3978 0.232422 19.8841 0.232422 13.0827C0.232422 6.28124 11.8743 0.767578 26.2352 0.767578C40.5962 0.767578 52.2381 6.28124 52.2381 13.0827Z" fill="#836FFD"/>
<ellipse cx="26.2352" cy="12.5108" rx="26.0028" ry="11.7432" fill="white"/>
<path d="M32.1065 14.6318C32.1065 15.2549 31.7087 15.7818 30.913 16.2126C30.1315 16.6357 29.073 16.9088 27.7374 17.0319V17.6896C27.7374 17.8973 27.6166 18.0627 27.3751 18.1858C27.1478 18.3166 26.8423 18.3819 26.4587 18.3819C26.0893 18.3819 25.7838 18.3166 25.5422 18.1858C25.3007 18.0627 25.1799 17.8973 25.1799 17.6896V17.0665C24.3985 17.028 23.6383 16.9396 22.8995 16.8011C22.1748 16.6626 21.5355 16.4857 20.9813 16.2703C20.754 16.1934 20.5906 16.1088 20.4912 16.0164C20.4059 15.9164 20.3633 15.7934 20.3633 15.6472C20.3633 15.4549 20.4698 15.2856 20.683 15.1395C20.9103 14.9933 21.1661 14.9202 21.4502 14.9202C21.7202 14.9202 22.0541 14.9818 22.4519 15.1049C23.1055 15.3126 23.7236 15.4664 24.3061 15.5664C24.9029 15.6587 25.5209 15.7049 26.1603 15.7049C27.0128 15.7049 27.6664 15.6203 28.121 15.451C28.5757 15.2741 28.803 15.0279 28.803 14.7125C28.803 14.5202 28.6681 14.3625 28.3981 14.2394C28.1424 14.1163 27.8227 14.0202 27.439 13.951C27.0554 13.8817 26.5013 13.7933 25.7767 13.6856C24.7252 13.5394 23.8585 13.3932 23.1765 13.2471C22.4945 13.1009 21.9049 12.8701 21.4076 12.5547C20.9245 12.2393 20.683 11.8162 20.683 11.2854C20.683 10.6623 21.0879 10.1277 21.8978 9.6815C22.7219 9.23532 23.7946 8.95069 25.116 8.82761V8.16988C25.116 7.96218 25.2367 7.79679 25.4783 7.6737C25.7198 7.54293 26.0253 7.47754 26.3947 7.47754C26.7784 7.47754 27.0838 7.54293 27.3112 7.6737C27.5527 7.79679 27.6735 7.96218 27.6735 8.16988V8.80453C28.9522 8.89684 30.1528 9.1584 31.2753 9.58919C31.4884 9.66611 31.6376 9.75458 31.7229 9.85459C31.8223 9.95459 31.8721 10.0738 31.8721 10.2123C31.8721 10.4046 31.7584 10.5739 31.5311 10.72C31.3179 10.8662 31.0693 10.9393 30.7851 10.9393C30.6288 10.9393 30.4796 10.9277 30.3375 10.9046C30.2097 10.8816 30.025 10.8316 29.7834 10.7546C29.2009 10.5546 28.6752 10.4046 28.2063 10.3046C27.7516 10.2046 27.1904 10.1546 26.5226 10.1546C25.7554 10.1546 25.1373 10.2469 24.6684 10.4315C24.2137 10.6162 23.9864 10.8623 23.9864 11.17C23.9864 11.3854 24.1214 11.5624 24.3914 11.7008C24.6613 11.8316 25.0023 11.9355 25.4144 12.0124C25.8264 12.0893 26.4018 12.1778 27.1407 12.2778C28.1779 12.4163 29.0233 12.5586 29.6769 12.7047C30.3447 12.8432 30.913 13.0701 31.3819 13.3855C31.8649 13.6932 32.1065 14.1087 32.1065 14.6318Z" fill="#5236FF"/>
</svg>
