<svg width="97" height="97" viewBox="0 0 97 97" fill="none" xmlns="http://www.w3.org/2000/svg">
<rect width="97" height="97" rx="20" fill="#DBDCFF"/>
<circle cx="48.0992" cy="47.2974" r="25.6529" fill="#5236FF"/>
<mask id="mask0_2102_401" style="mask-type:alpha" maskUnits="userSpaceOnUse" x="22" y="21" width="52" height="52">
<circle cx="48.0992" cy="47.2974" r="25.6529" fill="url(#paint0_linear_2102_401)"/>
</mask>
<g mask="url(#mask0_2102_401)">
</g>
<path d="M68.3958 78.7136C68.4198 75.4314 67.9082 72.1774 66.8903 69.1374C65.8723 66.0975 64.3679 63.331 62.4629 60.9961C60.5579 58.6611 58.2897 56.8034 55.7877 55.5289C53.2857 54.2545 50.599 53.5883 47.8809 53.5684C45.1628 53.5485 42.4666 54.1753 39.9462 55.413C37.4258 56.6506 35.1306 58.4749 33.1917 60.7817C31.2527 63.0885 29.7079 65.8327 28.6456 68.8574C27.5832 71.8822 27.024 75.1283 27 78.4105L68.3958 78.7136Z" fill="#E1E3F9"/>
<path d="M57.7186 40.8845C57.7186 46.1974 53.4116 50.5043 48.0988 50.5043C42.7859 50.5043 38.4789 46.1974 38.4789 40.8845C38.4789 35.5716 42.7859 31.2646 48.0988 31.2646C53.4116 31.2646 57.7186 35.5716 57.7186 40.8845Z" fill="#E1E3F9"/>
<defs>
<linearGradient id="paint0_linear_2102_401" x1="26.4546" y1="26.8553" x2="72.1488" y2="74.1528" gradientUnits="userSpaceOnUse">
<stop stop-color="#5860C2"/>
<stop offset="1" stop-color="#292F8D"/>
</linearGradient>
</defs>
</svg>
