<svg width="97" height="97" viewBox="0 0 97 97" fill="none" xmlns="http://www.w3.org/2000/svg">
<rect width="97" height="97" rx="20" fill="#FED9D1"/>
<circle cx="49" cy="48" r="32" fill="#FCCDC3"/>
<mask id="mask0_1_4114" style="mask-type:alpha" maskUnits="userSpaceOnUse" x="17" y="16" width="64" height="64">
<circle cx="49" cy="48" r="32" fill="url(#paint0_linear_1_4114)"/>
</mask>
<g mask="url(#mask0_1_4114)">
<path d="M74.3187 87.1891C74.3487 83.0948 73.7105 79.0357 72.4407 75.2435C71.1709 71.4514 69.2942 68.0004 66.9179 65.0878C64.5416 62.1751 61.7121 59.8577 58.5911 58.268C55.4701 56.6782 52.1186 55.8472 48.728 55.8224C45.3374 55.7975 41.9741 56.5794 38.8301 58.1233C35.6861 59.6672 32.823 61.9428 30.4043 64.8204C27.9856 67.698 26.0586 71.121 24.7334 74.8942C23.4082 78.6673 22.7106 82.7167 22.6807 86.811L74.3187 87.1891Z" fill="#F7E9E6"/>
<path d="M60.9997 40.0001C60.9997 46.6275 55.6272 52.0001 48.9997 52.0001C42.3723 52.0001 36.9997 46.6275 36.9997 40.0001C36.9997 33.3727 42.3723 28.0001 48.9997 28.0001C55.6272 28.0001 60.9997 33.3727 60.9997 40.0001Z" fill="#F7E9E6"/>
</g>
<defs>
<linearGradient id="paint0_linear_1_4114" x1="22" y1="22.5" x2="79" y2="81.5" gradientUnits="userSpaceOnUse">
<stop stop-color="#5860C2"/>
<stop offset="1" stop-color="#292F8D"/>
</linearGradient>
</defs>
</svg>
