<svg width="140" height="29" viewBox="0 0 140 29" fill="none" xmlns="http://www.w3.org/2000/svg">
<path d="M12.5979 6.22715C13.1966 4.38452 15.8034 4.38453 16.4021 6.22715L17.1942 8.66484C17.4619 9.48889 18.2298 10.0468 19.0963 10.0468H21.6594C23.5969 10.0468 24.4024 12.526 22.835 13.6648L20.7614 15.1714C20.0604 15.6807 19.7671 16.5834 20.0348 17.4075L20.8269 19.8452C21.4256 21.6878 19.3166 23.2201 17.7492 22.0813L15.6756 20.5747C14.9746 20.0654 14.0254 20.0654 13.3244 20.5747L11.2508 22.0813C9.68337 23.2201 7.57441 21.6878 8.17312 19.8452L8.96517 17.4075C9.23292 16.5834 8.93961 15.6807 8.23863 15.1714L6.165 13.6648C4.59757 12.526 5.40313 10.0468 7.34057 10.0468H9.90372C10.7702 10.0468 11.5381 9.48889 11.8058 8.66484L12.5979 6.22715Z" fill="#FFB422"/>
<path d="M68.0915 6.4644C68.6772 4.59502 71.3228 4.59503 71.9085 6.4644L72.5917 8.64478C72.853 9.47901 73.626 10.0468 74.5002 10.0468H76.8612C78.781 10.0468 79.5981 12.4889 78.0648 13.6442L76.031 15.1765C75.3554 15.6856 75.0731 16.5646 75.326 17.3718L76.073 19.7562C76.6544 21.6117 74.514 23.1216 72.961 21.9515L71.2035 20.6274C70.491 20.0905 69.509 20.0905 68.7965 20.6274L67.039 21.9515C65.486 23.1216 63.3456 21.6117 63.9269 19.7562L64.674 17.3718C64.9269 16.5646 64.6446 15.6856 63.969 15.1765L61.9352 13.6442C60.4019 12.4889 61.219 10.0468 63.1388 10.0468H65.4998C66.374 10.0468 67.147 9.47901 67.4083 8.64478L68.0915 6.4644Z" fill="#FFB422"/>
<path d="M124.549 6.53616C124.848 5.61485 126.152 5.61485 126.451 6.53616L127.243 8.97386C127.645 10.2099 128.797 11.0468 130.096 11.0468H132.659C133.628 11.0468 134.031 12.2864 133.247 12.8558L131.174 14.3624C130.122 15.1263 129.682 16.4804 130.084 17.7165L130.876 20.1542C131.175 21.0755 130.121 21.8416 129.337 21.2722L127.263 19.7657C126.212 19.0017 124.788 19.0017 123.737 19.7657L121.663 21.2722C120.879 21.8416 119.825 21.0755 120.124 20.1542L120.916 17.7165C121.318 16.4804 120.878 15.1263 119.826 14.3624L117.753 12.8558C116.969 12.2864 117.372 11.0468 118.341 11.0468H120.904C122.203 11.0468 123.355 10.2099 123.757 8.97386L124.549 6.53616Z" stroke="#FFC226" stroke-width="2"/>
<path d="M40.5979 6.22715C41.1966 4.38452 43.8034 4.38453 44.4021 6.22715L45.1942 8.66484C45.4619 9.48889 46.2298 10.0468 47.0963 10.0468H49.6594C51.5969 10.0468 52.4024 12.526 50.835 13.6648L48.7614 15.1714C48.0604 15.6807 47.7671 16.5834 48.0348 17.4075L48.8269 19.8452C49.4256 21.6878 47.3166 23.2201 45.7492 22.0813L43.6756 20.5747C42.9746 20.0654 42.0254 20.0654 41.3244 20.5747L39.2508 22.0813C37.6834 23.2201 35.5744 21.6878 36.1731 19.8452L36.9652 17.4075C37.2329 16.5834 36.9396 15.6807 36.2386 15.1714L34.165 13.6648C32.5976 12.526 33.4031 10.0468 35.3406 10.0468H37.9037C38.7702 10.0468 39.5381 9.48889 39.8058 8.66484L40.5979 6.22715Z" fill="#FFB422"/>
<path d="M95.5979 6.22715C96.1966 4.38452 98.8034 4.38453 99.4021 6.22715L100.194 8.66484C100.462 9.48889 101.23 10.0468 102.096 10.0468H104.659C106.597 10.0468 107.402 12.526 105.835 13.6648L103.761 15.1714C103.06 15.6807 102.767 16.5834 103.035 17.4075L103.827 19.8452C104.426 21.6878 102.317 23.2201 100.749 22.0813L98.6756 20.5747C97.9746 20.0654 97.0254 20.0654 96.3244 20.5747L94.2508 22.0813C92.6834 23.2201 90.5744 21.6878 91.1731 19.8452L91.9652 17.4075C92.2329 16.5834 91.9396 15.6807 91.2386 15.1714L89.165 13.6648C87.5976 12.526 88.4031 10.0468 90.3406 10.0468H92.9037C93.7702 10.0468 94.5381 9.48889 94.8058 8.66484L95.5979 6.22715Z" fill="#FFB422"/>
<mask id="mask0_2102_371" style="mask-type:alpha" maskUnits="userSpaceOnUse" x="116" y="4" width="19" height="19">
<path d="M123.588 5.8541C124.187 4.01148 126.794 4.01148 127.392 5.8541L128.187 8.29862C128.454 9.12267 129.222 9.68059 130.089 9.68059H132.659C134.597 9.68059 135.402 12.1598 133.835 13.2986L131.755 14.8094C131.054 15.3187 130.761 16.2214 131.029 17.0455L131.823 19.49C132.422 21.3326 130.313 22.8649 128.745 21.7261L126.666 20.2153C125.965 19.706 125.016 19.706 124.315 20.2153L122.235 21.7261C120.668 22.8649 118.559 21.3326 119.158 19.49L119.952 17.0455C120.22 16.2214 119.926 15.3187 119.225 14.8094L117.146 13.2986C115.579 12.1598 116.384 9.68059 118.322 9.68059H120.892C121.758 9.68059 122.526 9.12267 122.794 8.29862L123.588 5.8541Z" fill="#FFB422"/>
</mask>
<g mask="url(#mask0_2102_371)">
<rect x="114.228" y="0.548828" width="10.9881" height="25.2727" rx="2" fill="#FFB422"/>
</g>
</svg>
