<svg width="41" height="34" viewBox="0 0 41 34" fill="none" xmlns="http://www.w3.org/2000/svg">
<path d="M36.5459 8.875C38.1084 7.70312 39.5146 6.29688 40.6084 4.65625C39.2021 5.28125 37.5615 5.75 35.9209 5.90625C37.6396 4.89062 38.8896 3.32812 39.5146 1.375C37.9521 2.3125 36.1553 3.01562 34.3584 3.40625C32.7959 1.76562 30.6865 0.828125 28.3428 0.828125C23.8115 0.828125 20.1396 4.5 20.1396 9.03125C20.1396 9.65625 20.2178 10.2812 20.374 10.9062C13.5771 10.5156 7.4834 7.23438 3.4209 2.3125C2.71777 3.48438 2.32715 4.89062 2.32715 6.45312C2.32715 9.26562 3.7334 11.7656 5.99902 13.25C4.6709 13.1719 3.34277 12.8594 2.24902 12.2344V12.3125C2.24902 16.2969 5.06152 19.5781 8.81152 20.3594C8.18652 20.5156 7.40527 20.6719 6.70215 20.6719C6.15527 20.6719 5.68652 20.5938 5.13965 20.5156C6.15527 23.7969 9.20215 26.1406 12.7959 26.2188C9.9834 28.4062 6.46777 29.7344 2.63965 29.7344C1.93652 29.7344 1.31152 29.6562 0.686523 29.5781C4.28027 31.9219 8.57715 33.25 13.2646 33.25C28.3428 33.25 36.5459 20.8281 36.5459 9.96875C36.5459 9.57812 36.5459 9.26562 36.5459 8.875Z" fill="white"/>
</svg>
