<svg width="39" height="40" viewBox="0 0 39 40" fill="none" xmlns="http://www.w3.org/2000/svg">
<path d="M38.75 20C38.75 9.29688 30.0781 0.625 19.375 0.625C8.67188 0.625 0 9.29688 0 20C0 28.2812 5.07812 35.2344 12.2656 38.0469C12.1094 36.5625 11.9531 34.2188 12.3438 32.5C12.7344 31.0156 14.6094 22.8906 14.6094 22.8906C14.6094 22.8906 14.0625 21.7188 14.0625 20C14.0625 17.3438 15.625 15.3125 17.5781 15.3125C19.2188 15.3125 20 16.5625 20 18.0469C20 19.6875 18.9062 22.1875 18.3594 24.5312C17.9688 26.4062 19.375 27.9688 21.25 27.9688C24.6875 27.9688 27.3438 24.375 27.3438 19.1406C27.3438 14.4531 23.9844 11.25 19.2969 11.25C13.75 11.25 10.5469 15.3906 10.5469 19.6094C10.5469 21.3281 11.1719 23.125 11.9531 24.0625C12.1094 24.2188 12.1094 24.4531 12.1094 24.6094C11.9531 25.2344 11.5625 26.5625 11.5625 26.7969C11.4844 27.1875 11.25 27.2656 10.8594 27.1094C8.4375 25.9375 6.95312 22.4219 6.95312 19.5312C6.95312 13.4375 11.4062 7.8125 19.7656 7.8125C26.4844 7.8125 31.7188 12.6562 31.7188 19.0625C31.7188 25.7031 27.5 31.0938 21.6406 31.0938C19.6875 31.0938 17.8125 30.0781 17.1875 28.8281C17.1875 28.8281 16.25 32.5781 16.0156 33.4375C15.5469 35.1562 14.375 37.2656 13.5938 38.5156C15.3906 39.1406 17.3438 39.375 19.375 39.375C30.0781 39.375 38.75 30.7031 38.75 20Z" fill="white"/>
</svg>
