<svg width="44" height="30" viewBox="0 0 44 30" fill="none" xmlns="http://www.w3.org/2000/svg">
<path d="M42.2637 4.76562C41.7949 2.89062 40.3105 1.40625 38.5137 0.9375C35.1543 0 21.873 0 21.873 0C21.873 0 8.51367 0 5.1543 0.9375C3.35742 1.40625 1.87305 2.89062 1.4043 4.76562C0.466797 8.04688 0.466797 15.0781 0.466797 15.0781C0.466797 15.0781 0.466797 22.0312 1.4043 25.3906C1.87305 27.2656 3.35742 28.6719 5.1543 29.1406C8.51367 30 21.873 30 21.873 30C21.873 30 35.1543 30 38.5137 29.1406C40.3105 28.6719 41.7949 27.2656 42.2637 25.3906C43.2012 22.0312 43.2012 15.0781 43.2012 15.0781C43.2012 15.0781 43.2012 8.04688 42.2637 4.76562ZM17.498 21.4062V8.75L28.5918 15.0781L17.498 21.4062Z" fill="white"/>
</svg>
